<?xml version="1.0" encoding="utf-8" standalone="no"?>
<!DOCTYPE svg PUBLIC "-//W3C//DTD SVG 1.1//EN"
  "http://www.w3.org/Graphics/SVG/1.1/DTD/svg11.dtd">
<svg xmlns:xlink="http://www.w3.org/1999/xlink" width="460.8pt" height="345.6pt" viewBox="0 0 460.8 345.6" xmlns="http://www.w3.org/2000/svg" version="1.1">
 <metadata>
  <rdf:RDF xmlns:dc="http://purl.org/dc/elements/1.1/" xmlns:cc="http://creativecommons.org/ns#" xmlns:rdf="http://www.w3.org/1999/02/22-rdf-syntax-ns#">
   <cc:Work>
    <dc:type rdf:resource="http://purl.org/dc/dcmitype/StillImage"/>
    <dc:date>2023-01-29T10:52:02.392517</dc:date>
    <dc:format>image/svg+xml</dc:format>
    <dc:creator>
     <cc:Agent>
      <dc:title>Matplotlib v3.5.3, https://matplotlib.org/</dc:title>
     </cc:Agent>
    </dc:creator>
   </cc:Work>
  </rdf:RDF>
 </metadata>
 <defs>
  <style type="text/css">*{stroke-linejoin: round; stroke-linecap: butt}</style>
 </defs>
 <g id="figure_1">
  <g id="patch_1">
   <path d="M 0 345.6 
L 460.8 345.6 
L 460.8 0 
L 0 0 
z
" style="fill: #ffffff"/>
  </g>
  <g id="axes_1">
   <g id="patch_2">
    <path d="M 57.6 307.584 
L 414.72 307.584 
L 414.72 41.472 
L 57.6 41.472 
z
" style="fill: #ffffff"/>
   </g>
   <g id="matplotlib.axis_1">
    <g id="xtick_1">
     <g id="line2d_1">
      <path d="M 73.832727 307.584 
L 73.832727 41.472 
" clip-path="url(#p786866c94f)" style="fill: none; stroke: #b0b0b0; stroke-width: 0.8; stroke-linecap: square"/>
     </g>
     <g id="line2d_2">
      <defs>
       <path id="m89f3558fd3" d="M 0 0 
L 0 3.5 
" style="stroke: #000000; stroke-width: 0.8"/>
      </defs>
      <g>
       <use xlink:href="#m89f3558fd3" x="73.832727" y="307.584" style="stroke: #000000; stroke-width: 0.8"/>
      </g>
     </g>
     <g id="text_1">
      <!-- 0 -->
      <g transform="translate(70.651477 322.182437)scale(0.1 -0.1)">
       <defs>
        <path id="DejaVuSans-30" d="M 2034 4250 
Q 1547 4250 1301 3770 
Q 1056 3291 1056 2328 
Q 1056 1369 1301 889 
Q 1547 409 2034 409 
Q 2525 409 2770 889 
Q 3016 1369 3016 2328 
Q 3016 3291 2770 3770 
Q 2525 4250 2034 4250 
z
M 2034 4750 
Q 2819 4750 3233 4129 
Q 3647 3509 3647 2328 
Q 3647 1150 3233 529 
Q 2819 -91 2034 -91 
Q 1250 -91 836 529 
Q 422 1150 422 2328 
Q 422 3509 836 4129 
Q 1250 4750 2034 4750 
z
" transform="scale(0.015625)"/>
       </defs>
       <use xlink:href="#DejaVuSans-30"/>
      </g>
     </g>
    </g>
    <g id="xtick_2">
     <g id="line2d_3">
      <path d="M 143.203357 307.584 
L 143.203357 41.472 
" clip-path="url(#p786866c94f)" style="fill: none; stroke: #b0b0b0; stroke-width: 0.8; stroke-linecap: square"/>
     </g>
     <g id="line2d_4">
      <g>
       <use xlink:href="#m89f3558fd3" x="143.203357" y="307.584" style="stroke: #000000; stroke-width: 0.8"/>
      </g>
     </g>
     <g id="text_2">
      <!-- 50 -->
      <g transform="translate(136.840857 322.182437)scale(0.1 -0.1)">
       <defs>
        <path id="DejaVuSans-35" d="M 691 4666 
L 3169 4666 
L 3169 4134 
L 1269 4134 
L 1269 2991 
Q 1406 3038 1543 3061 
Q 1681 3084 1819 3084 
Q 2600 3084 3056 2656 
Q 3513 2228 3513 1497 
Q 3513 744 3044 326 
Q 2575 -91 1722 -91 
Q 1428 -91 1123 -41 
Q 819 9 494 109 
L 494 744 
Q 775 591 1075 516 
Q 1375 441 1709 441 
Q 2250 441 2565 725 
Q 2881 1009 2881 1497 
Q 2881 1984 2565 2268 
Q 2250 2553 1709 2553 
Q 1456 2553 1204 2497 
Q 953 2441 691 2322 
L 691 4666 
z
" transform="scale(0.015625)"/>
       </defs>
       <use xlink:href="#DejaVuSans-35"/>
       <use xlink:href="#DejaVuSans-30" x="63.623047"/>
      </g>
     </g>
    </g>
    <g id="xtick_3">
     <g id="line2d_5">
      <path d="M 212.573986 307.584 
L 212.573986 41.472 
" clip-path="url(#p786866c94f)" style="fill: none; stroke: #b0b0b0; stroke-width: 0.8; stroke-linecap: square"/>
     </g>
     <g id="line2d_6">
      <g>
       <use xlink:href="#m89f3558fd3" x="212.573986" y="307.584" style="stroke: #000000; stroke-width: 0.8"/>
      </g>
     </g>
     <g id="text_3">
      <!-- 100 -->
      <g transform="translate(203.030236 322.182437)scale(0.1 -0.1)">
       <defs>
        <path id="DejaVuSans-31" d="M 794 531 
L 1825 531 
L 1825 4091 
L 703 3866 
L 703 4441 
L 1819 4666 
L 2450 4666 
L 2450 531 
L 3481 531 
L 3481 0 
L 794 0 
L 794 531 
z
" transform="scale(0.015625)"/>
       </defs>
       <use xlink:href="#DejaVuSans-31"/>
       <use xlink:href="#DejaVuSans-30" x="63.623047"/>
       <use xlink:href="#DejaVuSans-30" x="127.246094"/>
      </g>
     </g>
    </g>
    <g id="xtick_4">
     <g id="line2d_7">
      <path d="M 281.944615 307.584 
L 281.944615 41.472 
" clip-path="url(#p786866c94f)" style="fill: none; stroke: #b0b0b0; stroke-width: 0.8; stroke-linecap: square"/>
     </g>
     <g id="line2d_8">
      <g>
       <use xlink:href="#m89f3558fd3" x="281.944615" y="307.584" style="stroke: #000000; stroke-width: 0.8"/>
      </g>
     </g>
     <g id="text_4">
      <!-- 150 -->
      <g transform="translate(272.400865 322.182437)scale(0.1 -0.1)">
       <use xlink:href="#DejaVuSans-31"/>
       <use xlink:href="#DejaVuSans-35" x="63.623047"/>
       <use xlink:href="#DejaVuSans-30" x="127.246094"/>
      </g>
     </g>
    </g>
    <g id="xtick_5">
     <g id="line2d_9">
      <path d="M 351.315245 307.584 
L 351.315245 41.472 
" clip-path="url(#p786866c94f)" style="fill: none; stroke: #b0b0b0; stroke-width: 0.8; stroke-linecap: square"/>
     </g>
     <g id="line2d_10">
      <g>
       <use xlink:href="#m89f3558fd3" x="351.315245" y="307.584" style="stroke: #000000; stroke-width: 0.8"/>
      </g>
     </g>
     <g id="text_5">
      <!-- 200 -->
      <g transform="translate(341.771495 322.182437)scale(0.1 -0.1)">
       <defs>
        <path id="DejaVuSans-32" d="M 1228 531 
L 3431 531 
L 3431 0 
L 469 0 
L 469 531 
Q 828 903 1448 1529 
Q 2069 2156 2228 2338 
Q 2531 2678 2651 2914 
Q 2772 3150 2772 3378 
Q 2772 3750 2511 3984 
Q 2250 4219 1831 4219 
Q 1534 4219 1204 4116 
Q 875 4013 500 3803 
L 500 4441 
Q 881 4594 1212 4672 
Q 1544 4750 1819 4750 
Q 2544 4750 2975 4387 
Q 3406 4025 3406 3419 
Q 3406 3131 3298 2873 
Q 3191 2616 2906 2266 
Q 2828 2175 2409 1742 
Q 1991 1309 1228 531 
z
" transform="scale(0.015625)"/>
       </defs>
       <use xlink:href="#DejaVuSans-32"/>
       <use xlink:href="#DejaVuSans-30" x="63.623047"/>
       <use xlink:href="#DejaVuSans-30" x="127.246094"/>
      </g>
     </g>
    </g>
    <g id="text_6">
     <!-- Generations -->
     <g transform="translate(205.662344 335.860562)scale(0.1 -0.1)">
      <defs>
       <path id="DejaVuSans-47" d="M 3809 666 
L 3809 1919 
L 2778 1919 
L 2778 2438 
L 4434 2438 
L 4434 434 
Q 4069 175 3628 42 
Q 3188 -91 2688 -91 
Q 1594 -91 976 548 
Q 359 1188 359 2328 
Q 359 3472 976 4111 
Q 1594 4750 2688 4750 
Q 3144 4750 3555 4637 
Q 3966 4525 4313 4306 
L 4313 3634 
Q 3963 3931 3569 4081 
Q 3175 4231 2741 4231 
Q 1884 4231 1454 3753 
Q 1025 3275 1025 2328 
Q 1025 1384 1454 906 
Q 1884 428 2741 428 
Q 3075 428 3337 486 
Q 3600 544 3809 666 
z
" transform="scale(0.015625)"/>
       <path id="DejaVuSans-65" d="M 3597 1894 
L 3597 1613 
L 953 1613 
Q 991 1019 1311 708 
Q 1631 397 2203 397 
Q 2534 397 2845 478 
Q 3156 559 3463 722 
L 3463 178 
Q 3153 47 2828 -22 
Q 2503 -91 2169 -91 
Q 1331 -91 842 396 
Q 353 884 353 1716 
Q 353 2575 817 3079 
Q 1281 3584 2069 3584 
Q 2775 3584 3186 3129 
Q 3597 2675 3597 1894 
z
M 3022 2063 
Q 3016 2534 2758 2815 
Q 2500 3097 2075 3097 
Q 1594 3097 1305 2825 
Q 1016 2553 972 2059 
L 3022 2063 
z
" transform="scale(0.015625)"/>
       <path id="DejaVuSans-6e" d="M 3513 2113 
L 3513 0 
L 2938 0 
L 2938 2094 
Q 2938 2591 2744 2837 
Q 2550 3084 2163 3084 
Q 1697 3084 1428 2787 
Q 1159 2491 1159 1978 
L 1159 0 
L 581 0 
L 581 3500 
L 1159 3500 
L 1159 2956 
Q 1366 3272 1645 3428 
Q 1925 3584 2291 3584 
Q 2894 3584 3203 3211 
Q 3513 2838 3513 2113 
z
" transform="scale(0.015625)"/>
       <path id="DejaVuSans-72" d="M 2631 2963 
Q 2534 3019 2420 3045 
Q 2306 3072 2169 3072 
Q 1681 3072 1420 2755 
Q 1159 2438 1159 1844 
L 1159 0 
L 581 0 
L 581 3500 
L 1159 3500 
L 1159 2956 
Q 1341 3275 1631 3429 
Q 1922 3584 2338 3584 
Q 2397 3584 2469 3576 
Q 2541 3569 2628 3553 
L 2631 2963 
z
" transform="scale(0.015625)"/>
       <path id="DejaVuSans-61" d="M 2194 1759 
Q 1497 1759 1228 1600 
Q 959 1441 959 1056 
Q 959 750 1161 570 
Q 1363 391 1709 391 
Q 2188 391 2477 730 
Q 2766 1069 2766 1631 
L 2766 1759 
L 2194 1759 
z
M 3341 1997 
L 3341 0 
L 2766 0 
L 2766 531 
Q 2569 213 2275 61 
Q 1981 -91 1556 -91 
Q 1019 -91 701 211 
Q 384 513 384 1019 
Q 384 1609 779 1909 
Q 1175 2209 1959 2209 
L 2766 2209 
L 2766 2266 
Q 2766 2663 2505 2880 
Q 2244 3097 1772 3097 
Q 1472 3097 1187 3025 
Q 903 2953 641 2809 
L 641 3341 
Q 956 3463 1253 3523 
Q 1550 3584 1831 3584 
Q 2591 3584 2966 3190 
Q 3341 2797 3341 1997 
z
" transform="scale(0.015625)"/>
       <path id="DejaVuSans-74" d="M 1172 4494 
L 1172 3500 
L 2356 3500 
L 2356 3053 
L 1172 3053 
L 1172 1153 
Q 1172 725 1289 603 
Q 1406 481 1766 481 
L 2356 481 
L 2356 0 
L 1766 0 
Q 1100 0 847 248 
Q 594 497 594 1153 
L 594 3053 
L 172 3053 
L 172 3500 
L 594 3500 
L 594 4494 
L 1172 4494 
z
" transform="scale(0.015625)"/>
       <path id="DejaVuSans-69" d="M 603 3500 
L 1178 3500 
L 1178 0 
L 603 0 
L 603 3500 
z
M 603 4863 
L 1178 4863 
L 1178 4134 
L 603 4134 
L 603 4863 
z
" transform="scale(0.015625)"/>
       <path id="DejaVuSans-6f" d="M 1959 3097 
Q 1497 3097 1228 2736 
Q 959 2375 959 1747 
Q 959 1119 1226 758 
Q 1494 397 1959 397 
Q 2419 397 2687 759 
Q 2956 1122 2956 1747 
Q 2956 2369 2687 2733 
Q 2419 3097 1959 3097 
z
M 1959 3584 
Q 2709 3584 3137 3096 
Q 3566 2609 3566 1747 
Q 3566 888 3137 398 
Q 2709 -91 1959 -91 
Q 1206 -91 779 398 
Q 353 888 353 1747 
Q 353 2609 779 3096 
Q 1206 3584 1959 3584 
z
" transform="scale(0.015625)"/>
       <path id="DejaVuSans-73" d="M 2834 3397 
L 2834 2853 
Q 2591 2978 2328 3040 
Q 2066 3103 1784 3103 
Q 1356 3103 1142 2972 
Q 928 2841 928 2578 
Q 928 2378 1081 2264 
Q 1234 2150 1697 2047 
L 1894 2003 
Q 2506 1872 2764 1633 
Q 3022 1394 3022 966 
Q 3022 478 2636 193 
Q 2250 -91 1575 -91 
Q 1294 -91 989 -36 
Q 684 19 347 128 
L 347 722 
Q 666 556 975 473 
Q 1284 391 1588 391 
Q 1994 391 2212 530 
Q 2431 669 2431 922 
Q 2431 1156 2273 1281 
Q 2116 1406 1581 1522 
L 1381 1569 
Q 847 1681 609 1914 
Q 372 2147 372 2553 
Q 372 3047 722 3315 
Q 1072 3584 1716 3584 
Q 2034 3584 2315 3537 
Q 2597 3491 2834 3397 
z
" transform="scale(0.015625)"/>
      </defs>
      <use xlink:href="#DejaVuSans-47"/>
      <use xlink:href="#DejaVuSans-65" x="77.490234"/>
      <use xlink:href="#DejaVuSans-6e" x="139.013672"/>
      <use xlink:href="#DejaVuSans-65" x="202.392578"/>
      <use xlink:href="#DejaVuSans-72" x="263.916016"/>
      <use xlink:href="#DejaVuSans-61" x="305.029297"/>
      <use xlink:href="#DejaVuSans-74" x="366.308594"/>
      <use xlink:href="#DejaVuSans-69" x="405.517578"/>
      <use xlink:href="#DejaVuSans-6f" x="433.300781"/>
      <use xlink:href="#DejaVuSans-6e" x="494.482422"/>
      <use xlink:href="#DejaVuSans-73" x="557.861328"/>
     </g>
    </g>
   </g>
   <g id="matplotlib.axis_2">
    <g id="ytick_1">
     <g id="line2d_11">
      <path d="M 57.6 259.58049 
L 414.72 259.58049 
" clip-path="url(#p786866c94f)" style="fill: none; stroke: #b0b0b0; stroke-width: 0.8; stroke-linecap: square"/>
     </g>
     <g id="line2d_12">
      <defs>
       <path id="m055a1d7d1d" d="M 0 0 
L -3.5 0 
" style="stroke: #000000; stroke-width: 0.8"/>
      </defs>
      <g>
       <use xlink:href="#m055a1d7d1d" x="57.6" y="259.58049" style="stroke: #000000; stroke-width: 0.8"/>
      </g>
     </g>
     <g id="text_7">
      <!-- 0 -->
      <g transform="translate(44.2375 263.379709)scale(0.1 -0.1)">
       <use xlink:href="#DejaVuSans-30"/>
      </g>
     </g>
    </g>
    <g id="ytick_2">
     <g id="line2d_13">
      <path d="M 57.6 207.001326 
L 414.72 207.001326 
" clip-path="url(#p786866c94f)" style="fill: none; stroke: #b0b0b0; stroke-width: 0.8; stroke-linecap: square"/>
     </g>
     <g id="line2d_14">
      <g>
       <use xlink:href="#m055a1d7d1d" x="57.6" y="207.001326" style="stroke: #000000; stroke-width: 0.8"/>
      </g>
     </g>
     <g id="text_8">
      <!-- 20000 -->
      <g transform="translate(18.7875 210.800545)scale(0.1 -0.1)">
       <use xlink:href="#DejaVuSans-32"/>
       <use xlink:href="#DejaVuSans-30" x="63.623047"/>
       <use xlink:href="#DejaVuSans-30" x="127.246094"/>
       <use xlink:href="#DejaVuSans-30" x="190.869141"/>
       <use xlink:href="#DejaVuSans-30" x="254.492188"/>
      </g>
     </g>
    </g>
    <g id="ytick_3">
     <g id="line2d_15">
      <path d="M 57.6 154.422161 
L 414.72 154.422161 
" clip-path="url(#p786866c94f)" style="fill: none; stroke: #b0b0b0; stroke-width: 0.8; stroke-linecap: square"/>
     </g>
     <g id="line2d_16">
      <g>
       <use xlink:href="#m055a1d7d1d" x="57.6" y="154.422161" style="stroke: #000000; stroke-width: 0.8"/>
      </g>
     </g>
     <g id="text_9">
      <!-- 40000 -->
      <g transform="translate(18.7875 158.22138)scale(0.1 -0.1)">
       <defs>
        <path id="DejaVuSans-34" d="M 2419 4116 
L 825 1625 
L 2419 1625 
L 2419 4116 
z
M 2253 4666 
L 3047 4666 
L 3047 1625 
L 3713 1625 
L 3713 1100 
L 3047 1100 
L 3047 0 
L 2419 0 
L 2419 1100 
L 313 1100 
L 313 1709 
L 2253 4666 
z
" transform="scale(0.015625)"/>
       </defs>
       <use xlink:href="#DejaVuSans-34"/>
       <use xlink:href="#DejaVuSans-30" x="63.623047"/>
       <use xlink:href="#DejaVuSans-30" x="127.246094"/>
       <use xlink:href="#DejaVuSans-30" x="190.869141"/>
       <use xlink:href="#DejaVuSans-30" x="254.492188"/>
      </g>
     </g>
    </g>
    <g id="ytick_4">
     <g id="line2d_17">
      <path d="M 57.6 101.842997 
L 414.72 101.842997 
" clip-path="url(#p786866c94f)" style="fill: none; stroke: #b0b0b0; stroke-width: 0.8; stroke-linecap: square"/>
     </g>
     <g id="line2d_18">
      <g>
       <use xlink:href="#m055a1d7d1d" x="57.6" y="101.842997" style="stroke: #000000; stroke-width: 0.8"/>
      </g>
     </g>
     <g id="text_10">
      <!-- 60000 -->
      <g transform="translate(18.7875 105.642216)scale(0.1 -0.1)">
       <defs>
        <path id="DejaVuSans-36" d="M 2113 2584 
Q 1688 2584 1439 2293 
Q 1191 2003 1191 1497 
Q 1191 994 1439 701 
Q 1688 409 2113 409 
Q 2538 409 2786 701 
Q 3034 994 3034 1497 
Q 3034 2003 2786 2293 
Q 2538 2584 2113 2584 
z
M 3366 4563 
L 3366 3988 
Q 3128 4100 2886 4159 
Q 2644 4219 2406 4219 
Q 1781 4219 1451 3797 
Q 1122 3375 1075 2522 
Q 1259 2794 1537 2939 
Q 1816 3084 2150 3084 
Q 2853 3084 3261 2657 
Q 3669 2231 3669 1497 
Q 3669 778 3244 343 
Q 2819 -91 2113 -91 
Q 1303 -91 875 529 
Q 447 1150 447 2328 
Q 447 3434 972 4092 
Q 1497 4750 2381 4750 
Q 2619 4750 2861 4703 
Q 3103 4656 3366 4563 
z
" transform="scale(0.015625)"/>
       </defs>
       <use xlink:href="#DejaVuSans-36"/>
       <use xlink:href="#DejaVuSans-30" x="63.623047"/>
       <use xlink:href="#DejaVuSans-30" x="127.246094"/>
       <use xlink:href="#DejaVuSans-30" x="190.869141"/>
       <use xlink:href="#DejaVuSans-30" x="254.492188"/>
      </g>
     </g>
    </g>
    <g id="ytick_5">
     <g id="line2d_19">
      <path d="M 57.6 49.263833 
L 414.72 49.263833 
" clip-path="url(#p786866c94f)" style="fill: none; stroke: #b0b0b0; stroke-width: 0.8; stroke-linecap: square"/>
     </g>
     <g id="line2d_20">
      <g>
       <use xlink:href="#m055a1d7d1d" x="57.6" y="49.263833" style="stroke: #000000; stroke-width: 0.8"/>
      </g>
     </g>
     <g id="text_11">
      <!-- 80000 -->
      <g transform="translate(18.7875 53.063051)scale(0.1 -0.1)">
       <defs>
        <path id="DejaVuSans-38" d="M 2034 2216 
Q 1584 2216 1326 1975 
Q 1069 1734 1069 1313 
Q 1069 891 1326 650 
Q 1584 409 2034 409 
Q 2484 409 2743 651 
Q 3003 894 3003 1313 
Q 3003 1734 2745 1975 
Q 2488 2216 2034 2216 
z
M 1403 2484 
Q 997 2584 770 2862 
Q 544 3141 544 3541 
Q 544 4100 942 4425 
Q 1341 4750 2034 4750 
Q 2731 4750 3128 4425 
Q 3525 4100 3525 3541 
Q 3525 3141 3298 2862 
Q 3072 2584 2669 2484 
Q 3125 2378 3379 2068 
Q 3634 1759 3634 1313 
Q 3634 634 3220 271 
Q 2806 -91 2034 -91 
Q 1263 -91 848 271 
Q 434 634 434 1313 
Q 434 1759 690 2068 
Q 947 2378 1403 2484 
z
M 1172 3481 
Q 1172 3119 1398 2916 
Q 1625 2713 2034 2713 
Q 2441 2713 2670 2916 
Q 2900 3119 2900 3481 
Q 2900 3844 2670 4047 
Q 2441 4250 2034 4250 
Q 1625 4250 1398 4047 
Q 1172 3844 1172 3481 
z
" transform="scale(0.015625)"/>
       </defs>
       <use xlink:href="#DejaVuSans-38"/>
       <use xlink:href="#DejaVuSans-30" x="63.623047"/>
       <use xlink:href="#DejaVuSans-30" x="127.246094"/>
       <use xlink:href="#DejaVuSans-30" x="190.869141"/>
       <use xlink:href="#DejaVuSans-30" x="254.492188"/>
      </g>
     </g>
    </g>
    <g id="text_12">
     <!-- Fitness -->
     <g transform="translate(12.707812 191.845187)rotate(-90)scale(0.1 -0.1)">
      <defs>
       <path id="DejaVuSans-46" d="M 628 4666 
L 3309 4666 
L 3309 4134 
L 1259 4134 
L 1259 2759 
L 3109 2759 
L 3109 2228 
L 1259 2228 
L 1259 0 
L 628 0 
L 628 4666 
z
" transform="scale(0.015625)"/>
      </defs>
      <use xlink:href="#DejaVuSans-46"/>
      <use xlink:href="#DejaVuSans-69" x="50.269531"/>
      <use xlink:href="#DejaVuSans-74" x="78.052734"/>
      <use xlink:href="#DejaVuSans-6e" x="117.261719"/>
      <use xlink:href="#DejaVuSans-65" x="180.640625"/>
      <use xlink:href="#DejaVuSans-73" x="242.164062"/>
      <use xlink:href="#DejaVuSans-73" x="294.263672"/>
     </g>
    </g>
   </g>
   <g id="line2d_21">
    <path d="M 73.832727 268.907576 
L 75.22014 270.694355 
L 76.607552 269.60066 
L 77.994965 267.742895 
L 79.382378 267.885567 
L 80.76979 271.084392 
L 82.157203 269.565771 
L 83.544615 268.309312 
L 84.932028 267.614197 
L 86.319441 268.833347 
L 87.706853 272.130263 
L 89.094266 270.667378 
L 90.481678 268.318894 
L 91.869091 271.620498 
L 93.256503 269.125319 
L 94.643916 270.229613 
L 96.031329 267.868598 
L 97.418741 264.783729 
L 98.806154 265.938513 
L 100.193566 268.256188 
L 101.580979 267.69388 
L 102.968392 268.869953 
L 104.355804 268.048471 
L 105.743217 267.902304 
L 107.130629 269.416674 
L 108.518042 269.446048 
L 109.905455 265.173096 
L 111.292867 270.053062 
L 112.68028 270.261238 
L 114.067692 266.770782 
L 115.455105 268.031813 
L 116.842517 267.275131 
L 118.22993 270.065313 
L 119.617343 268.466663 
L 121.004755 268.040424 
L 122.392168 269.192829 
L 123.77958 268.507065 
L 125.166993 270.676279 
L 126.554406 266.428093 
L 127.941818 268.34456 
L 130.716643 269.0289 
L 132.104056 267.34482 
L 133.491469 267.655773 
L 136.266294 269.348517 
L 137.653706 268.096551 
L 139.041119 266.997754 
L 140.428531 269.791065 
L 141.815944 268.819535 
L 143.203357 266.987058 
L 144.590769 270.085291 
L 145.978182 267.319742 
L 147.365594 269.031043 
L 148.753007 267.477428 
L 151.527832 267.883232 
L 152.915245 266.813658 
L 154.302657 270.111343 
L 155.69007 268.19638 
L 157.077483 268.857016 
L 158.464895 270.893635 
L 159.852308 267.393242 
L 161.23972 267.858372 
L 162.627133 267.457242 
L 164.014545 268.993971 
L 165.401958 267.958499 
L 166.789371 265.827789 
L 168.176783 268.178766 
L 169.564196 267.076315 
L 170.951608 268.372057 
L 172.339021 268.700743 
L 173.726434 267.825112 
L 175.113846 267.105574 
L 176.501259 265.800117 
L 177.888671 266.578661 
L 179.276084 267.734798 
L 180.663497 269.863996 
L 182.050909 267.856332 
L 184.825734 265.848109 
L 186.213147 267.894352 
L 187.600559 266.652492 
L 188.987972 268.525698 
L 190.375385 268.193563 
L 191.762797 267.584725 
L 193.15021 269.104581 
L 194.537622 267.220335 
L 195.925035 266.286048 
L 197.312448 266.764894 
L 198.69986 266.518816 
L 200.087273 265.962186 
L 201.474685 267.175545 
L 202.862098 270.052558 
L 204.24951 268.680143 
L 207.024336 271.483343 
L 208.411748 268.913046 
L 209.799161 266.905319 
L 211.186573 268.655512 
L 212.573986 267.253592 
L 213.961399 268.578987 
L 215.348811 269.008036 
L 216.736224 269.157645 
L 218.123636 268.165402 
L 219.511049 267.769746 
L 220.898462 268.679715 
L 222.285874 266.449238 
L 223.673287 269.950126 
L 225.060699 265.072924 
L 226.448112 268.117917 
L 227.835524 266.647431 
L 229.222937 268.551543 
L 231.997762 268.639561 
L 233.385175 266.329096 
L 234.772587 268.456273 
L 236.16 267.357445 
L 237.547413 266.898134 
L 238.934825 267.582494 
L 240.322238 265.2132 
L 241.70965 268.15776 
L 243.097063 268.529049 
L 244.484476 265.531134 
L 245.871888 266.198862 
L 247.259301 268.48664 
L 250.034126 266.163369 
L 251.421538 264.537282 
L 252.808951 265.100251 
L 254.196364 265.407022 
L 255.583776 266.866201 
L 256.971189 266.855284 
L 258.358601 267.487694 
L 259.746014 267.054591 
L 261.133427 267.54131 
L 262.520839 265.048637 
L 263.908252 267.029631 
L 265.295664 265.786428 
L 266.683077 266.589775 
L 268.07049 266.952048 
L 269.457902 264.590662 
L 270.845315 266.584944 
L 272.232727 265.670975 
L 273.62014 266.591231 
L 275.007552 266.149904 
L 276.394965 265.481432 
L 277.782378 268.910798 
L 279.16979 267.51434 
L 280.557203 264.568792 
L 281.944615 266.384149 
L 283.332028 267.580429 
L 284.719441 267.091821 
L 286.106853 268.744689 
L 287.494266 265.969413 
L 288.881678 266.901093 
L 290.269091 265.712465 
L 291.656503 268.720537 
L 293.043916 266.532669 
L 294.431329 265.429604 
L 295.818741 266.289775 
L 297.206154 266.185632 
L 298.593566 265.045468 
L 299.980979 263.700666 
L 301.368392 266.570787 
L 302.755804 265.550056 
L 304.143217 265.30769 
L 305.530629 264.589337 
L 306.918042 263.111274 
L 308.305455 268.489365 
L 309.692867 266.485137 
L 311.08028 267.505206 
L 312.467692 266.000081 
L 313.855105 267.20808 
L 315.242517 267.996693 
L 316.62993 267.300946 
L 318.017343 266.20127 
L 319.404755 266.836627 
L 320.792168 266.39687 
L 322.17958 267.891179 
L 323.566993 266.499963 
L 324.954406 270.025304 
L 326.341818 267.02776 
L 327.729231 264.333881 
L 329.116643 266.157842 
L 330.504056 269.069154 
L 331.891469 267.863479 
L 333.278881 268.114586 
L 334.666294 267.387404 
L 336.053706 270.119622 
L 337.441119 268.946607 
L 338.828531 269.06712 
L 340.215944 268.441395 
L 341.603357 267.356711 
L 342.990769 268.018176 
L 344.378182 267.706397 
L 345.765594 269.383458 
L 347.153007 268.321412 
L 348.54042 269.590897 
L 349.927832 268.707361 
L 351.315245 270.924544 
L 352.702657 269.194212 
L 354.09007 268.508562 
L 355.477483 266.299778 
L 356.864895 268.4891 
L 358.252308 267.412212 
L 359.63972 267.653041 
L 361.027133 267.136664 
L 362.414545 271.005436 
L 363.801958 268.267631 
L 365.189371 264.295813 
L 366.576783 267.857288 
L 367.964196 268.183183 
L 369.351608 268.220148 
L 370.739021 266.224926 
L 372.126434 267.165548 
L 373.513846 267.806485 
L 374.901259 264.584474 
L 376.288671 267.769915 
L 377.676084 267.42463 
L 380.450909 268.092211 
L 381.838322 266.233681 
L 383.225734 268.877125 
L 384.613147 268.425714 
L 386.000559 267.220828 
L 387.387972 267.959929 
L 388.775385 265.237982 
L 390.162797 267.389634 
L 391.55021 268.348528 
L 392.937622 268.597388 
L 394.325035 265.88926 
L 395.712448 264.948482 
L 397.09986 268.148201 
L 398.487273 267.011711 
L 398.487273 267.011711 
" clip-path="url(#p786866c94f)" style="fill: none; stroke: #0000ff; stroke-width: 1.5; stroke-linecap: square"/>
   </g>
   <g id="line2d_22">
    <path d="M 73.832727 291.672975 
L 75.22014 293.591349 
L 76.607552 294.886685 
L 77.994965 292.424899 
L 79.382378 290.890707 
L 80.76979 293.570381 
L 82.157203 292.230022 
L 83.544615 292.772432 
L 84.932028 294.029751 
L 86.319441 291.70845 
L 87.706853 292.873495 
L 89.094266 295.0913 
L 90.481678 292.369244 
L 93.256503 290.18707 
L 94.643916 293.270986 
L 96.031329 293.367479 
L 97.418741 290.337647 
L 98.806154 290.690426 
L 100.193566 295.488 
L 101.580979 291.957631 
L 104.355804 290.971544 
L 105.743217 293.077259 
L 107.130629 291.548364 
L 108.518042 290.808834 
L 109.905455 292.633626 
L 111.292867 292.76211 
L 112.68028 292.706694 
L 114.067692 289.422321 
L 115.455105 290.245257 
L 116.842517 292.531365 
L 118.22993 291.861725 
L 119.617343 288.779489 
L 121.004755 290.34367 
L 122.392168 290.577353 
L 123.77958 289.673001 
L 125.166993 292.811603 
L 126.554406 291.59809 
L 127.941818 292.543905 
L 129.329231 289.821559 
L 130.716643 291.446131 
L 132.104056 291.805533 
L 133.491469 290.452159 
L 134.878881 291.141093 
L 136.266294 288.538096 
L 137.653706 291.766627 
L 139.041119 291.410068 
L 140.428531 289.778636 
L 141.815944 289.854276 
L 144.590769 290.665023 
L 145.978182 291.347146 
L 147.365594 291.658282 
L 148.753007 290.67343 
L 151.527832 292.81709 
L 152.915245 291.061698 
L 154.302657 291.722608 
L 155.69007 291.570398 
L 157.077483 292.414801 
L 158.464895 293.577428 
L 159.852308 291.522182 
L 161.23972 292.326794 
L 162.627133 290.590809 
L 164.014545 291.039315 
L 165.401958 287.642502 
L 166.789371 289.211523 
L 168.176783 290.350768 
L 169.564196 288.968668 
L 170.951608 292.713565 
L 172.339021 292.254917 
L 173.726434 293.045412 
L 175.113846 288.735423 
L 176.501259 290.492254 
L 177.888671 289.673731 
L 179.276084 290.887018 
L 180.663497 291.453719 
L 182.050909 290.922816 
L 183.438322 291.280509 
L 184.825734 292.689355 
L 186.213147 292.15988 
L 187.600559 289.119567 
L 188.987972 289.699457 
L 190.375385 290.847498 
L 191.762797 290.605856 
L 193.15021 290.052134 
L 194.537622 290.400413 
L 195.925035 289.574578 
L 197.312448 289.247758 
L 198.69986 291.052545 
L 200.087273 290.339765 
L 201.474685 292.120477 
L 202.862098 293.582463 
L 204.24951 290.449657 
L 205.636923 292.660802 
L 207.024336 294.537254 
L 209.799161 291.443293 
L 211.186573 291.886071 
L 212.573986 290.901765 
L 213.961399 291.085022 
L 215.348811 291.973332 
L 216.736224 290.658892 
L 218.123636 292.002192 
L 219.511049 290.22662 
L 220.898462 293.228537 
L 222.285874 289.93908 
L 223.673287 289.621822 
L 225.060699 289.98773 
L 226.448112 291.655837 
L 227.835524 292.142487 
L 229.222937 289.394138 
L 230.61035 291.058447 
L 231.997762 289.821776 
L 233.385175 289.626004 
L 234.772587 289.050049 
L 236.16 287.784866 
L 237.547413 289.723199 
L 238.934825 289.629159 
L 240.322238 288.453375 
L 241.70965 291.021174 
L 243.097063 292.499669 
L 244.484476 288.926208 
L 245.871888 289.407204 
L 247.259301 292.204292 
L 248.646713 287.351186 
L 250.034126 290.715283 
L 251.421538 291.03781 
L 252.808951 291.00342 
L 254.196364 288.430425 
L 255.583776 291.564433 
L 256.971189 291.488975 
L 258.358601 292.452194 
L 259.746014 290.132493 
L 261.133427 290.693275 
L 262.520839 289.44325 
L 263.908252 290.964219 
L 265.295664 290.523122 
L 266.683077 291.55212 
L 268.07049 289.049544 
L 269.457902 289.820076 
L 270.845315 291.362513 
L 272.232727 291.633046 
L 273.62014 289.658128 
L 275.007552 289.838524 
L 276.394965 288.422702 
L 277.782378 290.049577 
L 279.16979 289.732335 
L 280.557203 290.401985 
L 281.944615 291.959481 
L 283.332028 290.273679 
L 284.719441 292.767878 
L 286.106853 290.794333 
L 287.494266 289.334272 
L 288.881678 286.863283 
L 290.269091 291.074225 
L 291.656503 292.159131 
L 293.043916 290.682975 
L 294.431329 289.540181 
L 295.818741 290.68235 
L 297.206154 288.315159 
L 298.593566 287.482996 
L 299.980979 290.052903 
L 301.368392 292.203891 
L 302.755804 289.424794 
L 304.143217 292.242389 
L 305.530629 290.563127 
L 306.918042 289.330957 
L 308.305455 290.586926 
L 309.692867 290.509002 
L 311.08028 291.178708 
L 312.467692 289.596754 
L 313.855105 290.73401 
L 315.242517 290.376496 
L 316.62993 290.539505 
L 318.017343 286.822834 
L 319.404755 293.427231 
L 320.792168 291.366446 
L 322.17958 290.812324 
L 323.566993 291.835141 
L 324.954406 293.809265 
L 326.341818 292.735024 
L 327.729231 290.22543 
L 329.116643 290.379933 
L 330.504056 289.413949 
L 331.891469 294.383419 
L 333.278881 291.340164 
L 334.666294 293.385806 
L 336.053706 295.207761 
L 337.441119 292.0795 
L 338.828531 293.531782 
L 340.215944 291.933918 
L 341.603357 293.18897 
L 342.990769 291.010365 
L 344.378182 292.455302 
L 345.765594 293.643554 
L 347.153007 293.010367 
L 348.54042 291.194252 
L 349.927832 293.419825 
L 351.315245 292.776648 
L 352.702657 291.644173 
L 354.09007 291.482584 
L 355.477483 289.56136 
L 356.864895 291.09812 
L 358.252308 290.389737 
L 359.63972 290.69412 
L 361.027133 288.352877 
L 362.414545 293.602214 
L 363.801958 293.181262 
L 365.189371 288.365557 
L 369.351608 292.194086 
L 370.739021 289.409734 
L 372.126434 290.850265 
L 373.513846 291.111327 
L 374.901259 291.969635 
L 376.288671 292.140464 
L 377.676084 291.072081 
L 379.063497 290.556576 
L 380.450909 290.581005 
L 381.838322 291.31315 
L 383.225734 290.795855 
L 384.613147 291.358216 
L 386.000559 290.650842 
L 387.387972 291.10945 
L 388.775385 290.504411 
L 390.162797 292.496669 
L 392.937622 291.473378 
L 394.325035 289.979753 
L 395.712448 286.994081 
L 397.09986 290.667161 
L 398.487273 291.401514 
L 398.487273 291.401514 
" clip-path="url(#p786866c94f)" style="fill: none; stroke-dasharray: 9.6,2.4,1.5,2.4; stroke-dashoffset: 0; stroke: #008000; stroke-width: 1.5"/>
   </g>
   <g id="line2d_23">
    <path d="M 73.832727 246.142177 
L 75.22014 247.797361 
L 76.607552 244.314635 
L 77.994965 243.06089 
L 79.382378 244.880428 
L 80.76979 248.598403 
L 82.157203 246.90152 
L 83.544615 243.846191 
L 84.932028 241.198644 
L 86.319441 245.958244 
L 87.706853 251.387032 
L 89.094266 246.243455 
L 90.481678 244.268544 
L 91.869091 251.895634 
L 93.256503 248.063569 
L 94.643916 247.188239 
L 96.031329 242.369716 
L 97.418741 239.22981 
L 98.806154 241.186599 
L 100.193566 241.024376 
L 101.580979 243.430129 
L 102.968392 246.22721 
L 104.355804 245.125398 
L 105.743217 242.727348 
L 107.130629 247.284984 
L 108.518042 248.083262 
L 109.905455 237.712566 
L 111.292867 247.344013 
L 112.68028 247.815781 
L 114.067692 244.119244 
L 115.455105 245.81837 
L 116.842517 242.018896 
L 118.22993 248.268901 
L 119.617343 248.153836 
L 121.004755 245.737178 
L 122.392168 247.808305 
L 123.77958 247.34113 
L 125.166993 248.540955 
L 126.554406 241.258096 
L 127.941818 244.145216 
L 129.329231 247.613565 
L 130.716643 246.611668 
L 132.104056 242.884108 
L 133.491469 244.859387 
L 134.878881 245.867646 
L 136.266294 250.158938 
L 137.653706 244.426474 
L 139.041119 242.58544 
L 140.428531 249.803495 
L 141.815944 247.784793 
L 143.203357 243.745363 
L 144.590769 249.505559 
L 145.978182 243.292339 
L 147.365594 246.403804 
L 148.753007 244.281425 
L 150.14042 243.743391 
L 151.527832 242.949375 
L 152.915245 242.565618 
L 154.302657 248.500079 
L 155.69007 244.822361 
L 157.077483 245.299232 
L 158.464895 248.209842 
L 159.852308 243.264302 
L 161.23972 243.389951 
L 162.627133 244.323676 
L 164.014545 246.948627 
L 165.401958 248.274496 
L 166.789371 242.444055 
L 168.176783 246.006763 
L 169.564196 245.183961 
L 170.951608 244.030549 
L 172.339021 245.146569 
L 173.726434 242.604813 
L 175.113846 245.475725 
L 176.501259 241.10798 
L 177.888671 243.483591 
L 179.276084 244.582578 
L 180.663497 248.274273 
L 182.050909 244.789848 
L 183.438322 242.345341 
L 184.825734 239.006864 
L 186.213147 243.628825 
L 187.600559 244.185418 
L 188.987972 247.351939 
L 190.375385 245.539628 
L 191.762797 244.563594 
L 193.15021 248.157029 
L 194.537622 244.040258 
L 195.925035 242.997519 
L 197.312448 244.282029 
L 198.69986 241.985088 
L 200.087273 241.584607 
L 201.474685 242.230614 
L 202.862098 246.522653 
L 205.636923 247.408428 
L 207.024336 248.429432 
L 208.411748 244.863756 
L 209.799161 242.367345 
L 211.186573 245.424953 
L 212.573986 243.605419 
L 213.961399 246.072951 
L 215.348811 246.04274 
L 216.736224 247.656398 
L 218.123636 244.328612 
L 219.511049 245.312873 
L 222.285874 242.959397 
L 223.673287 250.27843 
L 225.060699 240.158118 
L 226.448112 244.579997 
L 227.835524 241.152375 
L 229.222937 247.708949 
L 230.61035 246.03093 
L 231.997762 247.457345 
L 233.385175 243.032189 
L 234.772587 247.862497 
L 236.16 246.930024 
L 237.547413 244.073068 
L 238.934825 245.535829 
L 240.322238 241.973025 
L 241.70965 245.294345 
L 243.097063 244.558428 
L 244.484476 242.13606 
L 245.871888 242.99052 
L 247.259301 244.768989 
L 248.646713 247.424842 
L 250.034126 241.611456 
L 251.421538 238.036754 
L 252.808951 239.197082 
L 254.196364 242.383619 
L 255.583776 242.167969 
L 256.971189 242.221592 
L 258.358601 242.523194 
L 259.746014 243.976689 
L 261.133427 244.389346 
L 262.520839 240.654023 
L 263.908252 243.095043 
L 265.295664 241.049734 
L 266.683077 241.627431 
L 268.07049 244.854553 
L 269.457902 239.361248 
L 270.845315 241.807376 
L 272.232727 239.708904 
L 273.62014 243.524335 
L 275.007552 242.461284 
L 276.394965 242.540161 
L 277.782378 247.772019 
L 279.16979 245.296345 
L 280.557203 238.735599 
L 281.944615 240.808817 
L 283.332028 244.887179 
L 284.719441 241.415764 
L 286.106853 246.695044 
L 287.494266 242.604554 
L 288.881678 246.938904 
L 290.269091 240.350705 
L 291.656503 245.281943 
L 293.043916 242.382364 
L 294.431329 241.319026 
L 295.818741 241.897199 
L 297.206154 244.056105 
L 298.593566 242.607941 
L 299.980979 237.34843 
L 301.368392 240.937683 
L 302.755804 241.675318 
L 304.143217 238.372991 
L 305.530629 238.615547 
L 306.918042 236.89159 
L 308.305455 246.391804 
L 309.692867 242.461272 
L 311.08028 243.831704 
L 312.467692 242.403409 
L 313.855105 243.682151 
L 315.242517 245.616891 
L 316.62993 244.062387 
L 318.017343 245.579707 
L 319.404755 240.246023 
L 320.792168 241.427294 
L 322.17958 244.970033 
L 323.566993 241.164784 
L 324.954406 246.241343 
L 326.341818 241.320496 
L 327.729231 238.442332 
L 329.116643 241.93575 
L 330.504056 248.724359 
L 331.891469 241.343538 
L 333.278881 244.889007 
L 334.666294 241.389002 
L 336.053706 245.031483 
L 337.441119 245.813713 
L 338.828531 244.602458 
L 340.215944 244.948872 
L 341.603357 241.524451 
L 342.990769 245.025988 
L 344.378182 242.957492 
L 345.765594 245.123362 
L 347.153007 243.632456 
L 348.54042 247.987541 
L 349.927832 243.994897 
L 351.315245 249.07244 
L 352.702657 246.744252 
L 354.09007 245.534541 
L 355.477483 243.038197 
L 356.864895 245.880079 
L 358.252308 244.434686 
L 359.63972 244.611963 
L 361.027133 245.92045 
L 362.414545 248.408658 
L 363.801958 243.354001 
L 365.189371 240.226069 
L 366.576783 246.105953 
L 367.964196 245.626302 
L 369.351608 244.24621 
L 370.739021 243.040118 
L 372.126434 243.480831 
L 373.513846 244.501642 
L 374.901259 237.199313 
L 376.288671 243.399366 
L 377.676084 243.777179 
L 379.063497 244.854929 
L 380.450909 245.603417 
L 381.838322 241.154213 
L 383.225734 246.958396 
L 384.613147 245.493211 
L 386.000559 243.790814 
L 387.387972 244.810409 
L 388.775385 239.971554 
L 391.55021 244.697391 
L 392.937622 245.721398 
L 394.325035 241.798768 
L 395.712448 242.902883 
L 397.09986 245.629241 
L 398.487273 242.621908 
L 398.487273 242.621908 
" clip-path="url(#p786866c94f)" style="fill: none; stroke-dasharray: 9.6,2.4,1.5,2.4; stroke-dashoffset: 0; stroke: #008000; stroke-width: 1.5"/>
   </g>
   <g id="line2d_24">
    <path d="M 73.832727 157.996659 
L 75.22014 119.286313 
L 76.607552 119.729538 
L 77.994965 156.782929 
L 79.382378 174.454764 
L 80.76979 177.496813 
L 82.157203 153.880433 
L 83.544615 158.601955 
L 84.932028 117.877439 
L 86.319441 169.298963 
L 87.706853 174.083434 
L 89.094266 136.250933 
L 90.481678 170.185729 
L 91.869091 208.792984 
L 93.256503 192.328916 
L 94.643916 170.482212 
L 96.031329 137.415906 
L 97.418741 129.347611 
L 98.806154 154.687194 
L 100.193566 131.912062 
L 101.580979 166.911599 
L 102.968392 170.942036 
L 104.355804 158.407741 
L 105.743217 132.852233 
L 107.130629 170.876537 
L 108.518042 148.075002 
L 109.905455 148.358869 
L 111.292867 173.059243 
L 112.68028 152.585871 
L 114.067692 174.300172 
L 115.455105 155.872102 
L 116.842517 132.337475 
L 118.22993 175.841384 
L 119.617343 193.701093 
L 121.004755 156.44428 
L 122.392168 132.253013 
L 123.77958 131.898302 
L 125.166993 204.136706 
L 126.554406 156.012992 
L 127.941818 114.371982 
L 129.329231 196.218363 
L 130.716643 171.904956 
L 132.104056 53.568 
L 133.491469 172.356207 
L 134.878881 177.304188 
L 136.266294 201.612229 
L 137.653706 168.858243 
L 139.041119 170.559209 
L 140.428531 204.717037 
L 141.815944 190.10792 
L 143.203357 174.273686 
L 144.590769 171.449797 
L 145.978182 169.588839 
L 147.365594 172.543268 
L 148.753007 148.152504 
L 150.14042 133.712481 
L 151.527832 102.823218 
L 152.915245 158.645765 
L 154.302657 172.04398 
L 155.69007 156.74006 
L 157.077483 171.117526 
L 158.464895 145.121897 
L 159.852308 166.25449 
L 161.23972 156.316023 
L 162.627133 191.962072 
L 164.014545 151.088729 
L 165.401958 205.045322 
L 166.789371 173.464494 
L 168.176783 170.023524 
L 169.564196 168.940716 
L 170.951608 131.006721 
L 172.339021 156.852034 
L 173.726434 140.251246 
L 175.113846 174.443842 
L 176.501259 165.336649 
L 177.888671 171.764948 
L 179.276084 170.929888 
L 180.663497 174.114933 
L 182.050909 134.836434 
L 183.438322 171.517314 
L 184.825734 100.951282 
L 186.213147 144.807186 
L 187.600559 167.510337 
L 188.987972 167.112995 
L 190.375385 149.031936 
L 193.15021 194.468723 
L 194.537622 169.73121 
L 195.925035 169.498927 
L 197.312448 168.911828 
L 198.69986 155.527707 
L 200.087273 173.665689 
L 201.474685 171.732304 
L 202.862098 188.189047 
L 204.24951 166.612556 
L 205.636923 191.503572 
L 207.024336 175.587004 
L 208.411748 130.356869 
L 209.799161 171.092743 
L 211.186573 168.805249 
L 212.573986 154.136995 
L 213.961399 173.419623 
L 215.348811 171.58998 
L 216.736224 187.736442 
L 218.123636 131.466701 
L 219.511049 158.449781 
L 220.898462 99.095063 
L 222.285874 167.534419 
L 223.673287 192.459929 
L 225.060699 137.670472 
L 226.448112 122.069343 
L 227.835524 141.661996 
L 229.222937 187.919093 
L 230.61035 157.812505 
L 231.997762 174.207825 
L 233.385175 134.757789 
L 234.772587 191.255498 
L 236.16 159.540212 
L 237.547413 137.705069 
L 238.934825 151.22004 
L 240.322238 168.331961 
L 241.70965 170.850814 
L 243.097063 136.20503 
L 244.484476 171.443537 
L 245.871888 155.458034 
L 247.259301 169.208307 
L 248.646713 193.324371 
L 250.034126 155.02661 
L 251.421538 137.585289 
L 252.808951 134.513614 
L 254.196364 160.35002 
L 255.583776 81.091779 
L 256.971189 130.250678 
L 258.358601 95.466544 
L 259.746014 157.223357 
L 261.133427 185.103712 
L 262.520839 101.967133 
L 263.908252 156.046846 
L 265.295664 132.179923 
L 266.683077 168.561138 
L 268.07049 168.903898 
L 269.457902 170.127174 
L 270.845315 156.052759 
L 272.232727 168.574795 
L 273.62014 169.545425 
L 275.007552 170.115931 
L 276.394965 167.803502 
L 277.782378 170.186245 
L 279.16979 174.818387 
L 280.557203 154.883512 
L 281.944615 171.216588 
L 283.332028 141.960355 
L 284.719441 79.477444 
L 286.106853 166.265715 
L 287.494266 173.899886 
L 288.881678 173.378861 
L 290.269091 136.378918 
L 291.656503 166.562934 
L 293.043916 169.90183 
L 294.431329 166.84791 
L 295.818741 128.446096 
L 297.206154 172.779412 
L 298.593566 170.211719 
L 299.980979 134.601209 
L 301.368392 112.763862 
L 302.755804 104.579787 
L 304.143217 122.051082 
L 305.530629 168.770341 
L 306.918042 168.614659 
L 308.305455 167.060264 
L 309.692867 169.089024 
L 311.08028 170.259484 
L 312.467692 158.245904 
L 313.855105 170.24463 
L 315.242517 158.69514 
L 316.62993 155.26342 
L 318.017343 168.935687 
L 319.404755 99.247422 
L 322.17958 175.218576 
L 323.566993 134.051973 
L 324.954406 165.492128 
L 326.341818 136.003982 
L 327.729231 134.090493 
L 329.116643 114.238552 
L 330.504056 176.823032 
L 331.891469 125.409925 
L 333.278881 166.326017 
L 334.666294 145.860152 
L 336.053706 136.385838 
L 337.441119 170.410955 
L 338.828531 169.809081 
L 340.215944 167.585289 
L 341.603357 167.133542 
L 342.990769 172.801649 
L 344.378182 165.179599 
L 345.765594 133.219211 
L 347.153007 135.397126 
L 348.54042 171.158133 
L 349.927832 133.890749 
L 351.315245 174.577122 
L 352.702657 170.011137 
L 354.09007 132.96419 
L 355.477483 169.037041 
L 358.252308 173.558677 
L 359.63972 156.793495 
L 361.027133 170.930342 
L 362.414545 157.456682 
L 363.801958 169.968587 
L 365.189371 170.253445 
L 366.576783 133.50768 
L 367.964196 117.755484 
L 369.351608 154.912418 
L 370.739021 140.979764 
L 372.126434 172.907412 
L 373.513846 136.81961 
L 374.901259 152.368346 
L 376.288671 172.712398 
L 377.676084 169.734376 
L 379.063497 169.833197 
L 380.450909 174.697136 
L 381.838322 135.497561 
L 383.225734 130.776641 
L 384.613147 169.735638 
L 386.000559 94.650507 
L 387.387972 171.26893 
L 388.775385 134.511433 
L 390.162797 153.748262 
L 391.55021 157.51069 
L 392.937622 168.328598 
L 394.325035 168.806764 
L 395.712448 166.836055 
L 397.09986 170.525551 
L 398.487273 131.958387 
L 398.487273 131.958387 
" clip-path="url(#p786866c94f)" style="fill: none; stroke: #ff0000; stroke-width: 1.5; stroke-linecap: square"/>
   </g>
   <g id="patch_3">
    <path d="M 57.6 307.584 
L 57.6 41.472 
" style="fill: none; stroke: #000000; stroke-width: 0.8; stroke-linejoin: miter; stroke-linecap: square"/>
   </g>
   <g id="patch_4">
    <path d="M 414.72 307.584 
L 414.72 41.472 
" style="fill: none; stroke: #000000; stroke-width: 0.8; stroke-linejoin: miter; stroke-linecap: square"/>
   </g>
   <g id="patch_5">
    <path d="M 57.6 307.584 
L 414.72 307.584 
" style="fill: none; stroke: #000000; stroke-width: 0.8; stroke-linejoin: miter; stroke-linecap: square"/>
   </g>
   <g id="patch_6">
    <path d="M 57.6 41.472 
L 414.72 41.472 
" style="fill: none; stroke: #000000; stroke-width: 0.8; stroke-linejoin: miter; stroke-linecap: square"/>
   </g>
   <g id="text_13">
    <!-- Population's average and best fitness -->
    <g transform="translate(123.529687 35.472)scale(0.12 -0.12)">
     <defs>
      <path id="DejaVuSans-50" d="M 1259 4147 
L 1259 2394 
L 2053 2394 
Q 2494 2394 2734 2622 
Q 2975 2850 2975 3272 
Q 2975 3691 2734 3919 
Q 2494 4147 2053 4147 
L 1259 4147 
z
M 628 4666 
L 2053 4666 
Q 2838 4666 3239 4311 
Q 3641 3956 3641 3272 
Q 3641 2581 3239 2228 
Q 2838 1875 2053 1875 
L 1259 1875 
L 1259 0 
L 628 0 
L 628 4666 
z
" transform="scale(0.015625)"/>
      <path id="DejaVuSans-70" d="M 1159 525 
L 1159 -1331 
L 581 -1331 
L 581 3500 
L 1159 3500 
L 1159 2969 
Q 1341 3281 1617 3432 
Q 1894 3584 2278 3584 
Q 2916 3584 3314 3078 
Q 3713 2572 3713 1747 
Q 3713 922 3314 415 
Q 2916 -91 2278 -91 
Q 1894 -91 1617 61 
Q 1341 213 1159 525 
z
M 3116 1747 
Q 3116 2381 2855 2742 
Q 2594 3103 2138 3103 
Q 1681 3103 1420 2742 
Q 1159 2381 1159 1747 
Q 1159 1113 1420 752 
Q 1681 391 2138 391 
Q 2594 391 2855 752 
Q 3116 1113 3116 1747 
z
" transform="scale(0.015625)"/>
      <path id="DejaVuSans-75" d="M 544 1381 
L 544 3500 
L 1119 3500 
L 1119 1403 
Q 1119 906 1312 657 
Q 1506 409 1894 409 
Q 2359 409 2629 706 
Q 2900 1003 2900 1516 
L 2900 3500 
L 3475 3500 
L 3475 0 
L 2900 0 
L 2900 538 
Q 2691 219 2414 64 
Q 2138 -91 1772 -91 
Q 1169 -91 856 284 
Q 544 659 544 1381 
z
M 1991 3584 
L 1991 3584 
z
" transform="scale(0.015625)"/>
      <path id="DejaVuSans-6c" d="M 603 4863 
L 1178 4863 
L 1178 0 
L 603 0 
L 603 4863 
z
" transform="scale(0.015625)"/>
      <path id="DejaVuSans-27" d="M 1147 4666 
L 1147 2931 
L 616 2931 
L 616 4666 
L 1147 4666 
z
" transform="scale(0.015625)"/>
      <path id="DejaVuSans-20" transform="scale(0.015625)"/>
      <path id="DejaVuSans-76" d="M 191 3500 
L 800 3500 
L 1894 563 
L 2988 3500 
L 3597 3500 
L 2284 0 
L 1503 0 
L 191 3500 
z
" transform="scale(0.015625)"/>
      <path id="DejaVuSans-67" d="M 2906 1791 
Q 2906 2416 2648 2759 
Q 2391 3103 1925 3103 
Q 1463 3103 1205 2759 
Q 947 2416 947 1791 
Q 947 1169 1205 825 
Q 1463 481 1925 481 
Q 2391 481 2648 825 
Q 2906 1169 2906 1791 
z
M 3481 434 
Q 3481 -459 3084 -895 
Q 2688 -1331 1869 -1331 
Q 1566 -1331 1297 -1286 
Q 1028 -1241 775 -1147 
L 775 -588 
Q 1028 -725 1275 -790 
Q 1522 -856 1778 -856 
Q 2344 -856 2625 -561 
Q 2906 -266 2906 331 
L 2906 616 
Q 2728 306 2450 153 
Q 2172 0 1784 0 
Q 1141 0 747 490 
Q 353 981 353 1791 
Q 353 2603 747 3093 
Q 1141 3584 1784 3584 
Q 2172 3584 2450 3431 
Q 2728 3278 2906 2969 
L 2906 3500 
L 3481 3500 
L 3481 434 
z
" transform="scale(0.015625)"/>
      <path id="DejaVuSans-64" d="M 2906 2969 
L 2906 4863 
L 3481 4863 
L 3481 0 
L 2906 0 
L 2906 525 
Q 2725 213 2448 61 
Q 2172 -91 1784 -91 
Q 1150 -91 751 415 
Q 353 922 353 1747 
Q 353 2572 751 3078 
Q 1150 3584 1784 3584 
Q 2172 3584 2448 3432 
Q 2725 3281 2906 2969 
z
M 947 1747 
Q 947 1113 1208 752 
Q 1469 391 1925 391 
Q 2381 391 2643 752 
Q 2906 1113 2906 1747 
Q 2906 2381 2643 2742 
Q 2381 3103 1925 3103 
Q 1469 3103 1208 2742 
Q 947 2381 947 1747 
z
" transform="scale(0.015625)"/>
      <path id="DejaVuSans-62" d="M 3116 1747 
Q 3116 2381 2855 2742 
Q 2594 3103 2138 3103 
Q 1681 3103 1420 2742 
Q 1159 2381 1159 1747 
Q 1159 1113 1420 752 
Q 1681 391 2138 391 
Q 2594 391 2855 752 
Q 3116 1113 3116 1747 
z
M 1159 2969 
Q 1341 3281 1617 3432 
Q 1894 3584 2278 3584 
Q 2916 3584 3314 3078 
Q 3713 2572 3713 1747 
Q 3713 922 3314 415 
Q 2916 -91 2278 -91 
Q 1894 -91 1617 61 
Q 1341 213 1159 525 
L 1159 0 
L 581 0 
L 581 4863 
L 1159 4863 
L 1159 2969 
z
" transform="scale(0.015625)"/>
      <path id="DejaVuSans-66" d="M 2375 4863 
L 2375 4384 
L 1825 4384 
Q 1516 4384 1395 4259 
Q 1275 4134 1275 3809 
L 1275 3500 
L 2222 3500 
L 2222 3053 
L 1275 3053 
L 1275 0 
L 697 0 
L 697 3053 
L 147 3053 
L 147 3500 
L 697 3500 
L 697 3744 
Q 697 4328 969 4595 
Q 1241 4863 1831 4863 
L 2375 4863 
z
" transform="scale(0.015625)"/>
     </defs>
     <use xlink:href="#DejaVuSans-50"/>
     <use xlink:href="#DejaVuSans-6f" x="56.677734"/>
     <use xlink:href="#DejaVuSans-70" x="117.859375"/>
     <use xlink:href="#DejaVuSans-75" x="181.335938"/>
     <use xlink:href="#DejaVuSans-6c" x="244.714844"/>
     <use xlink:href="#DejaVuSans-61" x="272.498047"/>
     <use xlink:href="#DejaVuSans-74" x="333.777344"/>
     <use xlink:href="#DejaVuSans-69" x="372.986328"/>
     <use xlink:href="#DejaVuSans-6f" x="400.769531"/>
     <use xlink:href="#DejaVuSans-6e" x="461.951172"/>
     <use xlink:href="#DejaVuSans-27" x="525.330078"/>
     <use xlink:href="#DejaVuSans-73" x="552.820312"/>
     <use xlink:href="#DejaVuSans-20" x="604.919922"/>
     <use xlink:href="#DejaVuSans-61" x="636.707031"/>
     <use xlink:href="#DejaVuSans-76" x="697.986328"/>
     <use xlink:href="#DejaVuSans-65" x="757.166016"/>
     <use xlink:href="#DejaVuSans-72" x="818.689453"/>
     <use xlink:href="#DejaVuSans-61" x="859.802734"/>
     <use xlink:href="#DejaVuSans-67" x="921.082031"/>
     <use xlink:href="#DejaVuSans-65" x="984.558594"/>
     <use xlink:href="#DejaVuSans-20" x="1046.082031"/>
     <use xlink:href="#DejaVuSans-61" x="1077.869141"/>
     <use xlink:href="#DejaVuSans-6e" x="1139.148438"/>
     <use xlink:href="#DejaVuSans-64" x="1202.527344"/>
     <use xlink:href="#DejaVuSans-20" x="1266.003906"/>
     <use xlink:href="#DejaVuSans-62" x="1297.791016"/>
     <use xlink:href="#DejaVuSans-65" x="1361.267578"/>
     <use xlink:href="#DejaVuSans-73" x="1422.791016"/>
     <use xlink:href="#DejaVuSans-74" x="1474.890625"/>
     <use xlink:href="#DejaVuSans-20" x="1514.099609"/>
     <use xlink:href="#DejaVuSans-66" x="1545.886719"/>
     <use xlink:href="#DejaVuSans-69" x="1581.091797"/>
     <use xlink:href="#DejaVuSans-74" x="1608.875"/>
     <use xlink:href="#DejaVuSans-6e" x="1648.083984"/>
     <use xlink:href="#DejaVuSans-65" x="1711.462891"/>
     <use xlink:href="#DejaVuSans-73" x="1772.986328"/>
     <use xlink:href="#DejaVuSans-73" x="1825.085938"/>
    </g>
   </g>
   <g id="legend_1">
    <g id="patch_7">
     <path d="M 334.779375 108.1845 
L 407.72 108.1845 
Q 409.72 108.1845 409.72 106.1845 
L 409.72 48.472 
Q 409.72 46.472 407.72 46.472 
L 334.779375 46.472 
Q 332.779375 46.472 332.779375 48.472 
L 332.779375 106.1845 
Q 332.779375 108.1845 334.779375 108.1845 
z
" style="fill: #ffffff; opacity: 0.8; stroke: #cccccc; stroke-linejoin: miter"/>
    </g>
    <g id="line2d_25">
     <path d="M 336.779375 54.570438 
L 346.779375 54.570438 
L 356.779375 54.570438 
" style="fill: none; stroke: #0000ff; stroke-width: 1.5; stroke-linecap: square"/>
    </g>
    <g id="text_14">
     <!-- average -->
     <g transform="translate(364.779375 58.070438)scale(0.1 -0.1)">
      <use xlink:href="#DejaVuSans-61"/>
      <use xlink:href="#DejaVuSans-76" x="61.279297"/>
      <use xlink:href="#DejaVuSans-65" x="120.458984"/>
      <use xlink:href="#DejaVuSans-72" x="181.982422"/>
      <use xlink:href="#DejaVuSans-61" x="223.095703"/>
      <use xlink:href="#DejaVuSans-67" x="284.375"/>
      <use xlink:href="#DejaVuSans-65" x="347.851562"/>
     </g>
    </g>
    <g id="line2d_26">
     <path d="M 336.779375 69.248563 
L 346.779375 69.248563 
L 356.779375 69.248563 
" style="fill: none; stroke-dasharray: 9.6,2.4,1.5,2.4; stroke-dashoffset: 0; stroke: #008000; stroke-width: 1.5"/>
    </g>
    <g id="text_15">
     <!-- -1 sd -->
     <g transform="translate(364.779375 72.748563)scale(0.1 -0.1)">
      <defs>
       <path id="DejaVuSans-2d" d="M 313 2009 
L 1997 2009 
L 1997 1497 
L 313 1497 
L 313 2009 
z
" transform="scale(0.015625)"/>
      </defs>
      <use xlink:href="#DejaVuSans-2d"/>
      <use xlink:href="#DejaVuSans-31" x="36.083984"/>
      <use xlink:href="#DejaVuSans-20" x="99.707031"/>
      <use xlink:href="#DejaVuSans-73" x="131.494141"/>
      <use xlink:href="#DejaVuSans-64" x="183.59375"/>
     </g>
    </g>
    <g id="line2d_27">
     <path d="M 336.779375 83.926688 
L 346.779375 83.926688 
L 356.779375 83.926688 
" style="fill: none; stroke-dasharray: 9.6,2.4,1.5,2.4; stroke-dashoffset: 0; stroke: #008000; stroke-width: 1.5"/>
    </g>
    <g id="text_16">
     <!-- +1 sd -->
     <g transform="translate(364.779375 87.426688)scale(0.1 -0.1)">
      <defs>
       <path id="DejaVuSans-2b" d="M 2944 4013 
L 2944 2272 
L 4684 2272 
L 4684 1741 
L 2944 1741 
L 2944 0 
L 2419 0 
L 2419 1741 
L 678 1741 
L 678 2272 
L 2419 2272 
L 2419 4013 
L 2944 4013 
z
" transform="scale(0.015625)"/>
      </defs>
      <use xlink:href="#DejaVuSans-2b"/>
      <use xlink:href="#DejaVuSans-31" x="83.789062"/>
      <use xlink:href="#DejaVuSans-20" x="147.412109"/>
      <use xlink:href="#DejaVuSans-73" x="179.199219"/>
      <use xlink:href="#DejaVuSans-64" x="231.298828"/>
     </g>
    </g>
    <g id="line2d_28">
     <path d="M 336.779375 98.604813 
L 346.779375 98.604813 
L 356.779375 98.604813 
" style="fill: none; stroke: #ff0000; stroke-width: 1.5; stroke-linecap: square"/>
    </g>
    <g id="text_17">
     <!-- best -->
     <g transform="translate(364.779375 102.104813)scale(0.1 -0.1)">
      <use xlink:href="#DejaVuSans-62"/>
      <use xlink:href="#DejaVuSans-65" x="63.476562"/>
      <use xlink:href="#DejaVuSans-73" x="125"/>
      <use xlink:href="#DejaVuSans-74" x="177.099609"/>
     </g>
    </g>
   </g>
  </g>
 </g>
 <defs>
  <clipPath id="p786866c94f">
   <rect x="57.6" y="41.472" width="357.12" height="266.112"/>
  </clipPath>
 </defs>
</svg>
