<?xml version="1.0" encoding="utf-8" standalone="no"?>
<!DOCTYPE svg PUBLIC "-//W3C//DTD SVG 1.1//EN"
  "http://www.w3.org/Graphics/SVG/1.1/DTD/svg11.dtd">
<svg xmlns:xlink="http://www.w3.org/1999/xlink" width="460.8pt" height="345.6pt" viewBox="0 0 460.8 345.6" xmlns="http://www.w3.org/2000/svg" version="1.1">
 <metadata>
  <rdf:RDF xmlns:dc="http://purl.org/dc/elements/1.1/" xmlns:cc="http://creativecommons.org/ns#" xmlns:rdf="http://www.w3.org/1999/02/22-rdf-syntax-ns#">
   <cc:Work>
    <dc:type rdf:resource="http://purl.org/dc/dcmitype/StillImage"/>
    <dc:date>2023-01-29T00:09:27.440060</dc:date>
    <dc:format>image/svg+xml</dc:format>
    <dc:creator>
     <cc:Agent>
      <dc:title>Matplotlib v3.5.3, https://matplotlib.org/</dc:title>
     </cc:Agent>
    </dc:creator>
   </cc:Work>
  </rdf:RDF>
 </metadata>
 <defs>
  <style type="text/css">*{stroke-linejoin: round; stroke-linecap: butt}</style>
 </defs>
 <g id="figure_1">
  <g id="patch_1">
   <path d="M 0 345.6 
L 460.8 345.6 
L 460.8 0 
L 0 0 
z
" style="fill: #ffffff"/>
  </g>
  <g id="axes_1">
   <g id="patch_2">
    <path d="M 57.6 307.584 
L 414.72 307.584 
L 414.72 41.472 
L 57.6 41.472 
z
" style="fill: #ffffff"/>
   </g>
   <g id="matplotlib.axis_1">
    <g id="xtick_1">
     <g id="line2d_1">
      <path d="M 73.832727 307.584 
L 73.832727 41.472 
" clip-path="url(#pe4b917fe86)" style="fill: none; stroke: #b0b0b0; stroke-width: 0.8; stroke-linecap: square"/>
     </g>
     <g id="line2d_2">
      <defs>
       <path id="mf632f73559" d="M 0 0 
L 0 3.5 
" style="stroke: #000000; stroke-width: 0.8"/>
      </defs>
      <g>
       <use xlink:href="#mf632f73559" x="73.832727" y="307.584" style="stroke: #000000; stroke-width: 0.8"/>
      </g>
     </g>
     <g id="text_1">
      <!-- 0 -->
      <g transform="translate(70.651477 322.182437)scale(0.1 -0.1)">
       <defs>
        <path id="DejaVuSans-30" d="M 2034 4250 
Q 1547 4250 1301 3770 
Q 1056 3291 1056 2328 
Q 1056 1369 1301 889 
Q 1547 409 2034 409 
Q 2525 409 2770 889 
Q 3016 1369 3016 2328 
Q 3016 3291 2770 3770 
Q 2525 4250 2034 4250 
z
M 2034 4750 
Q 2819 4750 3233 4129 
Q 3647 3509 3647 2328 
Q 3647 1150 3233 529 
Q 2819 -91 2034 -91 
Q 1250 -91 836 529 
Q 422 1150 422 2328 
Q 422 3509 836 4129 
Q 1250 4750 2034 4750 
z
" transform="scale(0.015625)"/>
       </defs>
       <use xlink:href="#DejaVuSans-30"/>
      </g>
     </g>
    </g>
    <g id="xtick_2">
     <g id="line2d_3">
      <path d="M 124.244924 307.584 
L 124.244924 41.472 
" clip-path="url(#pe4b917fe86)" style="fill: none; stroke: #b0b0b0; stroke-width: 0.8; stroke-linecap: square"/>
     </g>
     <g id="line2d_4">
      <g>
       <use xlink:href="#mf632f73559" x="124.244924" y="307.584" style="stroke: #000000; stroke-width: 0.8"/>
      </g>
     </g>
     <g id="text_2">
      <!-- 50 -->
      <g transform="translate(117.882424 322.182437)scale(0.1 -0.1)">
       <defs>
        <path id="DejaVuSans-35" d="M 691 4666 
L 3169 4666 
L 3169 4134 
L 1269 4134 
L 1269 2991 
Q 1406 3038 1543 3061 
Q 1681 3084 1819 3084 
Q 2600 3084 3056 2656 
Q 3513 2228 3513 1497 
Q 3513 744 3044 326 
Q 2575 -91 1722 -91 
Q 1428 -91 1123 -41 
Q 819 9 494 109 
L 494 744 
Q 775 591 1075 516 
Q 1375 441 1709 441 
Q 2250 441 2565 725 
Q 2881 1009 2881 1497 
Q 2881 1984 2565 2268 
Q 2250 2553 1709 2553 
Q 1456 2553 1204 2497 
Q 953 2441 691 2322 
L 691 4666 
z
" transform="scale(0.015625)"/>
       </defs>
       <use xlink:href="#DejaVuSans-35"/>
       <use xlink:href="#DejaVuSans-30" x="63.623047"/>
      </g>
     </g>
    </g>
    <g id="xtick_3">
     <g id="line2d_5">
      <path d="M 174.65712 307.584 
L 174.65712 41.472 
" clip-path="url(#pe4b917fe86)" style="fill: none; stroke: #b0b0b0; stroke-width: 0.8; stroke-linecap: square"/>
     </g>
     <g id="line2d_6">
      <g>
       <use xlink:href="#mf632f73559" x="174.65712" y="307.584" style="stroke: #000000; stroke-width: 0.8"/>
      </g>
     </g>
     <g id="text_3">
      <!-- 100 -->
      <g transform="translate(165.11337 322.182437)scale(0.1 -0.1)">
       <defs>
        <path id="DejaVuSans-31" d="M 794 531 
L 1825 531 
L 1825 4091 
L 703 3866 
L 703 4441 
L 1819 4666 
L 2450 4666 
L 2450 531 
L 3481 531 
L 3481 0 
L 794 0 
L 794 531 
z
" transform="scale(0.015625)"/>
       </defs>
       <use xlink:href="#DejaVuSans-31"/>
       <use xlink:href="#DejaVuSans-30" x="63.623047"/>
       <use xlink:href="#DejaVuSans-30" x="127.246094"/>
      </g>
     </g>
    </g>
    <g id="xtick_4">
     <g id="line2d_7">
      <path d="M 225.069317 307.584 
L 225.069317 41.472 
" clip-path="url(#pe4b917fe86)" style="fill: none; stroke: #b0b0b0; stroke-width: 0.8; stroke-linecap: square"/>
     </g>
     <g id="line2d_8">
      <g>
       <use xlink:href="#mf632f73559" x="225.069317" y="307.584" style="stroke: #000000; stroke-width: 0.8"/>
      </g>
     </g>
     <g id="text_4">
      <!-- 150 -->
      <g transform="translate(215.525567 322.182437)scale(0.1 -0.1)">
       <use xlink:href="#DejaVuSans-31"/>
       <use xlink:href="#DejaVuSans-35" x="63.623047"/>
       <use xlink:href="#DejaVuSans-30" x="127.246094"/>
      </g>
     </g>
    </g>
    <g id="xtick_5">
     <g id="line2d_9">
      <path d="M 275.481513 307.584 
L 275.481513 41.472 
" clip-path="url(#pe4b917fe86)" style="fill: none; stroke: #b0b0b0; stroke-width: 0.8; stroke-linecap: square"/>
     </g>
     <g id="line2d_10">
      <g>
       <use xlink:href="#mf632f73559" x="275.481513" y="307.584" style="stroke: #000000; stroke-width: 0.8"/>
      </g>
     </g>
     <g id="text_5">
      <!-- 200 -->
      <g transform="translate(265.937763 322.182437)scale(0.1 -0.1)">
       <defs>
        <path id="DejaVuSans-32" d="M 1228 531 
L 3431 531 
L 3431 0 
L 469 0 
L 469 531 
Q 828 903 1448 1529 
Q 2069 2156 2228 2338 
Q 2531 2678 2651 2914 
Q 2772 3150 2772 3378 
Q 2772 3750 2511 3984 
Q 2250 4219 1831 4219 
Q 1534 4219 1204 4116 
Q 875 4013 500 3803 
L 500 4441 
Q 881 4594 1212 4672 
Q 1544 4750 1819 4750 
Q 2544 4750 2975 4387 
Q 3406 4025 3406 3419 
Q 3406 3131 3298 2873 
Q 3191 2616 2906 2266 
Q 2828 2175 2409 1742 
Q 1991 1309 1228 531 
z
" transform="scale(0.015625)"/>
       </defs>
       <use xlink:href="#DejaVuSans-32"/>
       <use xlink:href="#DejaVuSans-30" x="63.623047"/>
       <use xlink:href="#DejaVuSans-30" x="127.246094"/>
      </g>
     </g>
    </g>
    <g id="xtick_6">
     <g id="line2d_11">
      <path d="M 325.89371 307.584 
L 325.89371 41.472 
" clip-path="url(#pe4b917fe86)" style="fill: none; stroke: #b0b0b0; stroke-width: 0.8; stroke-linecap: square"/>
     </g>
     <g id="line2d_12">
      <g>
       <use xlink:href="#mf632f73559" x="325.89371" y="307.584" style="stroke: #000000; stroke-width: 0.8"/>
      </g>
     </g>
     <g id="text_6">
      <!-- 250 -->
      <g transform="translate(316.34996 322.182437)scale(0.1 -0.1)">
       <use xlink:href="#DejaVuSans-32"/>
       <use xlink:href="#DejaVuSans-35" x="63.623047"/>
       <use xlink:href="#DejaVuSans-30" x="127.246094"/>
      </g>
     </g>
    </g>
    <g id="xtick_7">
     <g id="line2d_13">
      <path d="M 376.305906 307.584 
L 376.305906 41.472 
" clip-path="url(#pe4b917fe86)" style="fill: none; stroke: #b0b0b0; stroke-width: 0.8; stroke-linecap: square"/>
     </g>
     <g id="line2d_14">
      <g>
       <use xlink:href="#mf632f73559" x="376.305906" y="307.584" style="stroke: #000000; stroke-width: 0.8"/>
      </g>
     </g>
     <g id="text_7">
      <!-- 300 -->
      <g transform="translate(366.762156 322.182437)scale(0.1 -0.1)">
       <defs>
        <path id="DejaVuSans-33" d="M 2597 2516 
Q 3050 2419 3304 2112 
Q 3559 1806 3559 1356 
Q 3559 666 3084 287 
Q 2609 -91 1734 -91 
Q 1441 -91 1130 -33 
Q 819 25 488 141 
L 488 750 
Q 750 597 1062 519 
Q 1375 441 1716 441 
Q 2309 441 2620 675 
Q 2931 909 2931 1356 
Q 2931 1769 2642 2001 
Q 2353 2234 1838 2234 
L 1294 2234 
L 1294 2753 
L 1863 2753 
Q 2328 2753 2575 2939 
Q 2822 3125 2822 3475 
Q 2822 3834 2567 4026 
Q 2313 4219 1838 4219 
Q 1578 4219 1281 4162 
Q 984 4106 628 3988 
L 628 4550 
Q 988 4650 1302 4700 
Q 1616 4750 1894 4750 
Q 2613 4750 3031 4423 
Q 3450 4097 3450 3541 
Q 3450 3153 3228 2886 
Q 3006 2619 2597 2516 
z
" transform="scale(0.015625)"/>
       </defs>
       <use xlink:href="#DejaVuSans-33"/>
       <use xlink:href="#DejaVuSans-30" x="63.623047"/>
       <use xlink:href="#DejaVuSans-30" x="127.246094"/>
      </g>
     </g>
    </g>
    <g id="text_8">
     <!-- Generations -->
     <g transform="translate(205.662344 335.860562)scale(0.1 -0.1)">
      <defs>
       <path id="DejaVuSans-47" d="M 3809 666 
L 3809 1919 
L 2778 1919 
L 2778 2438 
L 4434 2438 
L 4434 434 
Q 4069 175 3628 42 
Q 3188 -91 2688 -91 
Q 1594 -91 976 548 
Q 359 1188 359 2328 
Q 359 3472 976 4111 
Q 1594 4750 2688 4750 
Q 3144 4750 3555 4637 
Q 3966 4525 4313 4306 
L 4313 3634 
Q 3963 3931 3569 4081 
Q 3175 4231 2741 4231 
Q 1884 4231 1454 3753 
Q 1025 3275 1025 2328 
Q 1025 1384 1454 906 
Q 1884 428 2741 428 
Q 3075 428 3337 486 
Q 3600 544 3809 666 
z
" transform="scale(0.015625)"/>
       <path id="DejaVuSans-65" d="M 3597 1894 
L 3597 1613 
L 953 1613 
Q 991 1019 1311 708 
Q 1631 397 2203 397 
Q 2534 397 2845 478 
Q 3156 559 3463 722 
L 3463 178 
Q 3153 47 2828 -22 
Q 2503 -91 2169 -91 
Q 1331 -91 842 396 
Q 353 884 353 1716 
Q 353 2575 817 3079 
Q 1281 3584 2069 3584 
Q 2775 3584 3186 3129 
Q 3597 2675 3597 1894 
z
M 3022 2063 
Q 3016 2534 2758 2815 
Q 2500 3097 2075 3097 
Q 1594 3097 1305 2825 
Q 1016 2553 972 2059 
L 3022 2063 
z
" transform="scale(0.015625)"/>
       <path id="DejaVuSans-6e" d="M 3513 2113 
L 3513 0 
L 2938 0 
L 2938 2094 
Q 2938 2591 2744 2837 
Q 2550 3084 2163 3084 
Q 1697 3084 1428 2787 
Q 1159 2491 1159 1978 
L 1159 0 
L 581 0 
L 581 3500 
L 1159 3500 
L 1159 2956 
Q 1366 3272 1645 3428 
Q 1925 3584 2291 3584 
Q 2894 3584 3203 3211 
Q 3513 2838 3513 2113 
z
" transform="scale(0.015625)"/>
       <path id="DejaVuSans-72" d="M 2631 2963 
Q 2534 3019 2420 3045 
Q 2306 3072 2169 3072 
Q 1681 3072 1420 2755 
Q 1159 2438 1159 1844 
L 1159 0 
L 581 0 
L 581 3500 
L 1159 3500 
L 1159 2956 
Q 1341 3275 1631 3429 
Q 1922 3584 2338 3584 
Q 2397 3584 2469 3576 
Q 2541 3569 2628 3553 
L 2631 2963 
z
" transform="scale(0.015625)"/>
       <path id="DejaVuSans-61" d="M 2194 1759 
Q 1497 1759 1228 1600 
Q 959 1441 959 1056 
Q 959 750 1161 570 
Q 1363 391 1709 391 
Q 2188 391 2477 730 
Q 2766 1069 2766 1631 
L 2766 1759 
L 2194 1759 
z
M 3341 1997 
L 3341 0 
L 2766 0 
L 2766 531 
Q 2569 213 2275 61 
Q 1981 -91 1556 -91 
Q 1019 -91 701 211 
Q 384 513 384 1019 
Q 384 1609 779 1909 
Q 1175 2209 1959 2209 
L 2766 2209 
L 2766 2266 
Q 2766 2663 2505 2880 
Q 2244 3097 1772 3097 
Q 1472 3097 1187 3025 
Q 903 2953 641 2809 
L 641 3341 
Q 956 3463 1253 3523 
Q 1550 3584 1831 3584 
Q 2591 3584 2966 3190 
Q 3341 2797 3341 1997 
z
" transform="scale(0.015625)"/>
       <path id="DejaVuSans-74" d="M 1172 4494 
L 1172 3500 
L 2356 3500 
L 2356 3053 
L 1172 3053 
L 1172 1153 
Q 1172 725 1289 603 
Q 1406 481 1766 481 
L 2356 481 
L 2356 0 
L 1766 0 
Q 1100 0 847 248 
Q 594 497 594 1153 
L 594 3053 
L 172 3053 
L 172 3500 
L 594 3500 
L 594 4494 
L 1172 4494 
z
" transform="scale(0.015625)"/>
       <path id="DejaVuSans-69" d="M 603 3500 
L 1178 3500 
L 1178 0 
L 603 0 
L 603 3500 
z
M 603 4863 
L 1178 4863 
L 1178 4134 
L 603 4134 
L 603 4863 
z
" transform="scale(0.015625)"/>
       <path id="DejaVuSans-6f" d="M 1959 3097 
Q 1497 3097 1228 2736 
Q 959 2375 959 1747 
Q 959 1119 1226 758 
Q 1494 397 1959 397 
Q 2419 397 2687 759 
Q 2956 1122 2956 1747 
Q 2956 2369 2687 2733 
Q 2419 3097 1959 3097 
z
M 1959 3584 
Q 2709 3584 3137 3096 
Q 3566 2609 3566 1747 
Q 3566 888 3137 398 
Q 2709 -91 1959 -91 
Q 1206 -91 779 398 
Q 353 888 353 1747 
Q 353 2609 779 3096 
Q 1206 3584 1959 3584 
z
" transform="scale(0.015625)"/>
       <path id="DejaVuSans-73" d="M 2834 3397 
L 2834 2853 
Q 2591 2978 2328 3040 
Q 2066 3103 1784 3103 
Q 1356 3103 1142 2972 
Q 928 2841 928 2578 
Q 928 2378 1081 2264 
Q 1234 2150 1697 2047 
L 1894 2003 
Q 2506 1872 2764 1633 
Q 3022 1394 3022 966 
Q 3022 478 2636 193 
Q 2250 -91 1575 -91 
Q 1294 -91 989 -36 
Q 684 19 347 128 
L 347 722 
Q 666 556 975 473 
Q 1284 391 1588 391 
Q 1994 391 2212 530 
Q 2431 669 2431 922 
Q 2431 1156 2273 1281 
Q 2116 1406 1581 1522 
L 1381 1569 
Q 847 1681 609 1914 
Q 372 2147 372 2553 
Q 372 3047 722 3315 
Q 1072 3584 1716 3584 
Q 2034 3584 2315 3537 
Q 2597 3491 2834 3397 
z
" transform="scale(0.015625)"/>
      </defs>
      <use xlink:href="#DejaVuSans-47"/>
      <use xlink:href="#DejaVuSans-65" x="77.490234"/>
      <use xlink:href="#DejaVuSans-6e" x="139.013672"/>
      <use xlink:href="#DejaVuSans-65" x="202.392578"/>
      <use xlink:href="#DejaVuSans-72" x="263.916016"/>
      <use xlink:href="#DejaVuSans-61" x="305.029297"/>
      <use xlink:href="#DejaVuSans-74" x="366.308594"/>
      <use xlink:href="#DejaVuSans-69" x="405.517578"/>
      <use xlink:href="#DejaVuSans-6f" x="433.300781"/>
      <use xlink:href="#DejaVuSans-6e" x="494.482422"/>
      <use xlink:href="#DejaVuSans-73" x="557.861328"/>
     </g>
    </g>
   </g>
   <g id="matplotlib.axis_2">
    <g id="ytick_1">
     <g id="line2d_15">
      <path d="M 57.6 263.414515 
L 414.72 263.414515 
" clip-path="url(#pe4b917fe86)" style="fill: none; stroke: #b0b0b0; stroke-width: 0.8; stroke-linecap: square"/>
     </g>
     <g id="line2d_16">
      <defs>
       <path id="ma3bc205b23" d="M 0 0 
L -3.5 0 
" style="stroke: #000000; stroke-width: 0.8"/>
      </defs>
      <g>
       <use xlink:href="#ma3bc205b23" x="57.6" y="263.414515" style="stroke: #000000; stroke-width: 0.8"/>
      </g>
     </g>
     <g id="text_9">
      <!-- 0 -->
      <g transform="translate(44.2375 267.213734)scale(0.1 -0.1)">
       <use xlink:href="#DejaVuSans-30"/>
      </g>
     </g>
    </g>
    <g id="ytick_2">
     <g id="line2d_17">
      <path d="M 57.6 206.968428 
L 414.72 206.968428 
" clip-path="url(#pe4b917fe86)" style="fill: none; stroke: #b0b0b0; stroke-width: 0.8; stroke-linecap: square"/>
     </g>
     <g id="line2d_18">
      <g>
       <use xlink:href="#ma3bc205b23" x="57.6" y="206.968428" style="stroke: #000000; stroke-width: 0.8"/>
      </g>
     </g>
     <g id="text_10">
      <!-- 10000 -->
      <g transform="translate(18.7875 210.767646)scale(0.1 -0.1)">
       <use xlink:href="#DejaVuSans-31"/>
       <use xlink:href="#DejaVuSans-30" x="63.623047"/>
       <use xlink:href="#DejaVuSans-30" x="127.246094"/>
       <use xlink:href="#DejaVuSans-30" x="190.869141"/>
       <use xlink:href="#DejaVuSans-30" x="254.492188"/>
      </g>
     </g>
    </g>
    <g id="ytick_3">
     <g id="line2d_19">
      <path d="M 57.6 150.52234 
L 414.72 150.52234 
" clip-path="url(#pe4b917fe86)" style="fill: none; stroke: #b0b0b0; stroke-width: 0.8; stroke-linecap: square"/>
     </g>
     <g id="line2d_20">
      <g>
       <use xlink:href="#ma3bc205b23" x="57.6" y="150.52234" style="stroke: #000000; stroke-width: 0.8"/>
      </g>
     </g>
     <g id="text_11">
      <!-- 20000 -->
      <g transform="translate(18.7875 154.321559)scale(0.1 -0.1)">
       <use xlink:href="#DejaVuSans-32"/>
       <use xlink:href="#DejaVuSans-30" x="63.623047"/>
       <use xlink:href="#DejaVuSans-30" x="127.246094"/>
       <use xlink:href="#DejaVuSans-30" x="190.869141"/>
       <use xlink:href="#DejaVuSans-30" x="254.492188"/>
      </g>
     </g>
    </g>
    <g id="ytick_4">
     <g id="line2d_21">
      <path d="M 57.6 94.076252 
L 414.72 94.076252 
" clip-path="url(#pe4b917fe86)" style="fill: none; stroke: #b0b0b0; stroke-width: 0.8; stroke-linecap: square"/>
     </g>
     <g id="line2d_22">
      <g>
       <use xlink:href="#ma3bc205b23" x="57.6" y="94.076252" style="stroke: #000000; stroke-width: 0.8"/>
      </g>
     </g>
     <g id="text_12">
      <!-- 30000 -->
      <g transform="translate(18.7875 97.875471)scale(0.1 -0.1)">
       <use xlink:href="#DejaVuSans-33"/>
       <use xlink:href="#DejaVuSans-30" x="63.623047"/>
       <use xlink:href="#DejaVuSans-30" x="127.246094"/>
       <use xlink:href="#DejaVuSans-30" x="190.869141"/>
       <use xlink:href="#DejaVuSans-30" x="254.492188"/>
      </g>
     </g>
    </g>
    <g id="text_13">
     <!-- Fitness -->
     <g transform="translate(12.707812 191.845187)rotate(-90)scale(0.1 -0.1)">
      <defs>
       <path id="DejaVuSans-46" d="M 628 4666 
L 3309 4666 
L 3309 4134 
L 1259 4134 
L 1259 2759 
L 3109 2759 
L 3109 2228 
L 1259 2228 
L 1259 0 
L 628 0 
L 628 4666 
z
" transform="scale(0.015625)"/>
      </defs>
      <use xlink:href="#DejaVuSans-46"/>
      <use xlink:href="#DejaVuSans-69" x="50.269531"/>
      <use xlink:href="#DejaVuSans-74" x="78.052734"/>
      <use xlink:href="#DejaVuSans-6e" x="117.261719"/>
      <use xlink:href="#DejaVuSans-65" x="180.640625"/>
      <use xlink:href="#DejaVuSans-73" x="242.164062"/>
      <use xlink:href="#DejaVuSans-73" x="294.263672"/>
     </g>
    </g>
   </g>
   <g id="line2d_23">
    <path d="M 73.832727 277.487767 
L 74.840971 277.347609 
L 75.849215 277.530779 
L 76.857459 277.386799 
L 77.865703 278.303562 
L 78.873947 278.026974 
L 79.882191 278.43892 
L 80.890435 277.890197 
L 82.906923 277.107017 
L 84.923411 277.813347 
L 85.931654 277.88965 
L 86.939898 277.768657 
L 87.948142 277.894121 
L 88.956386 276.751411 
L 89.96463 277.858424 
L 90.972874 277.325005 
L 91.981118 277.244323 
L 92.989362 277.02921 
L 93.997606 277.183694 
L 95.00585 276.961712 
L 96.014094 277.08414 
L 97.022338 277.386503 
L 98.030582 276.951307 
L 99.038826 277.390893 
L 100.047069 277.576866 
L 101.055313 277.589769 
L 102.063557 276.858364 
L 103.071801 277.702216 
L 104.080045 276.989745 
L 105.088289 277.682457 
L 106.096533 277.651522 
L 107.104777 276.516354 
L 108.113021 277.431908 
L 109.121265 277.454065 
L 110.129509 277.218311 
L 111.137753 277.144209 
L 112.145997 277.653053 
L 113.154241 277.737796 
L 114.162484 277.694945 
L 115.170728 276.781136 
L 117.187216 277.37354 
L 118.19546 278.77612 
L 119.203704 277.044496 
L 120.211948 276.441927 
L 121.220192 277.028469 
L 122.228436 278.608841 
L 123.23668 277.529002 
L 124.244924 278.09196 
L 126.261412 277.310119 
L 127.269656 277.659978 
L 128.277899 277.765722 
L 129.286143 277.712335 
L 130.294387 278.068402 
L 131.302631 277.825909 
L 132.310875 277.19515 
L 133.319119 277.504084 
L 134.327363 278.895571 
L 135.335607 277.245952 
L 136.343851 277.374456 
L 137.352095 277.968353 
L 138.360339 277.306091 
L 139.368583 277.027283 
L 140.376827 278.606875 
L 141.385071 278.189395 
L 142.393315 277.032509 
L 143.401558 277.383348 
L 144.409802 278.177441 
L 145.418046 277.735 
L 146.42629 278.623067 
L 147.434534 277.482135 
L 148.442778 277.80854 
L 149.451022 277.354911 
L 150.459266 276.254318 
L 151.46751 277.57523 
L 152.475754 277.332007 
L 153.483998 278.420301 
L 154.492242 278.307753 
L 155.500486 277.630519 
L 157.516973 277.670289 
L 158.525217 277.670404 
L 159.533461 277.394109 
L 160.541705 276.893516 
L 161.549949 277.06919 
L 162.558193 276.634432 
L 163.566437 276.790031 
L 164.574681 276.741467 
L 165.582925 278.257289 
L 166.591169 277.984976 
L 167.599413 277.092784 
L 168.607657 276.995394 
L 169.615901 277.546508 
L 170.624145 277.920363 
L 171.632388 276.793314 
L 172.640632 276.336572 
L 173.648876 277.043587 
L 174.65712 277.95768 
L 175.665364 277.701952 
L 176.673608 276.67517 
L 177.681852 277.683952 
L 179.69834 277.984492 
L 180.706584 277.306886 
L 181.714828 277.527565 
L 182.723072 279.3479 
L 183.731316 277.195437 
L 184.73956 278.176098 
L 185.747804 277.292957 
L 186.756047 278.165149 
L 187.764291 277.227427 
L 189.780779 277.686619 
L 192.805511 276.976934 
L 193.813755 278.718344 
L 194.821999 276.607812 
L 195.830243 276.383094 
L 196.838487 277.880658 
L 197.846731 277.41676 
L 198.854975 277.385957 
L 199.863219 277.704272 
L 200.871462 277.860016 
L 201.879706 276.474241 
L 202.88795 277.028966 
L 203.896194 278.050964 
L 204.904438 278.577509 
L 205.912682 276.763885 
L 206.920926 276.50903 
L 207.92917 278.295765 
L 208.937414 278.007052 
L 209.945658 276.906075 
L 210.953902 277.243991 
L 211.962146 278.432774 
L 212.97039 277.509616 
L 213.978634 277.335375 
L 214.986877 277.707995 
L 215.995121 278.369549 
L 217.003365 277.677083 
L 218.011609 278.017542 
L 219.019853 277.313751 
L 220.028097 278.480387 
L 221.036341 278.656733 
L 222.044585 278.159827 
L 223.052829 278.119541 
L 224.061073 277.5309 
L 225.069317 277.740724 
L 226.077561 277.658501 
L 227.085805 277.925644 
L 228.094049 278.3891 
L 229.102292 277.567904 
L 230.110536 277.350447 
L 231.11878 278.228832 
L 232.127024 277.333332 
L 233.135268 278.180693 
L 234.143512 277.373172 
L 235.151756 277.502209 
L 236.16 278.437567 
L 237.168244 277.440722 
L 238.176488 278.709233 
L 239.184732 277.051818 
L 240.192976 278.073211 
L 241.20122 278.569081 
L 242.209464 277.625447 
L 243.217708 278.054558 
L 244.225951 277.400807 
L 245.234195 278.190654 
L 246.242439 278.345217 
L 247.250683 277.108675 
L 248.258927 278.635285 
L 249.267171 277.863847 
L 250.275415 277.608842 
L 251.283659 276.686925 
L 252.291903 277.798552 
L 253.300147 277.893061 
L 254.308391 277.787148 
L 255.316635 277.820446 
L 256.324879 277.546671 
L 257.333123 277.806277 
L 258.341366 277.107888 
L 259.34961 276.871038 
L 260.357854 278.118351 
L 261.366098 277.537976 
L 262.374342 278.19448 
L 263.382586 276.879119 
L 264.39083 277.123917 
L 265.399074 276.987598 
L 266.407318 277.20806 
L 267.415562 277.270564 
L 268.423806 277.806597 
L 269.43205 276.508712 
L 270.440294 277.803724 
L 271.448538 277.874155 
L 272.456781 278.711857 
L 273.465025 276.452614 
L 274.473269 277.202604 
L 276.489757 277.679766 
L 277.498001 277.440859 
L 279.514489 277.836608 
L 281.530977 277.131296 
L 282.539221 277.647168 
L 283.547465 276.965568 
L 284.555709 276.769978 
L 285.563953 277.241539 
L 286.572196 277.540795 
L 287.58044 278.778083 
L 288.588684 277.458005 
L 289.596928 277.150282 
L 290.605172 277.231714 
L 291.613416 278.031279 
L 292.62166 277.515301 
L 293.629904 277.541458 
L 294.638148 276.804947 
L 295.646392 277.367603 
L 296.654636 277.047082 
L 298.671124 276.863594 
L 299.679368 276.435921 
L 300.687612 277.769584 
L 301.695855 277.816179 
L 302.704099 276.772376 
L 304.720587 277.55388 
L 305.728831 276.97776 
L 306.737075 277.406546 
L 307.745319 276.566988 
L 308.753563 277.682513 
L 309.761807 278.399785 
L 310.770051 277.478699 
L 311.778295 277.014847 
L 312.786539 277.137924 
L 313.794783 276.504573 
L 314.803027 277.799839 
L 315.81127 278.816324 
L 316.819514 277.493502 
L 317.827758 278.144882 
L 318.836002 277.599979 
L 319.844246 276.702024 
L 320.85249 277.998289 
L 321.860734 276.699939 
L 322.868978 277.004639 
L 323.877222 277.906575 
L 324.885466 279.064532 
L 325.89371 277.526592 
L 326.901954 277.829084 
L 327.910198 277.652403 
L 328.918442 277.027124 
L 329.926685 278.347538 
L 330.934929 277.33879 
L 331.943173 276.640349 
L 332.951417 278.101057 
L 333.959661 277.392809 
L 334.967905 278.330488 
L 336.984393 277.186024 
L 337.992637 277.466306 
L 339.000881 278.011369 
L 340.009125 276.911756 
L 341.017369 276.818444 
L 342.025613 277.709931 
L 343.033857 278.794726 
L 344.042101 278.630642 
L 345.050344 277.697967 
L 346.058588 277.72277 
L 347.066832 277.414124 
L 348.075076 277.296124 
L 349.08332 276.845526 
L 351.099808 277.291074 
L 352.108052 277.716258 
L 353.116296 277.923004 
L 355.132784 277.198038 
L 356.141028 275.56539 
L 358.157516 277.478539 
L 359.165759 276.02694 
L 360.174003 277.205141 
L 361.182247 276.167602 
L 362.190491 277.146675 
L 363.198735 276.665328 
L 364.206979 277.134387 
L 365.215223 276.095982 
L 367.231711 277.040965 
L 368.239955 276.345704 
L 369.248199 277.278441 
L 370.256443 276.992204 
L 371.264687 277.026212 
L 373.281174 277.217742 
L 374.289418 276.739241 
L 375.297662 276.655631 
L 376.305906 277.638951 
L 377.31415 277.192569 
L 378.322394 276.996699 
L 379.330638 276.606082 
L 380.338882 277.202067 
L 381.347126 277.598066 
L 382.35537 277.551972 
L 383.363614 276.599194 
L 384.371858 276.952922 
L 385.380102 277.041384 
L 386.388346 276.145906 
L 387.396589 277.580648 
L 388.404833 276.679062 
L 390.421321 277.405996 
L 391.429565 276.38577 
L 392.437809 277.477054 
L 393.446053 277.577761 
L 394.454297 276.351235 
L 395.462541 278.165369 
L 396.470785 277.551606 
L 397.479029 276.338646 
L 398.487273 276.784709 
L 398.487273 276.784709 
" clip-path="url(#pe4b917fe86)" style="fill: none; stroke: #0000ff; stroke-width: 1.5; stroke-linecap: square"/>
   </g>
   <g id="line2d_24">
    <path d="M 73.832727 277.684174 
L 74.840971 279.176085 
L 75.849215 278.26467 
L 76.857459 279.385767 
L 77.865703 286.452709 
L 78.873947 286.581558 
L 79.882191 288.610178 
L 80.890435 283.899883 
L 81.898679 283.648313 
L 82.906923 281.047718 
L 83.915167 285.88621 
L 84.923411 289.067055 
L 85.931654 286.882474 
L 86.939898 286.979055 
L 88.956386 283.944503 
L 89.96463 286.733596 
L 90.972874 287.088474 
L 91.981118 284.797444 
L 92.989362 280.483417 
L 93.997606 285.753259 
L 95.00585 284.527474 
L 96.014094 286.056083 
L 98.030582 286.850664 
L 99.038826 284.423147 
L 100.047069 284.195749 
L 101.055313 285.506979 
L 102.063557 283.267271 
L 103.071801 290.156823 
L 104.080045 285.382884 
L 105.088289 285.427604 
L 106.096533 291.079992 
L 107.104777 286.375027 
L 108.113021 288.674702 
L 109.121265 285.679205 
L 110.129509 285.207242 
L 111.137753 286.158316 
L 112.145997 285.809832 
L 113.154241 285.189964 
L 114.162484 287.938744 
L 116.178972 282.884686 
L 117.187216 284.244529 
L 118.19546 289.059204 
L 119.203704 286.260075 
L 120.211948 284.29776 
L 121.220192 282.67652 
L 122.228436 289.833962 
L 123.23668 285.910901 
L 124.244924 288.925905 
L 125.253168 286.802287 
L 126.261412 283.120118 
L 127.269656 286.862887 
L 128.277899 284.132385 
L 129.286143 286.756458 
L 130.294387 288.785892 
L 131.302631 286.697387 
L 132.310875 284.890671 
L 133.319119 283.860483 
L 134.327363 291.408068 
L 135.335607 284.42792 
L 136.343851 285.753786 
L 137.352095 291.209419 
L 138.360339 284.97661 
L 139.368583 283.645646 
L 140.376827 288.63106 
L 141.385071 287.850855 
L 142.393315 282.958481 
L 143.401558 284.499965 
L 144.409802 285.661122 
L 145.418046 285.137046 
L 146.42629 290.945771 
L 147.434534 285.831182 
L 148.442778 286.62643 
L 149.451022 288.203423 
L 150.459266 285.291828 
L 151.46751 288.032002 
L 152.475754 282.275625 
L 153.483998 288.703921 
L 154.492242 289.914237 
L 156.50873 286.891379 
L 157.516973 286.726879 
L 158.525217 289.040586 
L 159.533461 286.67591 
L 160.541705 284.73708 
L 161.549949 286.486119 
L 162.558193 286.933876 
L 163.566437 285.108701 
L 164.574681 285.244369 
L 165.582925 288.813481 
L 166.591169 290.379526 
L 167.599413 287.932239 
L 168.607657 287.512266 
L 169.615901 287.908929 
L 170.624145 289.184802 
L 171.632388 285.265322 
L 172.640632 283.796927 
L 173.648876 286.711962 
L 174.65712 287.799154 
L 175.665364 287.068172 
L 176.673608 283.673255 
L 177.681852 286.898564 
L 178.690096 285.699868 
L 179.69834 286.233773 
L 180.706584 283.713841 
L 181.714828 288.425022 
L 182.723072 291.945518 
L 183.731316 286.49214 
L 184.73956 289.035382 
L 185.747804 288.181768 
L 186.756047 288.755942 
L 187.764291 286.072002 
L 188.772535 288.842364 
L 189.780779 286.74045 
L 190.789023 286.994105 
L 191.797267 283.350831 
L 192.805511 283.597579 
L 193.813755 290.613721 
L 194.821999 281.359701 
L 195.830243 282.191872 
L 196.838487 287.687821 
L 197.846731 284.041333 
L 198.854975 288.063856 
L 199.863219 287.874157 
L 200.871462 287.84121 
L 201.879706 286.538981 
L 202.88795 287.684573 
L 203.896194 288.050868 
L 204.904438 289.711496 
L 205.912682 283.574126 
L 206.920926 285.145072 
L 207.92917 289.888677 
L 208.937414 287.69173 
L 209.945658 286.29569 
L 210.953902 286.883905 
L 211.962146 290.0548 
L 212.97039 285.526335 
L 213.978634 288.204503 
L 214.986877 288.296635 
L 215.995121 288.897966 
L 217.003365 287.086557 
L 218.011609 289.106771 
L 219.019853 284.649614 
L 220.028097 288.635728 
L 221.036341 288.912311 
L 222.044585 289.715241 
L 223.052829 286.547942 
L 224.061073 285.877931 
L 225.069317 286.823358 
L 226.077561 287.071185 
L 227.085805 287.880181 
L 228.094049 289.661983 
L 229.102292 285.894063 
L 230.110536 287.342913 
L 231.11878 287.48202 
L 232.127024 284.143375 
L 233.135268 286.660316 
L 234.143512 292.371908 
L 235.151756 287.301261 
L 236.16 289.69781 
L 237.168244 286.062537 
L 238.176488 288.638939 
L 239.184732 283.081806 
L 240.192976 287.652698 
L 241.20122 290.370636 
L 242.209464 286.88251 
L 243.217708 289.003935 
L 244.225951 288.201404 
L 245.234195 287.878132 
L 246.242439 290.041013 
L 247.250683 284.745768 
L 248.258927 289.579948 
L 249.267171 286.894353 
L 250.275415 284.53581 
L 251.283659 285.070486 
L 252.291903 288.369394 
L 253.300147 287.025874 
L 255.316635 286.645816 
L 256.324879 287.184817 
L 257.333123 286.412699 
L 258.341366 284.834029 
L 259.34961 281.834855 
L 260.357854 287.839981 
L 261.366098 287.967955 
L 262.374342 287.585866 
L 263.382586 286.234616 
L 264.39083 287.925898 
L 265.399074 286.841979 
L 266.407318 282.539926 
L 267.415562 285.681202 
L 268.423806 288.402203 
L 269.43205 286.306471 
L 270.440294 288.395133 
L 271.448538 288.97577 
L 272.456781 290.460744 
L 273.465025 283.477196 
L 274.473269 284.669139 
L 275.481513 287.080414 
L 276.489757 288.341273 
L 277.498001 285.917718 
L 278.506245 290.935967 
L 279.514489 288.260761 
L 280.522733 286.852555 
L 281.530977 283.001669 
L 282.539221 285.789174 
L 283.547465 286.864061 
L 285.563953 282.850343 
L 286.572196 285.742303 
L 287.58044 292.237058 
L 288.588684 286.237335 
L 289.596928 284.306139 
L 291.613416 287.712108 
L 292.62166 286.866011 
L 293.629904 286.297654 
L 294.638148 281.210606 
L 295.646392 284.619624 
L 296.654636 286.000757 
L 297.66288 285.002257 
L 298.671124 289.871626 
L 299.679368 285.573829 
L 300.687612 285.496781 
L 301.695855 285.252542 
L 302.704099 283.218441 
L 304.720587 284.114252 
L 305.728831 283.639173 
L 306.737075 287.683088 
L 307.745319 285.049956 
L 308.753563 286.890586 
L 309.761807 290.823254 
L 310.770051 288.361333 
L 311.778295 283.811624 
L 312.786539 284.749396 
L 313.794783 282.315487 
L 314.803027 288.005868 
L 315.81127 288.968184 
L 316.819514 288.271419 
L 317.827758 287.921311 
L 318.836002 285.69159 
L 319.844246 285.81709 
L 320.85249 288.948594 
L 321.860734 284.963604 
L 322.868978 286.20101 
L 323.877222 288.74459 
L 324.885466 291.83332 
L 325.89371 288.13763 
L 326.901954 287.355588 
L 327.910198 289.322703 
L 328.918442 285.805106 
L 329.926685 289.10014 
L 330.934929 285.774232 
L 331.943173 287.599918 
L 332.951417 291.490722 
L 333.959661 289.254959 
L 334.967905 292.112832 
L 335.976149 287.512261 
L 336.984393 286.156563 
L 337.992637 289.593742 
L 339.000881 288.341869 
L 340.009125 288.964596 
L 341.017369 287.097589 
L 342.025613 293.203915 
L 343.033857 292.559218 
L 344.042101 293.222783 
L 345.050344 289.387692 
L 346.058588 290.439767 
L 347.066832 287.511349 
L 348.075076 287.61725 
L 349.08332 285.196686 
L 350.091564 284.600903 
L 351.099808 286.956329 
L 352.108052 288.020624 
L 353.116296 288.101683 
L 354.12454 288.346422 
L 355.132784 287.406109 
L 356.141028 285.157638 
L 357.149272 285.662537 
L 358.157516 290.22642 
L 359.165759 285.825573 
L 360.174003 287.246418 
L 361.182247 285.632419 
L 362.190491 287.165899 
L 363.198735 285.157835 
L 364.206979 284.88999 
L 365.215223 285.631175 
L 366.223467 286.888809 
L 367.231711 286.435365 
L 368.239955 282.117378 
L 369.248199 286.530457 
L 370.256443 285.098249 
L 371.264687 286.261264 
L 372.272931 289.353165 
L 373.281174 288.437621 
L 374.289418 288.109387 
L 375.297662 280.989042 
L 376.305906 292.074276 
L 377.31415 287.475004 
L 378.322394 288.314689 
L 379.330638 287.899899 
L 380.338882 287.685935 
L 381.347126 295.488 
L 382.35537 288.32642 
L 383.363614 289.155965 
L 384.371858 286.539489 
L 385.380102 288.118554 
L 386.388346 285.51671 
L 387.396589 290.259212 
L 389.413077 287.497345 
L 390.421321 288.954294 
L 391.429565 282.194793 
L 392.437809 287.286144 
L 393.446053 289.962995 
L 394.454297 286.482935 
L 395.462541 288.784493 
L 396.470785 285.891417 
L 397.479029 285.417554 
L 398.487273 287.07033 
L 398.487273 287.07033 
" clip-path="url(#pe4b917fe86)" style="fill: none; stroke-dasharray: 9.6,2.4,1.5,2.4; stroke-dashoffset: 0; stroke: #008000; stroke-width: 1.5"/>
   </g>
   <g id="line2d_25">
    <path d="M 73.832727 277.29136 
L 74.840971 275.519134 
L 75.849215 276.796889 
L 76.857459 275.387831 
L 77.865703 270.154415 
L 78.873947 269.472389 
L 79.882191 268.267662 
L 80.890435 271.880512 
L 81.898679 271.414151 
L 82.906923 273.166315 
L 83.915167 269.133312 
L 84.923411 266.55964 
L 85.931654 268.896826 
L 86.939898 268.558259 
L 87.948142 270.376094 
L 88.956386 269.558319 
L 89.96463 268.983252 
L 90.972874 267.561535 
L 91.981118 269.691202 
L 92.989362 273.575003 
L 93.997606 268.614129 
L 95.00585 269.395949 
L 96.014094 268.112197 
L 97.022338 268.327625 
L 98.030582 267.05195 
L 99.038826 270.358639 
L 100.047069 270.957983 
L 101.055313 269.672559 
L 102.063557 270.449456 
L 103.071801 265.24761 
L 104.080045 268.596606 
L 105.088289 269.937309 
L 106.096533 264.223053 
L 107.104777 266.657681 
L 108.113021 266.189113 
L 109.121265 269.228926 
L 110.129509 269.229381 
L 111.137753 268.130103 
L 112.145997 269.496275 
L 113.154241 270.285627 
L 114.162484 267.451146 
L 115.170728 268.058101 
L 116.178972 271.161123 
L 117.187216 270.50255 
L 118.19546 268.493036 
L 119.203704 267.828917 
L 120.211948 268.586094 
L 121.220192 271.380418 
L 122.228436 267.383721 
L 123.23668 269.147102 
L 124.244924 267.258016 
L 125.253168 268.645596 
L 126.261412 271.50012 
L 127.269656 268.457069 
L 128.277899 271.39906 
L 129.286143 268.668212 
L 130.294387 267.350911 
L 131.302631 268.954431 
L 132.310875 269.499629 
L 133.319119 271.147685 
L 134.327363 266.383074 
L 135.335607 270.063983 
L 136.343851 268.995126 
L 137.352095 264.727286 
L 138.360339 269.635572 
L 139.368583 270.40892 
L 140.376827 268.58269 
L 141.385071 268.527934 
L 142.393315 271.106537 
L 143.401558 270.266732 
L 144.409802 270.693761 
L 145.418046 270.332954 
L 146.42629 266.300364 
L 147.434534 269.133088 
L 148.442778 268.990649 
L 149.451022 266.506399 
L 150.459266 267.216808 
L 151.46751 267.118459 
L 152.475754 272.388389 
L 153.483998 268.136682 
L 154.492242 266.701269 
L 155.500486 266.861957 
L 156.50873 268.494944 
L 157.516973 268.613698 
L 158.525217 266.300222 
L 159.533461 268.112307 
L 160.541705 269.049952 
L 162.558193 266.334988 
L 163.566437 268.471362 
L 164.574681 268.238564 
L 165.582925 267.701097 
L 166.591169 265.590426 
L 167.599413 266.253328 
L 168.607657 266.478522 
L 169.615901 267.184087 
L 170.624145 266.655925 
L 171.632388 268.321306 
L 172.640632 268.876217 
L 173.648876 267.375213 
L 174.65712 268.116207 
L 175.665364 268.335731 
L 176.673608 269.677084 
L 177.681852 268.469339 
L 178.690096 269.932639 
L 179.69834 269.735211 
L 180.706584 270.899932 
L 181.714828 266.630108 
L 182.723072 266.750282 
L 183.731316 267.898735 
L 184.73956 267.316814 
L 185.747804 266.404145 
L 186.756047 267.574357 
L 187.764291 268.382853 
L 188.772535 266.000058 
L 189.780779 268.632788 
L 190.789023 267.854843 
L 191.797267 270.878778 
L 192.805511 270.35629 
L 193.813755 266.822966 
L 194.821999 271.855924 
L 195.830243 270.574315 
L 196.838487 268.073494 
L 197.846731 270.792187 
L 198.854975 266.708058 
L 199.863219 267.534388 
L 200.871462 267.878821 
L 201.879706 266.409501 
L 202.88795 266.373359 
L 203.896194 268.05106 
L 204.904438 267.443521 
L 205.912682 269.953645 
L 206.920926 267.872988 
L 207.92917 266.702854 
L 208.937414 268.322374 
L 209.945658 267.516459 
L 210.953902 267.604077 
L 211.962146 266.810747 
L 212.97039 269.492897 
L 213.978634 266.466248 
L 215.995121 267.841131 
L 217.003365 268.267608 
L 218.011609 266.928313 
L 219.019853 269.977888 
L 220.028097 268.325045 
L 221.036341 268.401154 
L 222.044585 266.604413 
L 223.052829 269.69114 
L 226.077561 268.245818 
L 227.085805 267.971107 
L 228.094049 267.116217 
L 229.102292 269.241744 
L 230.110536 267.35798 
L 232.127024 270.523289 
L 233.135268 269.701069 
L 234.143512 262.374436 
L 235.151756 267.703157 
L 236.16 267.177324 
L 237.168244 268.818907 
L 238.176488 268.779526 
L 239.184732 271.02183 
L 240.192976 268.493724 
L 241.20122 266.767525 
L 242.209464 268.368384 
L 243.217708 267.10518 
L 244.225951 266.60021 
L 245.234195 268.503176 
L 246.242439 266.649421 
L 247.250683 269.471582 
L 248.258927 267.690623 
L 249.267171 268.83334 
L 250.275415 270.681874 
L 251.283659 268.303364 
L 252.291903 267.22771 
L 253.300147 268.760249 
L 254.308391 268.773969 
L 255.316635 268.995077 
L 256.324879 267.908525 
L 257.333123 269.199855 
L 258.341366 269.381746 
L 259.34961 271.907221 
L 260.357854 268.39672 
L 261.366098 267.107997 
L 262.374342 268.803093 
L 264.39083 266.321935 
L 265.399074 267.133216 
L 266.407318 271.876194 
L 267.415562 268.859926 
L 268.423806 267.210992 
L 269.43205 266.710953 
L 270.440294 267.212316 
L 271.448538 266.77254 
L 272.456781 266.96297 
L 273.465025 269.428032 
L 274.473269 269.736069 
L 275.481513 267.905341 
L 276.489757 267.018259 
L 277.498001 268.964 
L 278.506245 264.324515 
L 279.514489 267.412454 
L 280.522733 268.161209 
L 281.530977 271.260923 
L 282.539221 269.505161 
L 283.547465 267.067076 
L 284.555709 268.745674 
L 285.563953 271.632735 
L 286.572196 269.339288 
L 287.58044 265.319108 
L 288.588684 268.678675 
L 289.596928 269.994426 
L 290.605172 268.404711 
L 291.613416 268.35045 
L 292.62166 268.164591 
L 293.629904 268.785263 
L 294.638148 272.399288 
L 296.654636 268.093408 
L 297.66288 268.825029 
L 298.671124 263.855562 
L 299.679368 267.298014 
L 300.687612 270.042388 
L 301.695855 270.379816 
L 302.704099 270.326312 
L 304.720587 270.993508 
L 305.728831 270.316347 
L 306.737075 267.130004 
L 307.745319 268.084021 
L 308.753563 268.47444 
L 309.761807 265.976316 
L 310.770051 266.596065 
L 311.778295 270.218069 
L 312.786539 269.526451 
L 313.794783 270.693659 
L 314.803027 267.593811 
L 315.81127 268.664464 
L 316.819514 266.715585 
L 317.827758 268.368452 
L 318.836002 269.508368 
L 319.844246 267.586957 
L 320.85249 267.047985 
L 321.860734 268.436273 
L 323.877222 267.068559 
L 324.885466 266.295744 
L 325.89371 266.915554 
L 326.901954 268.302581 
L 327.910198 265.982103 
L 328.918442 268.249141 
L 329.926685 267.594937 
L 330.934929 268.903349 
L 331.943173 265.68078 
L 332.951417 264.711391 
L 333.959661 265.530659 
L 334.967905 264.548144 
L 335.976149 267.897707 
L 336.984393 268.215485 
L 337.992637 265.338871 
L 339.000881 267.680869 
L 340.009125 264.858916 
L 341.017369 266.539299 
L 342.025613 262.215947 
L 343.033857 265.030233 
L 344.042101 264.0385 
L 345.050344 266.008243 
L 346.058588 265.005773 
L 347.066832 267.3169 
L 348.075076 266.974997 
L 349.08332 268.494366 
L 350.091564 269.541392 
L 351.099808 267.62582 
L 352.108052 267.411892 
L 353.116296 267.744325 
L 354.12454 266.761884 
L 355.132784 266.989968 
L 356.141028 265.973143 
L 357.149272 267.433703 
L 358.157516 264.730658 
L 359.165759 266.228306 
L 360.174003 267.163865 
L 361.182247 266.702784 
L 362.190491 267.127452 
L 363.198735 268.172821 
L 364.206979 269.378784 
L 365.215223 266.560788 
L 366.223467 266.336813 
L 367.231711 267.646565 
L 368.239955 270.57403 
L 369.248199 268.026425 
L 370.256443 268.88616 
L 371.264687 267.79116 
L 372.272931 264.991838 
L 373.281174 265.997864 
L 374.289418 265.369095 
L 375.297662 272.32222 
L 376.305906 263.203625 
L 377.31415 266.910134 
L 378.322394 265.67871 
L 379.330638 265.312265 
L 380.338882 266.718198 
L 381.347126 259.708131 
L 382.35537 266.777525 
L 383.363614 264.042424 
L 384.371858 267.366355 
L 385.380102 265.964213 
L 386.388346 266.775102 
L 387.396589 264.902084 
L 388.404833 264.465118 
L 389.413077 266.478248 
L 390.421321 265.857699 
L 391.429565 270.576747 
L 392.437809 267.667963 
L 393.446053 265.192528 
L 394.454297 266.219535 
L 395.462541 267.546244 
L 396.470785 269.211795 
L 397.479029 267.259737 
L 398.487273 266.499089 
L 398.487273 266.499089 
" clip-path="url(#pe4b917fe86)" style="fill: none; stroke-dasharray: 9.6,2.4,1.5,2.4; stroke-dashoffset: 0; stroke: #008000; stroke-width: 1.5"/>
   </g>
   <g id="line2d_26">
    <path d="M 73.832727 276.437175 
L 74.840971 246.366921 
L 75.849215 273.003326 
L 76.857459 245.903143 
L 77.865703 244.321308 
L 78.873947 244.74314 
L 79.882191 241.523217 
L 80.890435 243.591676 
L 81.898679 243.727775 
L 82.906923 244.290217 
L 83.915167 241.901522 
L 84.923411 243.301707 
L 85.931654 212.763201 
L 86.939898 243.739232 
L 87.948142 242.286923 
L 88.956386 212.509714 
L 89.96463 241.118896 
L 90.972874 242.093975 
L 91.981118 212.53704 
L 92.989362 243.132338 
L 93.997606 241.602139 
L 95.00585 243.813651 
L 96.014094 243.27958 
L 97.022338 212.58258 
L 98.030582 243.216888 
L 99.038826 238.770192 
L 100.047069 243.370963 
L 101.055313 243.473152 
L 102.063557 242.895236 
L 103.071801 215.608976 
L 104.080045 241.379496 
L 105.088289 243.52809 
L 106.096533 216.215691 
L 107.104777 242.371129 
L 108.113021 241.124602 
L 109.121265 241.723072 
L 110.129509 211.430736 
L 111.137753 211.969042 
L 112.145997 242.988751 
L 113.154241 244.389971 
L 114.162484 242.184666 
L 115.170728 242.48796 
L 116.178972 243.031216 
L 117.187216 243.005936 
L 118.19546 243.27769 
L 119.203704 241.760275 
L 120.211948 242.521194 
L 121.220192 242.726267 
L 122.228436 241.513909 
L 123.23668 243.374848 
L 124.244924 243.231706 
L 125.253168 242.035893 
L 126.261412 242.509558 
L 127.269656 243.806366 
L 128.277899 242.893126 
L 129.286143 243.575544 
L 130.294387 242.554161 
L 131.302631 244.062145 
L 132.310875 211.131306 
L 133.319119 244.014863 
L 134.327363 243.446109 
L 135.335607 243.150392 
L 136.343851 243.294699 
L 137.352095 242.80698 
L 138.360339 210.438203 
L 139.368583 209.75629 
L 140.376827 243.109006 
L 141.385071 243.475281 
L 142.393315 241.661239 
L 143.401558 243.734694 
L 144.409802 244.967578 
L 145.418046 244.044798 
L 146.42629 243.594349 
L 147.434534 244.257507 
L 148.442778 243.829447 
L 149.451022 242.210054 
L 150.459266 242.631223 
L 151.46751 242.654773 
L 152.475754 243.336414 
L 153.483998 242.346435 
L 154.492242 213.542185 
L 155.500486 241.592895 
L 156.50873 242.894828 
L 157.516973 243.41466 
L 158.525217 241.68233 
L 159.533461 212.529519 
L 160.541705 243.035188 
L 161.549949 213.181953 
L 162.558193 209.746189 
L 163.566437 241.328607 
L 164.574681 241.505275 
L 165.582925 242.025423 
L 166.591169 242.235416 
L 167.599413 211.346023 
L 168.607657 242.769781 
L 169.615901 243.723639 
L 170.624145 212.500499 
L 171.632388 215.26215 
L 172.640632 239.49842 
L 173.648876 211.207108 
L 174.65712 243.791532 
L 175.665364 242.450532 
L 176.673608 241.816354 
L 177.681852 243.939999 
L 178.690096 242.08335 
L 179.69834 244.22426 
L 180.706584 243.206428 
L 181.714828 215.143301 
L 182.723072 245.171226 
L 183.731316 213.442264 
L 184.73956 243.933612 
L 185.747804 212.993084 
L 186.756047 243.270449 
L 187.764291 242.313942 
L 188.772535 211.064239 
L 189.780779 243.534645 
L 190.789023 243.300563 
L 191.797267 212.126776 
L 192.805511 242.747401 
L 193.813755 242.070484 
L 194.821999 243.826383 
L 195.830243 242.749652 
L 196.838487 244.004254 
L 197.846731 242.05543 
L 198.854975 243.1432 
L 199.863219 242.755174 
L 200.871462 242.787029 
L 201.879706 173.469292 
L 202.88795 242.819768 
L 203.896194 242.012124 
L 204.904438 243.057352 
L 205.912682 242.010848 
L 206.920926 242.015402 
L 207.92917 243.672858 
L 208.937414 244.514432 
L 209.945658 211.71575 
L 210.953902 244.084299 
L 211.962146 243.909581 
L 212.97039 241.986115 
L 213.978634 242.006452 
L 214.986877 241.2719 
L 215.995121 241.760854 
L 217.003365 243.857983 
L 218.011609 211.872914 
L 219.019853 244.115555 
L 220.028097 243.643916 
L 221.036341 242.715988 
L 222.044585 243.934333 
L 223.052829 244.512111 
L 224.061073 243.171781 
L 225.069317 243.2842 
L 226.077561 240.647049 
L 227.085805 243.207275 
L 228.094049 242.635631 
L 229.102292 243.892365 
L 230.110536 241.474913 
L 231.11878 244.584414 
L 232.127024 243.677114 
L 233.135268 243.864341 
L 234.143512 68.837784 
L 235.151756 243.230452 
L 236.16 242.31084 
L 237.168244 243.420718 
L 238.176488 243.15821 
L 239.184732 236.764874 
L 240.192976 212.446831 
L 241.20122 211.466304 
L 242.209464 243.153232 
L 243.217708 240.085119 
L 244.225951 180.398058 
L 245.234195 242.621716 
L 246.242439 243.660808 
L 247.250683 242.528271 
L 248.258927 242.161215 
L 249.267171 243.20923 
L 250.275415 242.502214 
L 251.283659 211.370828 
L 252.291903 213.01743 
L 253.300147 238.576258 
L 254.308391 243.711328 
L 255.316635 243.869744 
L 256.324879 241.908859 
L 257.333123 242.226532 
L 258.341366 243.209165 
L 259.34961 242.045762 
L 260.357854 243.60868 
L 261.366098 243.389924 
L 262.374342 244.909745 
L 263.382586 240.569857 
L 264.39083 150.233652 
L 265.399074 211.246275 
L 266.407318 243.574727 
L 267.415562 243.322617 
L 268.423806 211.978739 
L 269.43205 243.670611 
L 270.440294 211.544271 
L 271.448538 242.588494 
L 272.456781 244.086531 
L 273.465025 243.288416 
L 274.473269 241.072435 
L 275.481513 240.754881 
L 276.489757 243.09896 
L 277.498001 243.432896 
L 278.506245 180.765724 
L 280.522733 241.740485 
L 281.530977 241.709898 
L 282.539221 243.942525 
L 283.547465 210.196117 
L 284.555709 243.688714 
L 285.563953 242.182421 
L 286.572196 243.546453 
L 287.58044 238.31755 
L 288.588684 214.060373 
L 289.596928 243.558838 
L 290.605172 241.945876 
L 292.62166 242.368852 
L 293.629904 243.909189 
L 294.638148 244.330209 
L 295.646392 213.208269 
L 296.654636 242.583154 
L 297.66288 243.759904 
L 298.671124 211.892135 
L 299.679368 211.964928 
L 300.687612 243.793695 
L 301.695855 242.987215 
L 302.704099 243.4135 
L 303.712343 242.000223 
L 304.720587 243.423056 
L 305.728831 237.995252 
L 306.737075 215.322188 
L 307.745319 183.37048 
L 308.753563 244.574046 
L 309.761807 242.912799 
L 310.770051 242.175907 
L 311.778295 242.73021 
L 312.786539 237.857175 
L 313.794783 242.586695 
L 315.81127 245.229539 
L 316.819514 241.737302 
L 317.827758 242.155133 
L 318.836002 243.761567 
L 319.844246 210.674572 
L 320.85249 242.040377 
L 321.860734 240.941252 
L 322.868978 243.57887 
L 323.877222 211.637979 
L 324.885466 244.465118 
L 325.89371 241.437188 
L 326.901954 244.201001 
L 327.910198 213.446695 
L 328.918442 212.679889 
L 329.926685 244.0608 
L 330.934929 241.913659 
L 331.943173 179.657819 
L 332.951417 210.224998 
L 333.959661 213.680855 
L 334.967905 212.273206 
L 335.976149 210.566559 
L 336.984393 242.829111 
L 337.992637 243.134054 
L 339.000881 237.38489 
L 340.009125 211.821172 
L 341.017369 241.453677 
L 342.025613 209.555465 
L 343.033857 244.077078 
L 344.042101 215.99106 
L 345.050344 208.802748 
L 346.058588 241.628714 
L 347.066832 240.734516 
L 348.075076 211.766764 
L 349.08332 242.314529 
L 350.091564 241.364055 
L 351.099808 243.121858 
L 352.108052 242.538077 
L 353.116296 241.479425 
L 354.12454 241.057127 
L 355.132784 210.261381 
L 356.141028 210.010355 
L 357.149272 210.396699 
L 358.157516 239.58589 
L 359.165759 211.549586 
L 360.174003 243.456956 
L 361.182247 212.932176 
L 362.190491 177.316558 
L 363.198735 241.679928 
L 364.206979 242.493222 
L 365.215223 214.852141 
L 366.223467 211.638922 
L 367.231711 212.837611 
L 368.239955 243.132374 
L 369.248199 213.12274 
L 370.256443 210.94122 
L 371.264687 242.98442 
L 372.272931 212.416212 
L 373.281174 212.526486 
L 374.289418 208.992093 
L 375.297662 244.565569 
L 376.305906 211.520942 
L 377.31415 213.730254 
L 378.322394 210.545299 
L 379.330638 211.900427 
L 380.338882 209.746539 
L 381.347126 53.568 
L 382.35537 243.22077 
L 383.363614 180.705029 
L 384.371858 214.467015 
L 385.380102 243.537597 
L 387.396589 211.25305 
L 388.404833 212.646637 
L 389.413077 211.291706 
L 390.421321 208.612169 
L 391.429565 242.665418 
L 392.437809 242.285159 
L 393.446053 242.952696 
L 394.454297 237.800291 
L 395.462541 242.879572 
L 396.470785 242.506099 
L 397.479029 241.492544 
L 398.487273 212.804156 
L 398.487273 212.804156 
" clip-path="url(#pe4b917fe86)" style="fill: none; stroke: #ff0000; stroke-width: 1.5; stroke-linecap: square"/>
   </g>
   <g id="patch_3">
    <path d="M 57.6 307.584 
L 57.6 41.472 
" style="fill: none; stroke: #000000; stroke-width: 0.8; stroke-linejoin: miter; stroke-linecap: square"/>
   </g>
   <g id="patch_4">
    <path d="M 414.72 307.584 
L 414.72 41.472 
" style="fill: none; stroke: #000000; stroke-width: 0.8; stroke-linejoin: miter; stroke-linecap: square"/>
   </g>
   <g id="patch_5">
    <path d="M 57.6 307.584 
L 414.72 307.584 
" style="fill: none; stroke: #000000; stroke-width: 0.8; stroke-linejoin: miter; stroke-linecap: square"/>
   </g>
   <g id="patch_6">
    <path d="M 57.6 41.472 
L 414.72 41.472 
" style="fill: none; stroke: #000000; stroke-width: 0.8; stroke-linejoin: miter; stroke-linecap: square"/>
   </g>
   <g id="text_14">
    <!-- Population's average and best fitness -->
    <g transform="translate(123.529687 35.472)scale(0.12 -0.12)">
     <defs>
      <path id="DejaVuSans-50" d="M 1259 4147 
L 1259 2394 
L 2053 2394 
Q 2494 2394 2734 2622 
Q 2975 2850 2975 3272 
Q 2975 3691 2734 3919 
Q 2494 4147 2053 4147 
L 1259 4147 
z
M 628 4666 
L 2053 4666 
Q 2838 4666 3239 4311 
Q 3641 3956 3641 3272 
Q 3641 2581 3239 2228 
Q 2838 1875 2053 1875 
L 1259 1875 
L 1259 0 
L 628 0 
L 628 4666 
z
" transform="scale(0.015625)"/>
      <path id="DejaVuSans-70" d="M 1159 525 
L 1159 -1331 
L 581 -1331 
L 581 3500 
L 1159 3500 
L 1159 2969 
Q 1341 3281 1617 3432 
Q 1894 3584 2278 3584 
Q 2916 3584 3314 3078 
Q 3713 2572 3713 1747 
Q 3713 922 3314 415 
Q 2916 -91 2278 -91 
Q 1894 -91 1617 61 
Q 1341 213 1159 525 
z
M 3116 1747 
Q 3116 2381 2855 2742 
Q 2594 3103 2138 3103 
Q 1681 3103 1420 2742 
Q 1159 2381 1159 1747 
Q 1159 1113 1420 752 
Q 1681 391 2138 391 
Q 2594 391 2855 752 
Q 3116 1113 3116 1747 
z
" transform="scale(0.015625)"/>
      <path id="DejaVuSans-75" d="M 544 1381 
L 544 3500 
L 1119 3500 
L 1119 1403 
Q 1119 906 1312 657 
Q 1506 409 1894 409 
Q 2359 409 2629 706 
Q 2900 1003 2900 1516 
L 2900 3500 
L 3475 3500 
L 3475 0 
L 2900 0 
L 2900 538 
Q 2691 219 2414 64 
Q 2138 -91 1772 -91 
Q 1169 -91 856 284 
Q 544 659 544 1381 
z
M 1991 3584 
L 1991 3584 
z
" transform="scale(0.015625)"/>
      <path id="DejaVuSans-6c" d="M 603 4863 
L 1178 4863 
L 1178 0 
L 603 0 
L 603 4863 
z
" transform="scale(0.015625)"/>
      <path id="DejaVuSans-27" d="M 1147 4666 
L 1147 2931 
L 616 2931 
L 616 4666 
L 1147 4666 
z
" transform="scale(0.015625)"/>
      <path id="DejaVuSans-20" transform="scale(0.015625)"/>
      <path id="DejaVuSans-76" d="M 191 3500 
L 800 3500 
L 1894 563 
L 2988 3500 
L 3597 3500 
L 2284 0 
L 1503 0 
L 191 3500 
z
" transform="scale(0.015625)"/>
      <path id="DejaVuSans-67" d="M 2906 1791 
Q 2906 2416 2648 2759 
Q 2391 3103 1925 3103 
Q 1463 3103 1205 2759 
Q 947 2416 947 1791 
Q 947 1169 1205 825 
Q 1463 481 1925 481 
Q 2391 481 2648 825 
Q 2906 1169 2906 1791 
z
M 3481 434 
Q 3481 -459 3084 -895 
Q 2688 -1331 1869 -1331 
Q 1566 -1331 1297 -1286 
Q 1028 -1241 775 -1147 
L 775 -588 
Q 1028 -725 1275 -790 
Q 1522 -856 1778 -856 
Q 2344 -856 2625 -561 
Q 2906 -266 2906 331 
L 2906 616 
Q 2728 306 2450 153 
Q 2172 0 1784 0 
Q 1141 0 747 490 
Q 353 981 353 1791 
Q 353 2603 747 3093 
Q 1141 3584 1784 3584 
Q 2172 3584 2450 3431 
Q 2728 3278 2906 2969 
L 2906 3500 
L 3481 3500 
L 3481 434 
z
" transform="scale(0.015625)"/>
      <path id="DejaVuSans-64" d="M 2906 2969 
L 2906 4863 
L 3481 4863 
L 3481 0 
L 2906 0 
L 2906 525 
Q 2725 213 2448 61 
Q 2172 -91 1784 -91 
Q 1150 -91 751 415 
Q 353 922 353 1747 
Q 353 2572 751 3078 
Q 1150 3584 1784 3584 
Q 2172 3584 2448 3432 
Q 2725 3281 2906 2969 
z
M 947 1747 
Q 947 1113 1208 752 
Q 1469 391 1925 391 
Q 2381 391 2643 752 
Q 2906 1113 2906 1747 
Q 2906 2381 2643 2742 
Q 2381 3103 1925 3103 
Q 1469 3103 1208 2742 
Q 947 2381 947 1747 
z
" transform="scale(0.015625)"/>
      <path id="DejaVuSans-62" d="M 3116 1747 
Q 3116 2381 2855 2742 
Q 2594 3103 2138 3103 
Q 1681 3103 1420 2742 
Q 1159 2381 1159 1747 
Q 1159 1113 1420 752 
Q 1681 391 2138 391 
Q 2594 391 2855 752 
Q 3116 1113 3116 1747 
z
M 1159 2969 
Q 1341 3281 1617 3432 
Q 1894 3584 2278 3584 
Q 2916 3584 3314 3078 
Q 3713 2572 3713 1747 
Q 3713 922 3314 415 
Q 2916 -91 2278 -91 
Q 1894 -91 1617 61 
Q 1341 213 1159 525 
L 1159 0 
L 581 0 
L 581 4863 
L 1159 4863 
L 1159 2969 
z
" transform="scale(0.015625)"/>
      <path id="DejaVuSans-66" d="M 2375 4863 
L 2375 4384 
L 1825 4384 
Q 1516 4384 1395 4259 
Q 1275 4134 1275 3809 
L 1275 3500 
L 2222 3500 
L 2222 3053 
L 1275 3053 
L 1275 0 
L 697 0 
L 697 3053 
L 147 3053 
L 147 3500 
L 697 3500 
L 697 3744 
Q 697 4328 969 4595 
Q 1241 4863 1831 4863 
L 2375 4863 
z
" transform="scale(0.015625)"/>
     </defs>
     <use xlink:href="#DejaVuSans-50"/>
     <use xlink:href="#DejaVuSans-6f" x="56.677734"/>
     <use xlink:href="#DejaVuSans-70" x="117.859375"/>
     <use xlink:href="#DejaVuSans-75" x="181.335938"/>
     <use xlink:href="#DejaVuSans-6c" x="244.714844"/>
     <use xlink:href="#DejaVuSans-61" x="272.498047"/>
     <use xlink:href="#DejaVuSans-74" x="333.777344"/>
     <use xlink:href="#DejaVuSans-69" x="372.986328"/>
     <use xlink:href="#DejaVuSans-6f" x="400.769531"/>
     <use xlink:href="#DejaVuSans-6e" x="461.951172"/>
     <use xlink:href="#DejaVuSans-27" x="525.330078"/>
     <use xlink:href="#DejaVuSans-73" x="552.820312"/>
     <use xlink:href="#DejaVuSans-20" x="604.919922"/>
     <use xlink:href="#DejaVuSans-61" x="636.707031"/>
     <use xlink:href="#DejaVuSans-76" x="697.986328"/>
     <use xlink:href="#DejaVuSans-65" x="757.166016"/>
     <use xlink:href="#DejaVuSans-72" x="818.689453"/>
     <use xlink:href="#DejaVuSans-61" x="859.802734"/>
     <use xlink:href="#DejaVuSans-67" x="921.082031"/>
     <use xlink:href="#DejaVuSans-65" x="984.558594"/>
     <use xlink:href="#DejaVuSans-20" x="1046.082031"/>
     <use xlink:href="#DejaVuSans-61" x="1077.869141"/>
     <use xlink:href="#DejaVuSans-6e" x="1139.148438"/>
     <use xlink:href="#DejaVuSans-64" x="1202.527344"/>
     <use xlink:href="#DejaVuSans-20" x="1266.003906"/>
     <use xlink:href="#DejaVuSans-62" x="1297.791016"/>
     <use xlink:href="#DejaVuSans-65" x="1361.267578"/>
     <use xlink:href="#DejaVuSans-73" x="1422.791016"/>
     <use xlink:href="#DejaVuSans-74" x="1474.890625"/>
     <use xlink:href="#DejaVuSans-20" x="1514.099609"/>
     <use xlink:href="#DejaVuSans-66" x="1545.886719"/>
     <use xlink:href="#DejaVuSans-69" x="1581.091797"/>
     <use xlink:href="#DejaVuSans-74" x="1608.875"/>
     <use xlink:href="#DejaVuSans-6e" x="1648.083984"/>
     <use xlink:href="#DejaVuSans-65" x="1711.462891"/>
     <use xlink:href="#DejaVuSans-73" x="1772.986328"/>
     <use xlink:href="#DejaVuSans-73" x="1825.085938"/>
    </g>
   </g>
   <g id="legend_1">
    <g id="patch_7">
     <path d="M 64.6 108.1845 
L 137.540625 108.1845 
Q 139.540625 108.1845 139.540625 106.1845 
L 139.540625 48.472 
Q 139.540625 46.472 137.540625 46.472 
L 64.6 46.472 
Q 62.6 46.472 62.6 48.472 
L 62.6 106.1845 
Q 62.6 108.1845 64.6 108.1845 
z
" style="fill: #ffffff; opacity: 0.8; stroke: #cccccc; stroke-linejoin: miter"/>
    </g>
    <g id="line2d_27">
     <path d="M 66.6 54.570438 
L 76.6 54.570438 
L 86.6 54.570438 
" style="fill: none; stroke: #0000ff; stroke-width: 1.5; stroke-linecap: square"/>
    </g>
    <g id="text_15">
     <!-- average -->
     <g transform="translate(94.6 58.070438)scale(0.1 -0.1)">
      <use xlink:href="#DejaVuSans-61"/>
      <use xlink:href="#DejaVuSans-76" x="61.279297"/>
      <use xlink:href="#DejaVuSans-65" x="120.458984"/>
      <use xlink:href="#DejaVuSans-72" x="181.982422"/>
      <use xlink:href="#DejaVuSans-61" x="223.095703"/>
      <use xlink:href="#DejaVuSans-67" x="284.375"/>
      <use xlink:href="#DejaVuSans-65" x="347.851562"/>
     </g>
    </g>
    <g id="line2d_28">
     <path d="M 66.6 69.248563 
L 76.6 69.248563 
L 86.6 69.248563 
" style="fill: none; stroke-dasharray: 9.6,2.4,1.5,2.4; stroke-dashoffset: 0; stroke: #008000; stroke-width: 1.5"/>
    </g>
    <g id="text_16">
     <!-- -1 sd -->
     <g transform="translate(94.6 72.748563)scale(0.1 -0.1)">
      <defs>
       <path id="DejaVuSans-2d" d="M 313 2009 
L 1997 2009 
L 1997 1497 
L 313 1497 
L 313 2009 
z
" transform="scale(0.015625)"/>
      </defs>
      <use xlink:href="#DejaVuSans-2d"/>
      <use xlink:href="#DejaVuSans-31" x="36.083984"/>
      <use xlink:href="#DejaVuSans-20" x="99.707031"/>
      <use xlink:href="#DejaVuSans-73" x="131.494141"/>
      <use xlink:href="#DejaVuSans-64" x="183.59375"/>
     </g>
    </g>
    <g id="line2d_29">
     <path d="M 66.6 83.926688 
L 76.6 83.926688 
L 86.6 83.926688 
" style="fill: none; stroke-dasharray: 9.6,2.4,1.5,2.4; stroke-dashoffset: 0; stroke: #008000; stroke-width: 1.5"/>
    </g>
    <g id="text_17">
     <!-- +1 sd -->
     <g transform="translate(94.6 87.426688)scale(0.1 -0.1)">
      <defs>
       <path id="DejaVuSans-2b" d="M 2944 4013 
L 2944 2272 
L 4684 2272 
L 4684 1741 
L 2944 1741 
L 2944 0 
L 2419 0 
L 2419 1741 
L 678 1741 
L 678 2272 
L 2419 2272 
L 2419 4013 
L 2944 4013 
z
" transform="scale(0.015625)"/>
      </defs>
      <use xlink:href="#DejaVuSans-2b"/>
      <use xlink:href="#DejaVuSans-31" x="83.789062"/>
      <use xlink:href="#DejaVuSans-20" x="147.412109"/>
      <use xlink:href="#DejaVuSans-73" x="179.199219"/>
      <use xlink:href="#DejaVuSans-64" x="231.298828"/>
     </g>
    </g>
    <g id="line2d_30">
     <path d="M 66.6 98.604813 
L 76.6 98.604813 
L 86.6 98.604813 
" style="fill: none; stroke: #ff0000; stroke-width: 1.5; stroke-linecap: square"/>
    </g>
    <g id="text_18">
     <!-- best -->
     <g transform="translate(94.6 102.104813)scale(0.1 -0.1)">
      <use xlink:href="#DejaVuSans-62"/>
      <use xlink:href="#DejaVuSans-65" x="63.476562"/>
      <use xlink:href="#DejaVuSans-73" x="125"/>
      <use xlink:href="#DejaVuSans-74" x="177.099609"/>
     </g>
    </g>
   </g>
  </g>
 </g>
 <defs>
  <clipPath id="pe4b917fe86">
   <rect x="57.6" y="41.472" width="357.12" height="266.112"/>
  </clipPath>
 </defs>
</svg>
