<?xml version="1.0" encoding="utf-8" standalone="no"?>
<!DOCTYPE svg PUBLIC "-//W3C//DTD SVG 1.1//EN"
  "http://www.w3.org/Graphics/SVG/1.1/DTD/svg11.dtd">
<svg xmlns:xlink="http://www.w3.org/1999/xlink" width="460.8pt" height="345.6pt" viewBox="0 0 460.8 345.6" xmlns="http://www.w3.org/2000/svg" version="1.1">
 <metadata>
  <rdf:RDF xmlns:dc="http://purl.org/dc/elements/1.1/" xmlns:cc="http://creativecommons.org/ns#" xmlns:rdf="http://www.w3.org/1999/02/22-rdf-syntax-ns#">
   <cc:Work>
    <dc:type rdf:resource="http://purl.org/dc/dcmitype/StillImage"/>
    <dc:date>2023-01-28T17:24:49.731156</dc:date>
    <dc:format>image/svg+xml</dc:format>
    <dc:creator>
     <cc:Agent>
      <dc:title>Matplotlib v3.5.3, https://matplotlib.org/</dc:title>
     </cc:Agent>
    </dc:creator>
   </cc:Work>
  </rdf:RDF>
 </metadata>
 <defs>
  <style type="text/css">*{stroke-linejoin: round; stroke-linecap: butt}</style>
 </defs>
 <g id="figure_1">
  <g id="patch_1">
   <path d="M 0 345.6 
L 460.8 345.6 
L 460.8 0 
L 0 0 
z
" style="fill: #ffffff"/>
  </g>
  <g id="axes_1">
   <g id="patch_2">
    <path d="M 57.6 307.584 
L 414.72 307.584 
L 414.72 41.472 
L 57.6 41.472 
z
" style="fill: #ffffff"/>
   </g>
   <g id="PolyCollection_1">
    <path d="M 73.832727 57.478737 
L 73.832727 307.584 
L 78.751736 307.584 
L 83.670744 307.584 
L 88.589752 307.584 
L 93.50876 307.584 
L 98.427769 307.584 
L 103.346777 307.584 
L 108.265785 307.584 
L 113.184793 307.584 
L 118.103802 307.584 
L 123.02281 307.584 
L 127.941818 307.584 
L 132.860826 307.584 
L 137.779835 307.584 
L 142.698843 307.584 
L 147.617851 307.584 
L 152.53686 307.584 
L 157.455868 307.584 
L 162.374876 307.584 
L 167.293884 307.584 
L 172.212893 307.584 
L 177.131901 307.584 
L 182.050909 307.584 
L 186.969917 307.584 
L 191.888926 307.584 
L 196.807934 307.584 
L 201.726942 307.584 
L 206.64595 307.584 
L 211.564959 307.584 
L 216.483967 307.584 
L 221.402975 307.584 
L 226.321983 307.584 
L 231.240992 307.584 
L 236.16 307.584 
L 241.079008 307.584 
L 245.998017 307.584 
L 250.917025 307.584 
L 255.836033 307.584 
L 260.755041 307.584 
L 265.67405 307.584 
L 270.593058 307.584 
L 275.512066 307.584 
L 280.431074 307.584 
L 285.350083 307.584 
L 290.269091 307.584 
L 295.188099 307.584 
L 300.107107 307.584 
L 305.026116 307.584 
L 309.945124 307.584 
L 314.864132 307.584 
L 319.78314 307.584 
L 324.702149 307.584 
L 329.621157 307.584 
L 334.540165 307.584 
L 339.459174 307.584 
L 344.378182 307.584 
L 349.29719 307.584 
L 354.216198 307.584 
L 359.135207 307.584 
L 364.054215 307.584 
L 368.973223 307.584 
L 373.892231 307.584 
L 378.81124 307.584 
L 383.730248 307.584 
L 388.649256 307.584 
L 393.568264 307.584 
L 398.487273 307.584 
L 398.487273 307.584 
L 398.487273 307.584 
L 393.568264 307.584 
L 388.649256 307.584 
L 383.730248 307.584 
L 378.81124 307.584 
L 373.892231 307.584 
L 368.973223 307.584 
L 364.054215 307.584 
L 359.135207 307.584 
L 354.216198 307.584 
L 349.29719 307.584 
L 344.378182 307.584 
L 339.459174 307.584 
L 334.540165 307.584 
L 329.621157 307.584 
L 324.702149 307.584 
L 319.78314 307.584 
L 314.864132 307.584 
L 309.945124 307.584 
L 305.026116 307.584 
L 300.107107 307.584 
L 295.188099 307.584 
L 290.269091 307.584 
L 285.350083 307.584 
L 280.431074 307.584 
L 275.512066 307.584 
L 270.593058 277.571368 
L 265.67405 280.906105 
L 260.755041 286.741895 
L 255.836033 279.238737 
L 250.917025 270.901895 
L 245.998017 272.569263 
L 241.079008 278.405053 
L 236.16 271.735579 
L 231.240992 280.072421 
L 226.321983 283.407158 
L 221.402975 295.078737 
L 216.483967 303.415579 
L 211.564959 295.912421 
L 206.64595 256.729263 
L 201.726942 241.722947 
L 196.807934 261.731368 
L 191.888926 252.560842 
L 186.969917 265.066105 
L 182.050909 258.396632 
L 177.131901 185.032421 
L 172.212893 128.341895 
L 167.293884 151.685053 
L 162.374876 145.015579 
L 157.455868 152.518737 
L 152.53686 144.181895 
L 147.617851 115.002947 
L 142.698843 61.647158 
L 137.779835 57.478737 
L 132.860826 57.478737 
L 127.941818 57.478737 
L 123.02281 57.478737 
L 118.103802 57.478737 
L 113.184793 57.478737 
L 108.265785 57.478737 
L 103.346777 57.478737 
L 98.427769 57.478737 
L 93.50876 57.478737 
L 88.589752 57.478737 
L 83.670744 57.478737 
L 78.751736 57.478737 
L 73.832727 57.478737 
z
" clip-path="url(#p67cab8714c)" style="fill: #1f77b4"/>
   </g>
   <g id="PolyCollection_2">
    <path d="M 73.832727 57.478737 
L 73.832727 57.478737 
L 78.751736 57.478737 
L 83.670744 57.478737 
L 88.589752 57.478737 
L 93.50876 57.478737 
L 98.427769 57.478737 
L 103.346777 57.478737 
L 108.265785 57.478737 
L 113.184793 57.478737 
L 118.103802 57.478737 
L 123.02281 57.478737 
L 127.941818 57.478737 
L 132.860826 57.478737 
L 137.779835 57.478737 
L 142.698843 61.647158 
L 147.617851 115.002947 
L 152.53686 144.181895 
L 157.455868 152.518737 
L 162.374876 145.015579 
L 167.293884 151.685053 
L 172.212893 128.341895 
L 177.131901 185.032421 
L 182.050909 258.396632 
L 186.969917 265.066105 
L 191.888926 252.560842 
L 196.807934 261.731368 
L 201.726942 241.722947 
L 206.64595 256.729263 
L 211.564959 295.912421 
L 216.483967 303.415579 
L 221.402975 295.078737 
L 226.321983 283.407158 
L 231.240992 280.072421 
L 236.16 271.735579 
L 241.079008 278.405053 
L 245.998017 272.569263 
L 250.917025 270.901895 
L 255.836033 279.238737 
L 260.755041 286.741895 
L 265.67405 280.906105 
L 270.593058 277.571368 
L 275.512066 307.584 
L 280.431074 307.584 
L 285.350083 307.584 
L 290.269091 307.584 
L 295.188099 307.584 
L 300.107107 307.584 
L 305.026116 307.584 
L 309.945124 307.584 
L 314.864132 307.584 
L 319.78314 307.584 
L 324.702149 307.584 
L 329.621157 307.584 
L 334.540165 307.584 
L 339.459174 307.584 
L 344.378182 307.584 
L 349.29719 307.584 
L 354.216198 307.584 
L 359.135207 307.584 
L 364.054215 307.584 
L 368.973223 307.584 
L 373.892231 307.584 
L 378.81124 307.584 
L 383.730248 307.584 
L 388.649256 307.584 
L 393.568264 307.584 
L 398.487273 307.584 
L 398.487273 307.584 
L 398.487273 307.584 
L 393.568264 307.584 
L 388.649256 307.584 
L 383.730248 307.584 
L 378.81124 307.584 
L 373.892231 307.584 
L 368.973223 307.584 
L 364.054215 307.584 
L 359.135207 307.584 
L 354.216198 307.584 
L 349.29719 307.584 
L 344.378182 307.584 
L 339.459174 307.584 
L 334.540165 307.584 
L 329.621157 307.584 
L 324.702149 307.584 
L 319.78314 307.584 
L 314.864132 307.584 
L 309.945124 307.584 
L 305.026116 307.584 
L 300.107107 307.584 
L 295.188099 307.584 
L 290.269091 307.584 
L 285.350083 307.584 
L 280.431074 307.584 
L 275.512066 307.584 
L 270.593058 277.571368 
L 265.67405 252.560842 
L 260.755041 257.562947 
L 255.836033 250.893474 
L 250.917025 243.390316 
L 245.998017 246.725053 
L 241.079008 254.228211 
L 236.16 245.057684 
L 231.240992 259.230316 
L 226.321983 260.897684 
L 221.402975 266.733474 
L 216.483967 286.741895 
L 211.564959 259.230316 
L 206.64595 223.381895 
L 201.726942 216.712421 
L 196.807934 227.550316 
L 191.888926 222.548211 
L 186.969917 232.552421 
L 182.050909 207.541895 
L 177.131901 115.836632 
L 172.212893 57.478737 
L 167.293884 57.478737 
L 162.374876 57.478737 
L 157.455868 57.478737 
L 152.53686 57.478737 
L 147.617851 57.478737 
L 142.698843 57.478737 
L 137.779835 57.478737 
L 132.860826 57.478737 
L 127.941818 57.478737 
L 123.02281 57.478737 
L 118.103802 57.478737 
L 113.184793 57.478737 
L 108.265785 57.478737 
L 103.346777 57.478737 
L 98.427769 57.478737 
L 93.50876 57.478737 
L 88.589752 57.478737 
L 83.670744 57.478737 
L 78.751736 57.478737 
L 73.832727 57.478737 
z
" clip-path="url(#p67cab8714c)" style="fill: #ff7f0e"/>
   </g>
   <g id="PolyCollection_3">
    <path d="M 73.832727 57.478737 
L 73.832727 57.478737 
L 78.751736 57.478737 
L 83.670744 57.478737 
L 88.589752 57.478737 
L 93.50876 57.478737 
L 98.427769 57.478737 
L 103.346777 57.478737 
L 108.265785 57.478737 
L 113.184793 57.478737 
L 118.103802 57.478737 
L 123.02281 57.478737 
L 127.941818 57.478737 
L 132.860826 57.478737 
L 137.779835 57.478737 
L 142.698843 57.478737 
L 147.617851 57.478737 
L 152.53686 57.478737 
L 157.455868 57.478737 
L 162.374876 57.478737 
L 167.293884 57.478737 
L 172.212893 57.478737 
L 177.131901 115.836632 
L 182.050909 207.541895 
L 186.969917 232.552421 
L 191.888926 222.548211 
L 196.807934 227.550316 
L 201.726942 216.712421 
L 206.64595 223.381895 
L 211.564959 259.230316 
L 216.483967 286.741895 
L 221.402975 266.733474 
L 226.321983 260.897684 
L 231.240992 259.230316 
L 236.16 245.057684 
L 241.079008 254.228211 
L 245.998017 246.725053 
L 250.917025 243.390316 
L 255.836033 250.893474 
L 260.755041 257.562947 
L 265.67405 252.560842 
L 270.593058 277.571368 
L 275.512066 307.584 
L 280.431074 307.584 
L 285.350083 307.584 
L 290.269091 307.584 
L 295.188099 307.584 
L 300.107107 307.584 
L 305.026116 307.584 
L 309.945124 307.584 
L 314.864132 307.584 
L 319.78314 307.584 
L 324.702149 307.584 
L 329.621157 307.584 
L 334.540165 307.584 
L 339.459174 307.584 
L 344.378182 307.584 
L 349.29719 307.584 
L 354.216198 307.584 
L 359.135207 307.584 
L 364.054215 307.584 
L 368.973223 307.584 
L 373.892231 307.584 
L 378.81124 307.584 
L 383.730248 307.584 
L 388.649256 307.584 
L 393.568264 307.584 
L 398.487273 307.584 
L 398.487273 290.076632 
L 398.487273 290.076632 
L 393.568264 286.741895 
L 388.649256 286.741895 
L 383.730248 285.074526 
L 378.81124 284.240842 
L 373.892231 285.074526 
L 368.973223 285.074526 
L 364.054215 285.908211 
L 359.135207 285.908211 
L 354.216198 285.074526 
L 349.29719 286.741895 
L 344.378182 285.908211 
L 339.459174 286.741895 
L 334.540165 287.575579 
L 329.621157 289.242947 
L 324.702149 291.744 
L 319.78314 285.908211 
L 314.864132 286.741895 
L 309.945124 285.908211 
L 305.026116 285.074526 
L 300.107107 284.240842 
L 295.188099 285.908211 
L 290.269091 284.240842 
L 285.350083 283.407158 
L 280.431074 280.906105 
L 275.512066 278.405053 
L 270.593058 247.558737 
L 265.67405 227.550316 
L 260.755041 235.887158 
L 255.836033 233.386105 
L 250.917025 232.552421 
L 245.998017 219.213474 
L 241.079008 230.885053 
L 236.16 219.213474 
L 231.240992 239.221895 
L 226.321983 238.388211 
L 221.402975 241.722947 
L 216.483967 265.899789 
L 211.564959 248.392421 
L 206.64595 197.537684 
L 201.726942 194.202947 
L 196.807934 204.207158 
L 191.888926 189.200842 
L 186.969917 190.034526 
L 182.050909 165.024 
L 177.131901 84.990316 
L 172.212893 57.478737 
L 167.293884 57.478737 
L 162.374876 57.478737 
L 157.455868 57.478737 
L 152.53686 57.478737 
L 147.617851 57.478737 
L 142.698843 57.478737 
L 137.779835 57.478737 
L 132.860826 57.478737 
L 127.941818 57.478737 
L 123.02281 57.478737 
L 118.103802 57.478737 
L 113.184793 57.478737 
L 108.265785 57.478737 
L 103.346777 57.478737 
L 98.427769 57.478737 
L 93.50876 57.478737 
L 88.589752 57.478737 
L 83.670744 57.478737 
L 78.751736 57.478737 
L 73.832727 57.478737 
z
" clip-path="url(#p67cab8714c)" style="fill: #2ca02c"/>
   </g>
   <g id="PolyCollection_4">
    <path d="M 73.832727 57.478737 
L 73.832727 57.478737 
L 78.751736 57.478737 
L 83.670744 57.478737 
L 88.589752 57.478737 
L 93.50876 57.478737 
L 98.427769 57.478737 
L 103.346777 57.478737 
L 108.265785 57.478737 
L 113.184793 57.478737 
L 118.103802 57.478737 
L 123.02281 57.478737 
L 127.941818 57.478737 
L 132.860826 57.478737 
L 137.779835 57.478737 
L 142.698843 57.478737 
L 147.617851 57.478737 
L 152.53686 57.478737 
L 157.455868 57.478737 
L 162.374876 57.478737 
L 167.293884 57.478737 
L 172.212893 57.478737 
L 177.131901 84.990316 
L 182.050909 165.024 
L 186.969917 190.034526 
L 191.888926 189.200842 
L 196.807934 204.207158 
L 201.726942 194.202947 
L 206.64595 197.537684 
L 211.564959 248.392421 
L 216.483967 265.899789 
L 221.402975 241.722947 
L 226.321983 238.388211 
L 231.240992 239.221895 
L 236.16 219.213474 
L 241.079008 230.885053 
L 245.998017 219.213474 
L 250.917025 232.552421 
L 255.836033 233.386105 
L 260.755041 235.887158 
L 265.67405 227.550316 
L 270.593058 247.558737 
L 275.512066 278.405053 
L 280.431074 280.906105 
L 285.350083 283.407158 
L 290.269091 284.240842 
L 295.188099 285.908211 
L 300.107107 284.240842 
L 305.026116 285.074526 
L 309.945124 285.908211 
L 314.864132 286.741895 
L 319.78314 285.908211 
L 324.702149 291.744 
L 329.621157 289.242947 
L 334.540165 287.575579 
L 339.459174 286.741895 
L 344.378182 285.908211 
L 349.29719 286.741895 
L 354.216198 285.074526 
L 359.135207 285.908211 
L 364.054215 285.908211 
L 368.973223 285.074526 
L 373.892231 285.074526 
L 378.81124 284.240842 
L 383.730248 285.074526 
L 388.649256 286.741895 
L 393.568264 286.741895 
L 398.487273 290.076632 
L 398.487273 290.076632 
L 398.487273 290.076632 
L 393.568264 286.741895 
L 388.649256 286.741895 
L 383.730248 285.074526 
L 378.81124 284.240842 
L 373.892231 285.074526 
L 368.973223 285.074526 
L 364.054215 285.908211 
L 359.135207 285.908211 
L 354.216198 285.074526 
L 349.29719 286.741895 
L 344.378182 285.908211 
L 339.459174 286.741895 
L 334.540165 287.575579 
L 329.621157 289.242947 
L 324.702149 291.744 
L 319.78314 285.908211 
L 314.864132 286.741895 
L 309.945124 285.908211 
L 305.026116 285.074526 
L 300.107107 284.240842 
L 295.188099 259.230316 
L 290.269091 255.061895 
L 285.350083 251.727158 
L 280.431074 253.394526 
L 275.512066 255.061895 
L 270.593058 221.714526 
L 265.67405 201.706105 
L 260.755041 207.541895 
L 255.836033 207.541895 
L 250.917025 216.712421 
L 245.998017 216.712421 
L 241.079008 199.205053 
L 236.16 185.032421 
L 231.240992 216.712421 
L 226.321983 206.708211 
L 221.402975 229.217684 
L 216.483967 253.394526 
L 211.564959 197.537684 
L 206.64595 170.859789 
L 201.726942 167.525053 
L 196.807934 176.695579 
L 191.888926 160.855579 
L 186.969917 158.354526 
L 182.050909 143.348211 
L 177.131901 69.150316 
L 172.212893 57.478737 
L 167.293884 57.478737 
L 162.374876 57.478737 
L 157.455868 57.478737 
L 152.53686 57.478737 
L 147.617851 57.478737 
L 142.698843 57.478737 
L 137.779835 57.478737 
L 132.860826 57.478737 
L 127.941818 57.478737 
L 123.02281 57.478737 
L 118.103802 57.478737 
L 113.184793 57.478737 
L 108.265785 57.478737 
L 103.346777 57.478737 
L 98.427769 57.478737 
L 93.50876 57.478737 
L 88.589752 57.478737 
L 83.670744 57.478737 
L 78.751736 57.478737 
L 73.832727 57.478737 
z
" clip-path="url(#p67cab8714c)" style="fill: #d62728"/>
   </g>
   <g id="PolyCollection_5">
    <path d="M 73.832727 57.478737 
L 73.832727 57.478737 
L 78.751736 57.478737 
L 83.670744 57.478737 
L 88.589752 57.478737 
L 93.50876 57.478737 
L 98.427769 57.478737 
L 103.346777 57.478737 
L 108.265785 57.478737 
L 113.184793 57.478737 
L 118.103802 57.478737 
L 123.02281 57.478737 
L 127.941818 57.478737 
L 132.860826 57.478737 
L 137.779835 57.478737 
L 142.698843 57.478737 
L 147.617851 57.478737 
L 152.53686 57.478737 
L 157.455868 57.478737 
L 162.374876 57.478737 
L 167.293884 57.478737 
L 172.212893 57.478737 
L 177.131901 69.150316 
L 182.050909 143.348211 
L 186.969917 158.354526 
L 191.888926 160.855579 
L 196.807934 176.695579 
L 201.726942 167.525053 
L 206.64595 170.859789 
L 211.564959 197.537684 
L 216.483967 253.394526 
L 221.402975 229.217684 
L 226.321983 206.708211 
L 231.240992 216.712421 
L 236.16 185.032421 
L 241.079008 199.205053 
L 245.998017 216.712421 
L 250.917025 216.712421 
L 255.836033 207.541895 
L 260.755041 207.541895 
L 265.67405 201.706105 
L 270.593058 221.714526 
L 275.512066 255.061895 
L 280.431074 253.394526 
L 285.350083 251.727158 
L 290.269091 255.061895 
L 295.188099 259.230316 
L 300.107107 284.240842 
L 305.026116 285.074526 
L 309.945124 285.908211 
L 314.864132 286.741895 
L 319.78314 285.908211 
L 324.702149 291.744 
L 329.621157 289.242947 
L 334.540165 287.575579 
L 339.459174 286.741895 
L 344.378182 285.908211 
L 349.29719 286.741895 
L 354.216198 285.074526 
L 359.135207 285.908211 
L 364.054215 285.908211 
L 368.973223 285.074526 
L 373.892231 285.074526 
L 378.81124 284.240842 
L 383.730248 285.074526 
L 388.649256 286.741895 
L 393.568264 286.741895 
L 398.487273 290.076632 
L 398.487273 290.076632 
L 398.487273 290.076632 
L 393.568264 286.741895 
L 388.649256 286.741895 
L 383.730248 285.074526 
L 378.81124 284.240842 
L 373.892231 285.074526 
L 368.973223 285.074526 
L 364.054215 285.908211 
L 359.135207 285.908211 
L 354.216198 285.074526 
L 349.29719 286.741895 
L 344.378182 285.908211 
L 339.459174 286.741895 
L 334.540165 287.575579 
L 329.621157 289.242947 
L 324.702149 291.744 
L 319.78314 285.908211 
L 314.864132 286.741895 
L 309.945124 265.066105 
L 305.026116 263.398737 
L 300.107107 259.230316 
L 295.188099 233.386105 
L 290.269091 227.550316 
L 285.350083 220.047158 
L 280.431074 223.381895 
L 275.512066 222.548211 
L 270.593058 195.036632 
L 265.67405 175.028211 
L 260.755041 178.362947 
L 255.836033 173.360842 
L 250.917025 172.527158 
L 245.998017 171.693474 
L 241.079008 148.350316 
L 236.16 155.019789 
L 231.240992 190.868211 
L 226.321983 181.697684 
L 221.402975 204.207158 
L 216.483967 231.718737 
L 211.564959 168.358737 
L 206.64595 137.512421 
L 201.726942 134.177684 
L 196.807934 140.847158 
L 191.888926 126.674526 
L 186.969917 126.674526 
L 182.050909 101.664 
L 177.131901 57.478737 
L 172.212893 57.478737 
L 167.293884 57.478737 
L 162.374876 57.478737 
L 157.455868 57.478737 
L 152.53686 57.478737 
L 147.617851 57.478737 
L 142.698843 57.478737 
L 137.779835 57.478737 
L 132.860826 57.478737 
L 127.941818 57.478737 
L 123.02281 57.478737 
L 118.103802 57.478737 
L 113.184793 57.478737 
L 108.265785 57.478737 
L 103.346777 57.478737 
L 98.427769 57.478737 
L 93.50876 57.478737 
L 88.589752 57.478737 
L 83.670744 57.478737 
L 78.751736 57.478737 
L 73.832727 57.478737 
z
" clip-path="url(#p67cab8714c)" style="fill: #9467bd"/>
   </g>
   <g id="PolyCollection_6">
    <path d="M 73.832727 57.478737 
L 73.832727 57.478737 
L 78.751736 57.478737 
L 83.670744 57.478737 
L 88.589752 57.478737 
L 93.50876 57.478737 
L 98.427769 57.478737 
L 103.346777 57.478737 
L 108.265785 57.478737 
L 113.184793 57.478737 
L 118.103802 57.478737 
L 123.02281 57.478737 
L 127.941818 57.478737 
L 132.860826 57.478737 
L 137.779835 57.478737 
L 142.698843 57.478737 
L 147.617851 57.478737 
L 152.53686 57.478737 
L 157.455868 57.478737 
L 162.374876 57.478737 
L 167.293884 57.478737 
L 172.212893 57.478737 
L 177.131901 57.478737 
L 182.050909 101.664 
L 186.969917 126.674526 
L 191.888926 126.674526 
L 196.807934 140.847158 
L 201.726942 134.177684 
L 206.64595 137.512421 
L 211.564959 168.358737 
L 216.483967 231.718737 
L 221.402975 204.207158 
L 226.321983 181.697684 
L 231.240992 190.868211 
L 236.16 155.019789 
L 241.079008 148.350316 
L 245.998017 171.693474 
L 250.917025 172.527158 
L 255.836033 173.360842 
L 260.755041 178.362947 
L 265.67405 175.028211 
L 270.593058 195.036632 
L 275.512066 222.548211 
L 280.431074 223.381895 
L 285.350083 220.047158 
L 290.269091 227.550316 
L 295.188099 233.386105 
L 300.107107 259.230316 
L 305.026116 263.398737 
L 309.945124 265.066105 
L 314.864132 286.741895 
L 319.78314 285.908211 
L 324.702149 291.744 
L 329.621157 289.242947 
L 334.540165 287.575579 
L 339.459174 286.741895 
L 344.378182 285.908211 
L 349.29719 286.741895 
L 354.216198 285.074526 
L 359.135207 285.908211 
L 364.054215 285.908211 
L 368.973223 285.074526 
L 373.892231 285.074526 
L 378.81124 284.240842 
L 383.730248 285.074526 
L 388.649256 286.741895 
L 393.568264 286.741895 
L 398.487273 290.076632 
L 398.487273 290.076632 
L 398.487273 290.076632 
L 393.568264 286.741895 
L 388.649256 286.741895 
L 383.730248 285.074526 
L 378.81124 284.240842 
L 373.892231 285.074526 
L 368.973223 266.733474 
L 364.054215 265.899789 
L 359.135207 266.733474 
L 354.216198 265.066105 
L 349.29719 266.733474 
L 344.378182 266.733474 
L 339.459174 267.567158 
L 334.540165 270.068211 
L 329.621157 274.236632 
L 324.702149 276.737684 
L 319.78314 272.569263 
L 314.864132 266.733474 
L 309.945124 240.055579 
L 305.026116 240.889263 
L 300.107107 235.887158 
L 295.188099 211.710316 
L 290.269091 204.207158 
L 285.350083 176.695579 
L 280.431074 188.367158 
L 275.512066 192.535579 
L 270.593058 163.356632 
L 265.67405 145.015579 
L 260.755041 143.348211 
L 255.836033 143.348211 
L 250.917025 145.849263 
L 245.998017 140.847158 
L 241.079008 124.173474 
L 236.16 125.840842 
L 231.240992 176.695579 
L 226.321983 159.188211 
L 221.402975 169.192421 
L 216.483967 200.872421 
L 211.564959 140.013474 
L 206.64595 114.169263 
L 201.726942 107.499789 
L 196.807934 116.670316 
L 191.888926 103.331368 
L 186.969917 100.830316 
L 182.050909 82.489263 
L 177.131901 57.478737 
L 172.212893 57.478737 
L 167.293884 57.478737 
L 162.374876 57.478737 
L 157.455868 57.478737 
L 152.53686 57.478737 
L 147.617851 57.478737 
L 142.698843 57.478737 
L 137.779835 57.478737 
L 132.860826 57.478737 
L 127.941818 57.478737 
L 123.02281 57.478737 
L 118.103802 57.478737 
L 113.184793 57.478737 
L 108.265785 57.478737 
L 103.346777 57.478737 
L 98.427769 57.478737 
L 93.50876 57.478737 
L 88.589752 57.478737 
L 83.670744 57.478737 
L 78.751736 57.478737 
L 73.832727 57.478737 
z
" clip-path="url(#p67cab8714c)" style="fill: #8c564b"/>
   </g>
   <g id="PolyCollection_7">
    <path d="M 73.832727 57.478737 
L 73.832727 57.478737 
L 78.751736 57.478737 
L 83.670744 57.478737 
L 88.589752 57.478737 
L 93.50876 57.478737 
L 98.427769 57.478737 
L 103.346777 57.478737 
L 108.265785 57.478737 
L 113.184793 57.478737 
L 118.103802 57.478737 
L 123.02281 57.478737 
L 127.941818 57.478737 
L 132.860826 57.478737 
L 137.779835 57.478737 
L 142.698843 57.478737 
L 147.617851 57.478737 
L 152.53686 57.478737 
L 157.455868 57.478737 
L 162.374876 57.478737 
L 167.293884 57.478737 
L 172.212893 57.478737 
L 177.131901 57.478737 
L 182.050909 82.489263 
L 186.969917 100.830316 
L 191.888926 103.331368 
L 196.807934 116.670316 
L 201.726942 107.499789 
L 206.64595 114.169263 
L 211.564959 140.013474 
L 216.483967 200.872421 
L 221.402975 169.192421 
L 226.321983 159.188211 
L 231.240992 176.695579 
L 236.16 125.840842 
L 241.079008 124.173474 
L 245.998017 140.847158 
L 250.917025 145.849263 
L 255.836033 143.348211 
L 260.755041 143.348211 
L 265.67405 145.015579 
L 270.593058 163.356632 
L 275.512066 192.535579 
L 280.431074 188.367158 
L 285.350083 176.695579 
L 290.269091 204.207158 
L 295.188099 211.710316 
L 300.107107 235.887158 
L 305.026116 240.889263 
L 309.945124 240.055579 
L 314.864132 266.733474 
L 319.78314 272.569263 
L 324.702149 276.737684 
L 329.621157 274.236632 
L 334.540165 270.068211 
L 339.459174 267.567158 
L 344.378182 266.733474 
L 349.29719 266.733474 
L 354.216198 265.066105 
L 359.135207 266.733474 
L 364.054215 265.899789 
L 368.973223 266.733474 
L 373.892231 285.074526 
L 378.81124 284.240842 
L 383.730248 285.074526 
L 388.649256 286.741895 
L 393.568264 286.741895 
L 398.487273 290.076632 
L 398.487273 262.565053 
L 398.487273 262.565053 
L 393.568264 254.228211 
L 388.649256 265.899789 
L 383.730248 260.897684 
L 378.81124 255.895579 
L 373.892231 260.064 
L 368.973223 244.224 
L 364.054215 244.224 
L 359.135207 242.556632 
L 354.216198 241.722947 
L 349.29719 245.057684 
L 344.378182 246.725053 
L 339.459174 243.390316 
L 334.540165 243.390316 
L 329.621157 236.720842 
L 324.702149 223.381895 
L 319.78314 246.725053 
L 314.864132 235.887158 
L 309.945124 210.042947 
L 305.026116 208.375579 
L 300.107107 203.373474 
L 295.188099 182.531368 
L 290.269091 172.527158 
L 285.350083 150.017684 
L 280.431074 155.019789 
L 275.512066 154.186105 
L 270.593058 128.341895 
L 265.67405 113.335579 
L 260.755041 108.333474 
L 255.836033 105.832421 
L 250.917025 93.327158 
L 245.998017 88.325053 
L 241.079008 90.826105 
L 236.16 82.489263 
L 231.240992 76.653474 
L 226.321983 79.154526 
L 221.402975 76.653474 
L 216.483967 74.152421 
L 211.564959 79.154526 
L 206.64595 72.485053 
L 201.726942 79.988211 
L 196.807934 88.325053 
L 191.888926 66.649263 
L 186.969917 57.478737 
L 182.050909 56.645053 
L 177.131901 57.478737 
L 172.212893 57.478737 
L 167.293884 57.478737 
L 162.374876 57.478737 
L 157.455868 57.478737 
L 152.53686 57.478737 
L 147.617851 57.478737 
L 142.698843 57.478737 
L 137.779835 57.478737 
L 132.860826 57.478737 
L 127.941818 57.478737 
L 123.02281 57.478737 
L 118.103802 57.478737 
L 113.184793 57.478737 
L 108.265785 57.478737 
L 103.346777 57.478737 
L 98.427769 57.478737 
L 93.50876 57.478737 
L 88.589752 57.478737 
L 83.670744 57.478737 
L 78.751736 57.478737 
L 73.832727 57.478737 
z
" clip-path="url(#p67cab8714c)" style="fill: #e377c2"/>
   </g>
   <g id="PolyCollection_8">
    <path d="M 73.832727 57.478737 
L 73.832727 57.478737 
L 78.751736 57.478737 
L 83.670744 57.478737 
L 88.589752 57.478737 
L 93.50876 57.478737 
L 98.427769 57.478737 
L 103.346777 57.478737 
L 108.265785 57.478737 
L 113.184793 57.478737 
L 118.103802 57.478737 
L 123.02281 57.478737 
L 127.941818 57.478737 
L 132.860826 57.478737 
L 137.779835 57.478737 
L 142.698843 57.478737 
L 147.617851 57.478737 
L 152.53686 57.478737 
L 157.455868 57.478737 
L 162.374876 57.478737 
L 167.293884 57.478737 
L 172.212893 57.478737 
L 177.131901 57.478737 
L 182.050909 56.645053 
L 186.969917 57.478737 
L 191.888926 66.649263 
L 196.807934 88.325053 
L 201.726942 79.988211 
L 206.64595 72.485053 
L 211.564959 79.154526 
L 216.483967 74.152421 
L 221.402975 76.653474 
L 226.321983 79.154526 
L 231.240992 76.653474 
L 236.16 82.489263 
L 241.079008 90.826105 
L 245.998017 88.325053 
L 250.917025 93.327158 
L 255.836033 105.832421 
L 260.755041 108.333474 
L 265.67405 113.335579 
L 270.593058 128.341895 
L 275.512066 154.186105 
L 280.431074 155.019789 
L 285.350083 150.017684 
L 290.269091 172.527158 
L 295.188099 182.531368 
L 300.107107 203.373474 
L 305.026116 208.375579 
L 309.945124 210.042947 
L 314.864132 235.887158 
L 319.78314 246.725053 
L 324.702149 223.381895 
L 329.621157 236.720842 
L 334.540165 243.390316 
L 339.459174 243.390316 
L 344.378182 246.725053 
L 349.29719 245.057684 
L 354.216198 241.722947 
L 359.135207 242.556632 
L 364.054215 244.224 
L 368.973223 244.224 
L 373.892231 260.064 
L 378.81124 255.895579 
L 383.730248 260.897684 
L 388.649256 265.899789 
L 393.568264 254.228211 
L 398.487273 262.565053 
L 398.487273 262.565053 
L 398.487273 262.565053 
L 393.568264 254.228211 
L 388.649256 265.899789 
L 383.730248 260.897684 
L 378.81124 255.895579 
L 373.892231 260.064 
L 368.973223 244.224 
L 364.054215 244.224 
L 359.135207 242.556632 
L 354.216198 241.722947 
L 349.29719 224.215579 
L 344.378182 225.049263 
L 339.459174 227.550316 
L 334.540165 227.550316 
L 329.621157 222.548211 
L 324.702149 212.544 
L 319.78314 224.215579 
L 314.864132 216.712421 
L 309.945124 193.369263 
L 305.026116 184.198737 
L 300.107107 178.362947 
L 295.188099 157.520842 
L 290.269091 146.682947 
L 285.350083 126.674526 
L 280.431074 130.009263 
L 275.512066 127.508211 
L 270.593058 100.830316 
L 265.67405 84.990316 
L 260.755041 81.655579 
L 255.836033 74.152421 
L 250.917025 57.478737 
L 245.998017 57.478737 
L 241.079008 57.478737 
L 236.16 57.478737 
L 231.240992 58.312421 
L 226.321983 57.478737 
L 221.402975 56.645053 
L 216.483967 55.811368 
L 211.564959 57.478737 
L 206.64595 57.478737 
L 201.726942 56.645053 
L 196.807934 57.478737 
L 191.888926 57.478737 
L 186.969917 57.478737 
L 182.050909 56.645053 
L 177.131901 57.478737 
L 172.212893 57.478737 
L 167.293884 57.478737 
L 162.374876 57.478737 
L 157.455868 57.478737 
L 152.53686 57.478737 
L 147.617851 57.478737 
L 142.698843 57.478737 
L 137.779835 57.478737 
L 132.860826 57.478737 
L 127.941818 57.478737 
L 123.02281 57.478737 
L 118.103802 57.478737 
L 113.184793 57.478737 
L 108.265785 57.478737 
L 103.346777 57.478737 
L 98.427769 57.478737 
L 93.50876 57.478737 
L 88.589752 57.478737 
L 83.670744 57.478737 
L 78.751736 57.478737 
L 73.832727 57.478737 
z
" clip-path="url(#p67cab8714c)" style="fill: #7f7f7f"/>
   </g>
   <g id="PolyCollection_9">
    <path d="M 73.832727 57.478737 
L 73.832727 57.478737 
L 78.751736 57.478737 
L 83.670744 57.478737 
L 88.589752 57.478737 
L 93.50876 57.478737 
L 98.427769 57.478737 
L 103.346777 57.478737 
L 108.265785 57.478737 
L 113.184793 57.478737 
L 118.103802 57.478737 
L 123.02281 57.478737 
L 127.941818 57.478737 
L 132.860826 57.478737 
L 137.779835 57.478737 
L 142.698843 57.478737 
L 147.617851 57.478737 
L 152.53686 57.478737 
L 157.455868 57.478737 
L 162.374876 57.478737 
L 167.293884 57.478737 
L 172.212893 57.478737 
L 177.131901 57.478737 
L 182.050909 56.645053 
L 186.969917 57.478737 
L 191.888926 57.478737 
L 196.807934 57.478737 
L 201.726942 56.645053 
L 206.64595 57.478737 
L 211.564959 57.478737 
L 216.483967 55.811368 
L 221.402975 56.645053 
L 226.321983 57.478737 
L 231.240992 58.312421 
L 236.16 57.478737 
L 241.079008 57.478737 
L 245.998017 57.478737 
L 250.917025 57.478737 
L 255.836033 74.152421 
L 260.755041 81.655579 
L 265.67405 84.990316 
L 270.593058 100.830316 
L 275.512066 127.508211 
L 280.431074 130.009263 
L 285.350083 126.674526 
L 290.269091 146.682947 
L 295.188099 157.520842 
L 300.107107 178.362947 
L 305.026116 184.198737 
L 309.945124 193.369263 
L 314.864132 216.712421 
L 319.78314 224.215579 
L 324.702149 212.544 
L 329.621157 222.548211 
L 334.540165 227.550316 
L 339.459174 227.550316 
L 344.378182 225.049263 
L 349.29719 224.215579 
L 354.216198 241.722947 
L 359.135207 242.556632 
L 364.054215 244.224 
L 368.973223 244.224 
L 373.892231 260.064 
L 378.81124 255.895579 
L 383.730248 260.897684 
L 388.649256 265.899789 
L 393.568264 254.228211 
L 398.487273 262.565053 
L 398.487273 250.893474 
L 398.487273 250.893474 
L 393.568264 235.053474 
L 388.649256 245.057684 
L 383.730248 238.388211 
L 378.81124 232.552421 
L 373.892231 235.887158 
L 368.973223 221.714526 
L 364.054215 220.880842 
L 359.135207 220.047158 
L 354.216198 220.047158 
L 349.29719 205.040842 
L 344.378182 206.708211 
L 339.459174 208.375579 
L 334.540165 209.209263 
L 329.621157 206.708211 
L 324.702149 200.038737 
L 319.78314 204.207158 
L 314.864132 195.036632 
L 309.945124 170.859789 
L 305.026116 162.522947 
L 300.107107 161.689263 
L 295.188099 139.179789 
L 290.269091 126.674526 
L 285.350083 103.331368 
L 280.431074 99.996632 
L 275.512066 96.661895 
L 270.593058 70.817684 
L 265.67405 59.146105 
L 260.755041 59.979789 
L 255.836033 58.312421 
L 250.917025 56.645053 
L 245.998017 57.478737 
L 241.079008 57.478737 
L 236.16 57.478737 
L 231.240992 58.312421 
L 226.321983 57.478737 
L 221.402975 56.645053 
L 216.483967 55.811368 
L 211.564959 57.478737 
L 206.64595 57.478737 
L 201.726942 56.645053 
L 196.807934 57.478737 
L 191.888926 57.478737 
L 186.969917 57.478737 
L 182.050909 56.645053 
L 177.131901 57.478737 
L 172.212893 57.478737 
L 167.293884 57.478737 
L 162.374876 57.478737 
L 157.455868 57.478737 
L 152.53686 57.478737 
L 147.617851 57.478737 
L 142.698843 57.478737 
L 137.779835 57.478737 
L 132.860826 57.478737 
L 127.941818 57.478737 
L 123.02281 57.478737 
L 118.103802 57.478737 
L 113.184793 57.478737 
L 108.265785 57.478737 
L 103.346777 57.478737 
L 98.427769 57.478737 
L 93.50876 57.478737 
L 88.589752 57.478737 
L 83.670744 57.478737 
L 78.751736 57.478737 
L 73.832727 57.478737 
z
" clip-path="url(#p67cab8714c)" style="fill: #bcbd22"/>
   </g>
   <g id="PolyCollection_10">
    <path d="M 73.832727 57.478737 
L 73.832727 57.478737 
L 78.751736 57.478737 
L 83.670744 57.478737 
L 88.589752 57.478737 
L 93.50876 57.478737 
L 98.427769 57.478737 
L 103.346777 57.478737 
L 108.265785 57.478737 
L 113.184793 57.478737 
L 118.103802 57.478737 
L 123.02281 57.478737 
L 127.941818 57.478737 
L 132.860826 57.478737 
L 137.779835 57.478737 
L 142.698843 57.478737 
L 147.617851 57.478737 
L 152.53686 57.478737 
L 157.455868 57.478737 
L 162.374876 57.478737 
L 167.293884 57.478737 
L 172.212893 57.478737 
L 177.131901 57.478737 
L 182.050909 56.645053 
L 186.969917 57.478737 
L 191.888926 57.478737 
L 196.807934 57.478737 
L 201.726942 56.645053 
L 206.64595 57.478737 
L 211.564959 57.478737 
L 216.483967 55.811368 
L 221.402975 56.645053 
L 226.321983 57.478737 
L 231.240992 58.312421 
L 236.16 57.478737 
L 241.079008 57.478737 
L 245.998017 57.478737 
L 250.917025 56.645053 
L 255.836033 58.312421 
L 260.755041 59.979789 
L 265.67405 59.146105 
L 270.593058 70.817684 
L 275.512066 96.661895 
L 280.431074 99.996632 
L 285.350083 103.331368 
L 290.269091 126.674526 
L 295.188099 139.179789 
L 300.107107 161.689263 
L 305.026116 162.522947 
L 309.945124 170.859789 
L 314.864132 195.036632 
L 319.78314 204.207158 
L 324.702149 200.038737 
L 329.621157 206.708211 
L 334.540165 209.209263 
L 339.459174 208.375579 
L 344.378182 206.708211 
L 349.29719 205.040842 
L 354.216198 220.047158 
L 359.135207 220.047158 
L 364.054215 220.880842 
L 368.973223 221.714526 
L 373.892231 235.887158 
L 378.81124 232.552421 
L 383.730248 238.388211 
L 388.649256 245.057684 
L 393.568264 235.053474 
L 398.487273 250.893474 
L 398.487273 230.051368 
L 398.487273 230.051368 
L 393.568264 213.377684 
L 388.649256 223.381895 
L 383.730248 215.045053 
L 378.81124 206.708211 
L 373.892231 209.209263 
L 368.973223 194.202947 
L 364.054215 194.202947 
L 359.135207 191.701895 
L 354.216198 195.870316 
L 349.29719 181.697684 
L 344.378182 180.030316 
L 339.459174 182.531368 
L 334.540165 180.030316 
L 329.621157 172.527158 
L 324.702149 160.855579 
L 319.78314 180.030316 
L 314.864132 170.026105 
L 309.945124 148.350316 
L 305.026116 140.847158 
L 300.107107 138.346105 
L 295.188099 117.504 
L 290.269091 102.497684 
L 285.350083 84.156632 
L 280.431074 79.988211 
L 275.512066 79.988211 
L 270.593058 64.981895 
L 265.67405 59.146105 
L 260.755041 59.979789 
L 255.836033 58.312421 
L 250.917025 56.645053 
L 245.998017 57.478737 
L 241.079008 57.478737 
L 236.16 57.478737 
L 231.240992 58.312421 
L 226.321983 57.478737 
L 221.402975 56.645053 
L 216.483967 55.811368 
L 211.564959 57.478737 
L 206.64595 57.478737 
L 201.726942 56.645053 
L 196.807934 57.478737 
L 191.888926 57.478737 
L 186.969917 57.478737 
L 182.050909 56.645053 
L 177.131901 57.478737 
L 172.212893 57.478737 
L 167.293884 57.478737 
L 162.374876 57.478737 
L 157.455868 57.478737 
L 152.53686 57.478737 
L 147.617851 57.478737 
L 142.698843 57.478737 
L 137.779835 57.478737 
L 132.860826 57.478737 
L 127.941818 57.478737 
L 123.02281 57.478737 
L 118.103802 57.478737 
L 113.184793 57.478737 
L 108.265785 57.478737 
L 103.346777 57.478737 
L 98.427769 57.478737 
L 93.50876 57.478737 
L 88.589752 57.478737 
L 83.670744 57.478737 
L 78.751736 57.478737 
L 73.832727 57.478737 
z
" clip-path="url(#p67cab8714c)" style="fill: #17becf"/>
   </g>
   <g id="PolyCollection_11">
    <path d="M 73.832727 57.478737 
L 73.832727 57.478737 
L 78.751736 57.478737 
L 83.670744 57.478737 
L 88.589752 57.478737 
L 93.50876 57.478737 
L 98.427769 57.478737 
L 103.346777 57.478737 
L 108.265785 57.478737 
L 113.184793 57.478737 
L 118.103802 57.478737 
L 123.02281 57.478737 
L 127.941818 57.478737 
L 132.860826 57.478737 
L 137.779835 57.478737 
L 142.698843 57.478737 
L 147.617851 57.478737 
L 152.53686 57.478737 
L 157.455868 57.478737 
L 162.374876 57.478737 
L 167.293884 57.478737 
L 172.212893 57.478737 
L 177.131901 57.478737 
L 182.050909 56.645053 
L 186.969917 57.478737 
L 191.888926 57.478737 
L 196.807934 57.478737 
L 201.726942 56.645053 
L 206.64595 57.478737 
L 211.564959 57.478737 
L 216.483967 55.811368 
L 221.402975 56.645053 
L 226.321983 57.478737 
L 231.240992 58.312421 
L 236.16 57.478737 
L 241.079008 57.478737 
L 245.998017 57.478737 
L 250.917025 56.645053 
L 255.836033 58.312421 
L 260.755041 59.979789 
L 265.67405 59.146105 
L 270.593058 64.981895 
L 275.512066 79.988211 
L 280.431074 79.988211 
L 285.350083 84.156632 
L 290.269091 102.497684 
L 295.188099 117.504 
L 300.107107 138.346105 
L 305.026116 140.847158 
L 309.945124 148.350316 
L 314.864132 170.026105 
L 319.78314 180.030316 
L 324.702149 160.855579 
L 329.621157 172.527158 
L 334.540165 180.030316 
L 339.459174 182.531368 
L 344.378182 180.030316 
L 349.29719 181.697684 
L 354.216198 195.870316 
L 359.135207 191.701895 
L 364.054215 194.202947 
L 368.973223 194.202947 
L 373.892231 209.209263 
L 378.81124 206.708211 
L 383.730248 215.045053 
L 388.649256 223.381895 
L 393.568264 213.377684 
L 398.487273 230.051368 
L 398.487273 214.211368 
L 398.487273 214.211368 
L 393.568264 195.870316 
L 388.649256 211.710316 
L 383.730248 205.040842 
L 378.81124 185.032421 
L 373.892231 187.533474 
L 368.973223 174.194526 
L 364.054215 170.859789 
L 359.135207 169.192421 
L 354.216198 174.194526 
L 349.29719 163.356632 
L 344.378182 163.356632 
L 339.459174 165.024 
L 334.540165 165.857684 
L 329.621157 155.019789 
L 324.702149 145.849263 
L 319.78314 165.024 
L 314.864132 150.851368 
L 309.945124 131.676632 
L 305.026116 121.672421 
L 300.107107 118.337684 
L 295.188099 95.828211 
L 290.269091 79.988211 
L 285.350083 62.480842 
L 280.431074 59.146105 
L 275.512066 59.146105 
L 270.593058 57.478737 
L 265.67405 59.146105 
L 260.755041 59.979789 
L 255.836033 58.312421 
L 250.917025 56.645053 
L 245.998017 57.478737 
L 241.079008 57.478737 
L 236.16 57.478737 
L 231.240992 58.312421 
L 226.321983 57.478737 
L 221.402975 56.645053 
L 216.483967 55.811368 
L 211.564959 57.478737 
L 206.64595 57.478737 
L 201.726942 56.645053 
L 196.807934 57.478737 
L 191.888926 57.478737 
L 186.969917 57.478737 
L 182.050909 56.645053 
L 177.131901 57.478737 
L 172.212893 57.478737 
L 167.293884 57.478737 
L 162.374876 57.478737 
L 157.455868 57.478737 
L 152.53686 57.478737 
L 147.617851 57.478737 
L 142.698843 57.478737 
L 137.779835 57.478737 
L 132.860826 57.478737 
L 127.941818 57.478737 
L 123.02281 57.478737 
L 118.103802 57.478737 
L 113.184793 57.478737 
L 108.265785 57.478737 
L 103.346777 57.478737 
L 98.427769 57.478737 
L 93.50876 57.478737 
L 88.589752 57.478737 
L 83.670744 57.478737 
L 78.751736 57.478737 
L 73.832727 57.478737 
z
" clip-path="url(#p67cab8714c)" style="fill: #1f77b4"/>
   </g>
   <g id="PolyCollection_12">
    <path d="M 73.832727 57.478737 
L 73.832727 57.478737 
L 78.751736 57.478737 
L 83.670744 57.478737 
L 88.589752 57.478737 
L 93.50876 57.478737 
L 98.427769 57.478737 
L 103.346777 57.478737 
L 108.265785 57.478737 
L 113.184793 57.478737 
L 118.103802 57.478737 
L 123.02281 57.478737 
L 127.941818 57.478737 
L 132.860826 57.478737 
L 137.779835 57.478737 
L 142.698843 57.478737 
L 147.617851 57.478737 
L 152.53686 57.478737 
L 157.455868 57.478737 
L 162.374876 57.478737 
L 167.293884 57.478737 
L 172.212893 57.478737 
L 177.131901 57.478737 
L 182.050909 56.645053 
L 186.969917 57.478737 
L 191.888926 57.478737 
L 196.807934 57.478737 
L 201.726942 56.645053 
L 206.64595 57.478737 
L 211.564959 57.478737 
L 216.483967 55.811368 
L 221.402975 56.645053 
L 226.321983 57.478737 
L 231.240992 58.312421 
L 236.16 57.478737 
L 241.079008 57.478737 
L 245.998017 57.478737 
L 250.917025 56.645053 
L 255.836033 58.312421 
L 260.755041 59.979789 
L 265.67405 59.146105 
L 270.593058 57.478737 
L 275.512066 59.146105 
L 280.431074 59.146105 
L 285.350083 62.480842 
L 290.269091 79.988211 
L 295.188099 95.828211 
L 300.107107 118.337684 
L 305.026116 121.672421 
L 309.945124 131.676632 
L 314.864132 150.851368 
L 319.78314 165.024 
L 324.702149 145.849263 
L 329.621157 155.019789 
L 334.540165 165.857684 
L 339.459174 165.024 
L 344.378182 163.356632 
L 349.29719 163.356632 
L 354.216198 174.194526 
L 359.135207 169.192421 
L 364.054215 170.859789 
L 368.973223 174.194526 
L 373.892231 187.533474 
L 378.81124 185.032421 
L 383.730248 205.040842 
L 388.649256 211.710316 
L 393.568264 195.870316 
L 398.487273 214.211368 
L 398.487273 214.211368 
L 398.487273 214.211368 
L 393.568264 180.864 
L 388.649256 193.369263 
L 383.730248 187.533474 
L 378.81124 167.525053 
L 373.892231 170.859789 
L 368.973223 160.021895 
L 364.054215 155.019789 
L 359.135207 150.851368 
L 354.216198 155.019789 
L 349.29719 143.348211 
L 344.378182 144.181895 
L 339.459174 145.015579 
L 334.540165 147.516632 
L 329.621157 137.512421 
L 324.702149 130.009263 
L 319.78314 140.013474 
L 314.864132 127.508211 
L 309.945124 110.000842 
L 305.026116 98.329263 
L 300.107107 95.828211 
L 295.188099 74.152421 
L 290.269091 60.813474 
L 285.350083 58.312421 
L 280.431074 59.146105 
L 275.512066 59.146105 
L 270.593058 57.478737 
L 265.67405 59.146105 
L 260.755041 59.979789 
L 255.836033 58.312421 
L 250.917025 56.645053 
L 245.998017 57.478737 
L 241.079008 57.478737 
L 236.16 57.478737 
L 231.240992 58.312421 
L 226.321983 57.478737 
L 221.402975 56.645053 
L 216.483967 55.811368 
L 211.564959 57.478737 
L 206.64595 57.478737 
L 201.726942 56.645053 
L 196.807934 57.478737 
L 191.888926 57.478737 
L 186.969917 57.478737 
L 182.050909 56.645053 
L 177.131901 57.478737 
L 172.212893 57.478737 
L 167.293884 57.478737 
L 162.374876 57.478737 
L 157.455868 57.478737 
L 152.53686 57.478737 
L 147.617851 57.478737 
L 142.698843 57.478737 
L 137.779835 57.478737 
L 132.860826 57.478737 
L 127.941818 57.478737 
L 123.02281 57.478737 
L 118.103802 57.478737 
L 113.184793 57.478737 
L 108.265785 57.478737 
L 103.346777 57.478737 
L 98.427769 57.478737 
L 93.50876 57.478737 
L 88.589752 57.478737 
L 83.670744 57.478737 
L 78.751736 57.478737 
L 73.832727 57.478737 
z
" clip-path="url(#p67cab8714c)" style="fill: #ff7f0e"/>
   </g>
   <g id="PolyCollection_13">
    <path d="M 73.832727 57.478737 
L 73.832727 57.478737 
L 78.751736 57.478737 
L 83.670744 57.478737 
L 88.589752 57.478737 
L 93.50876 57.478737 
L 98.427769 57.478737 
L 103.346777 57.478737 
L 108.265785 57.478737 
L 113.184793 57.478737 
L 118.103802 57.478737 
L 123.02281 57.478737 
L 127.941818 57.478737 
L 132.860826 57.478737 
L 137.779835 57.478737 
L 142.698843 57.478737 
L 147.617851 57.478737 
L 152.53686 57.478737 
L 157.455868 57.478737 
L 162.374876 57.478737 
L 167.293884 57.478737 
L 172.212893 57.478737 
L 177.131901 57.478737 
L 182.050909 56.645053 
L 186.969917 57.478737 
L 191.888926 57.478737 
L 196.807934 57.478737 
L 201.726942 56.645053 
L 206.64595 57.478737 
L 211.564959 57.478737 
L 216.483967 55.811368 
L 221.402975 56.645053 
L 226.321983 57.478737 
L 231.240992 58.312421 
L 236.16 57.478737 
L 241.079008 57.478737 
L 245.998017 57.478737 
L 250.917025 56.645053 
L 255.836033 58.312421 
L 260.755041 59.979789 
L 265.67405 59.146105 
L 270.593058 57.478737 
L 275.512066 59.146105 
L 280.431074 59.146105 
L 285.350083 58.312421 
L 290.269091 60.813474 
L 295.188099 74.152421 
L 300.107107 95.828211 
L 305.026116 98.329263 
L 309.945124 110.000842 
L 314.864132 127.508211 
L 319.78314 140.013474 
L 324.702149 130.009263 
L 329.621157 137.512421 
L 334.540165 147.516632 
L 339.459174 145.015579 
L 344.378182 144.181895 
L 349.29719 143.348211 
L 354.216198 155.019789 
L 359.135207 150.851368 
L 364.054215 155.019789 
L 368.973223 160.021895 
L 373.892231 170.859789 
L 378.81124 167.525053 
L 383.730248 187.533474 
L 388.649256 193.369263 
L 393.568264 180.864 
L 398.487273 214.211368 
L 398.487273 187.533474 
L 398.487273 187.533474 
L 393.568264 148.350316 
L 388.649256 162.522947 
L 383.730248 160.855579 
L 378.81124 141.680842 
L 373.892231 137.512421 
L 368.973223 124.173474 
L 364.054215 121.672421 
L 359.135207 123.339789 
L 354.216198 126.674526 
L 349.29719 121.672421 
L 344.378182 120.005053 
L 339.459174 119.171368 
L 334.540165 120.838737 
L 329.621157 114.169263 
L 324.702149 113.335579 
L 319.78314 99.162947 
L 314.864132 89.158737 
L 309.945124 79.154526 
L 305.026116 77.487158 
L 300.107107 77.487158 
L 295.188099 59.979789 
L 290.269091 57.478737 
L 285.350083 58.312421 
L 280.431074 59.146105 
L 275.512066 59.146105 
L 270.593058 57.478737 
L 265.67405 59.146105 
L 260.755041 59.979789 
L 255.836033 58.312421 
L 250.917025 56.645053 
L 245.998017 57.478737 
L 241.079008 57.478737 
L 236.16 57.478737 
L 231.240992 58.312421 
L 226.321983 57.478737 
L 221.402975 56.645053 
L 216.483967 55.811368 
L 211.564959 57.478737 
L 206.64595 57.478737 
L 201.726942 56.645053 
L 196.807934 57.478737 
L 191.888926 57.478737 
L 186.969917 57.478737 
L 182.050909 56.645053 
L 177.131901 57.478737 
L 172.212893 57.478737 
L 167.293884 57.478737 
L 162.374876 57.478737 
L 157.455868 57.478737 
L 152.53686 57.478737 
L 147.617851 57.478737 
L 142.698843 57.478737 
L 137.779835 57.478737 
L 132.860826 57.478737 
L 127.941818 57.478737 
L 123.02281 57.478737 
L 118.103802 57.478737 
L 113.184793 57.478737 
L 108.265785 57.478737 
L 103.346777 57.478737 
L 98.427769 57.478737 
L 93.50876 57.478737 
L 88.589752 57.478737 
L 83.670744 57.478737 
L 78.751736 57.478737 
L 73.832727 57.478737 
z
" clip-path="url(#p67cab8714c)" style="fill: #2ca02c"/>
   </g>
   <g id="PolyCollection_14">
    <path d="M 73.832727 57.478737 
L 73.832727 57.478737 
L 78.751736 57.478737 
L 83.670744 57.478737 
L 88.589752 57.478737 
L 93.50876 57.478737 
L 98.427769 57.478737 
L 103.346777 57.478737 
L 108.265785 57.478737 
L 113.184793 57.478737 
L 118.103802 57.478737 
L 123.02281 57.478737 
L 127.941818 57.478737 
L 132.860826 57.478737 
L 137.779835 57.478737 
L 142.698843 57.478737 
L 147.617851 57.478737 
L 152.53686 57.478737 
L 157.455868 57.478737 
L 162.374876 57.478737 
L 167.293884 57.478737 
L 172.212893 57.478737 
L 177.131901 57.478737 
L 182.050909 56.645053 
L 186.969917 57.478737 
L 191.888926 57.478737 
L 196.807934 57.478737 
L 201.726942 56.645053 
L 206.64595 57.478737 
L 211.564959 57.478737 
L 216.483967 55.811368 
L 221.402975 56.645053 
L 226.321983 57.478737 
L 231.240992 58.312421 
L 236.16 57.478737 
L 241.079008 57.478737 
L 245.998017 57.478737 
L 250.917025 56.645053 
L 255.836033 58.312421 
L 260.755041 59.979789 
L 265.67405 59.146105 
L 270.593058 57.478737 
L 275.512066 59.146105 
L 280.431074 59.146105 
L 285.350083 58.312421 
L 290.269091 57.478737 
L 295.188099 59.979789 
L 300.107107 77.487158 
L 305.026116 77.487158 
L 309.945124 79.154526 
L 314.864132 89.158737 
L 319.78314 99.162947 
L 324.702149 113.335579 
L 329.621157 114.169263 
L 334.540165 120.838737 
L 339.459174 119.171368 
L 344.378182 120.005053 
L 349.29719 121.672421 
L 354.216198 126.674526 
L 359.135207 123.339789 
L 364.054215 121.672421 
L 368.973223 124.173474 
L 373.892231 137.512421 
L 378.81124 141.680842 
L 383.730248 160.855579 
L 388.649256 162.522947 
L 393.568264 148.350316 
L 398.487273 187.533474 
L 398.487273 169.192421 
L 398.487273 169.192421 
L 393.568264 131.676632 
L 388.649256 141.680842 
L 383.730248 138.346105 
L 378.81124 120.005053 
L 373.892231 117.504 
L 368.973223 101.664 
L 364.054215 99.996632 
L 359.135207 102.497684 
L 354.216198 104.998737 
L 349.29719 102.497684 
L 344.378182 99.996632 
L 339.459174 98.329263 
L 334.540165 98.329263 
L 329.621157 89.992421 
L 324.702149 80.821895 
L 319.78314 78.320842 
L 314.864132 69.984 
L 309.945124 60.813474 
L 305.026116 60.813474 
L 300.107107 59.146105 
L 295.188099 57.478737 
L 290.269091 57.478737 
L 285.350083 58.312421 
L 280.431074 59.146105 
L 275.512066 59.146105 
L 270.593058 57.478737 
L 265.67405 59.146105 
L 260.755041 59.979789 
L 255.836033 58.312421 
L 250.917025 56.645053 
L 245.998017 57.478737 
L 241.079008 57.478737 
L 236.16 57.478737 
L 231.240992 58.312421 
L 226.321983 57.478737 
L 221.402975 56.645053 
L 216.483967 55.811368 
L 211.564959 57.478737 
L 206.64595 57.478737 
L 201.726942 56.645053 
L 196.807934 57.478737 
L 191.888926 57.478737 
L 186.969917 57.478737 
L 182.050909 56.645053 
L 177.131901 57.478737 
L 172.212893 57.478737 
L 167.293884 57.478737 
L 162.374876 57.478737 
L 157.455868 57.478737 
L 152.53686 57.478737 
L 147.617851 57.478737 
L 142.698843 57.478737 
L 137.779835 57.478737 
L 132.860826 57.478737 
L 127.941818 57.478737 
L 123.02281 57.478737 
L 118.103802 57.478737 
L 113.184793 57.478737 
L 108.265785 57.478737 
L 103.346777 57.478737 
L 98.427769 57.478737 
L 93.50876 57.478737 
L 88.589752 57.478737 
L 83.670744 57.478737 
L 78.751736 57.478737 
L 73.832727 57.478737 
z
" clip-path="url(#p67cab8714c)" style="fill: #d62728"/>
   </g>
   <g id="PolyCollection_15">
    <path d="M 73.832727 57.478737 
L 73.832727 57.478737 
L 78.751736 57.478737 
L 83.670744 57.478737 
L 88.589752 57.478737 
L 93.50876 57.478737 
L 98.427769 57.478737 
L 103.346777 57.478737 
L 108.265785 57.478737 
L 113.184793 57.478737 
L 118.103802 57.478737 
L 123.02281 57.478737 
L 127.941818 57.478737 
L 132.860826 57.478737 
L 137.779835 57.478737 
L 142.698843 57.478737 
L 147.617851 57.478737 
L 152.53686 57.478737 
L 157.455868 57.478737 
L 162.374876 57.478737 
L 167.293884 57.478737 
L 172.212893 57.478737 
L 177.131901 57.478737 
L 182.050909 56.645053 
L 186.969917 57.478737 
L 191.888926 57.478737 
L 196.807934 57.478737 
L 201.726942 56.645053 
L 206.64595 57.478737 
L 211.564959 57.478737 
L 216.483967 55.811368 
L 221.402975 56.645053 
L 226.321983 57.478737 
L 231.240992 58.312421 
L 236.16 57.478737 
L 241.079008 57.478737 
L 245.998017 57.478737 
L 250.917025 56.645053 
L 255.836033 58.312421 
L 260.755041 59.979789 
L 265.67405 59.146105 
L 270.593058 57.478737 
L 275.512066 59.146105 
L 280.431074 59.146105 
L 285.350083 58.312421 
L 290.269091 57.478737 
L 295.188099 57.478737 
L 300.107107 59.146105 
L 305.026116 60.813474 
L 309.945124 60.813474 
L 314.864132 69.984 
L 319.78314 78.320842 
L 324.702149 80.821895 
L 329.621157 89.992421 
L 334.540165 98.329263 
L 339.459174 98.329263 
L 344.378182 99.996632 
L 349.29719 102.497684 
L 354.216198 104.998737 
L 359.135207 102.497684 
L 364.054215 99.996632 
L 368.973223 101.664 
L 373.892231 117.504 
L 378.81124 120.005053 
L 383.730248 138.346105 
L 388.649256 141.680842 
L 393.568264 131.676632 
L 398.487273 169.192421 
L 398.487273 153.352421 
L 398.487273 153.352421 
L 393.568264 120.005053 
L 388.649256 123.339789 
L 383.730248 115.002947 
L 378.81124 98.329263 
L 373.892231 94.160842 
L 368.973223 79.154526 
L 364.054215 77.487158 
L 359.135207 80.821895 
L 354.216198 82.489263 
L 349.29719 82.489263 
L 344.378182 79.154526 
L 339.459174 78.320842 
L 334.540165 79.154526 
L 329.621157 72.485053 
L 324.702149 66.649263 
L 319.78314 60.813474 
L 314.864132 58.312421 
L 309.945124 59.146105 
L 305.026116 60.813474 
L 300.107107 59.146105 
L 295.188099 57.478737 
L 290.269091 57.478737 
L 285.350083 58.312421 
L 280.431074 59.146105 
L 275.512066 59.146105 
L 270.593058 57.478737 
L 265.67405 59.146105 
L 260.755041 59.979789 
L 255.836033 58.312421 
L 250.917025 56.645053 
L 245.998017 57.478737 
L 241.079008 57.478737 
L 236.16 57.478737 
L 231.240992 58.312421 
L 226.321983 57.478737 
L 221.402975 56.645053 
L 216.483967 55.811368 
L 211.564959 57.478737 
L 206.64595 57.478737 
L 201.726942 56.645053 
L 196.807934 57.478737 
L 191.888926 57.478737 
L 186.969917 57.478737 
L 182.050909 56.645053 
L 177.131901 57.478737 
L 172.212893 57.478737 
L 167.293884 57.478737 
L 162.374876 57.478737 
L 157.455868 57.478737 
L 152.53686 57.478737 
L 147.617851 57.478737 
L 142.698843 57.478737 
L 137.779835 57.478737 
L 132.860826 57.478737 
L 127.941818 57.478737 
L 123.02281 57.478737 
L 118.103802 57.478737 
L 113.184793 57.478737 
L 108.265785 57.478737 
L 103.346777 57.478737 
L 98.427769 57.478737 
L 93.50876 57.478737 
L 88.589752 57.478737 
L 83.670744 57.478737 
L 78.751736 57.478737 
L 73.832727 57.478737 
z
" clip-path="url(#p67cab8714c)" style="fill: #9467bd"/>
   </g>
   <g id="PolyCollection_16">
    <path d="M 73.832727 57.478737 
L 73.832727 57.478737 
L 78.751736 57.478737 
L 83.670744 57.478737 
L 88.589752 57.478737 
L 93.50876 57.478737 
L 98.427769 57.478737 
L 103.346777 57.478737 
L 108.265785 57.478737 
L 113.184793 57.478737 
L 118.103802 57.478737 
L 123.02281 57.478737 
L 127.941818 57.478737 
L 132.860826 57.478737 
L 137.779835 57.478737 
L 142.698843 57.478737 
L 147.617851 57.478737 
L 152.53686 57.478737 
L 157.455868 57.478737 
L 162.374876 57.478737 
L 167.293884 57.478737 
L 172.212893 57.478737 
L 177.131901 57.478737 
L 182.050909 56.645053 
L 186.969917 57.478737 
L 191.888926 57.478737 
L 196.807934 57.478737 
L 201.726942 56.645053 
L 206.64595 57.478737 
L 211.564959 57.478737 
L 216.483967 55.811368 
L 221.402975 56.645053 
L 226.321983 57.478737 
L 231.240992 58.312421 
L 236.16 57.478737 
L 241.079008 57.478737 
L 245.998017 57.478737 
L 250.917025 56.645053 
L 255.836033 58.312421 
L 260.755041 59.979789 
L 265.67405 59.146105 
L 270.593058 57.478737 
L 275.512066 59.146105 
L 280.431074 59.146105 
L 285.350083 58.312421 
L 290.269091 57.478737 
L 295.188099 57.478737 
L 300.107107 59.146105 
L 305.026116 60.813474 
L 309.945124 59.146105 
L 314.864132 58.312421 
L 319.78314 60.813474 
L 324.702149 66.649263 
L 329.621157 72.485053 
L 334.540165 79.154526 
L 339.459174 78.320842 
L 344.378182 79.154526 
L 349.29719 82.489263 
L 354.216198 82.489263 
L 359.135207 80.821895 
L 364.054215 77.487158 
L 368.973223 79.154526 
L 373.892231 94.160842 
L 378.81124 98.329263 
L 383.730248 115.002947 
L 388.649256 123.339789 
L 393.568264 120.005053 
L 398.487273 153.352421 
L 398.487273 131.676632 
L 398.487273 131.676632 
L 393.568264 95.828211 
L 388.649256 104.998737 
L 383.730248 96.661895 
L 378.81124 74.986105 
L 373.892231 69.984 
L 368.973223 56.645053 
L 364.054215 54.977684 
L 359.135207 57.478737 
L 354.216198 58.312421 
L 349.29719 59.979789 
L 344.378182 56.645053 
L 339.459174 55.811368 
L 334.540165 56.645053 
L 329.621157 55.811368 
L 324.702149 54.144 
L 319.78314 59.146105 
L 314.864132 58.312421 
L 309.945124 59.146105 
L 305.026116 60.813474 
L 300.107107 59.146105 
L 295.188099 57.478737 
L 290.269091 57.478737 
L 285.350083 58.312421 
L 280.431074 59.146105 
L 275.512066 59.146105 
L 270.593058 57.478737 
L 265.67405 59.146105 
L 260.755041 59.979789 
L 255.836033 58.312421 
L 250.917025 56.645053 
L 245.998017 57.478737 
L 241.079008 57.478737 
L 236.16 57.478737 
L 231.240992 58.312421 
L 226.321983 57.478737 
L 221.402975 56.645053 
L 216.483967 55.811368 
L 211.564959 57.478737 
L 206.64595 57.478737 
L 201.726942 56.645053 
L 196.807934 57.478737 
L 191.888926 57.478737 
L 186.969917 57.478737 
L 182.050909 56.645053 
L 177.131901 57.478737 
L 172.212893 57.478737 
L 167.293884 57.478737 
L 162.374876 57.478737 
L 157.455868 57.478737 
L 152.53686 57.478737 
L 147.617851 57.478737 
L 142.698843 57.478737 
L 137.779835 57.478737 
L 132.860826 57.478737 
L 127.941818 57.478737 
L 123.02281 57.478737 
L 118.103802 57.478737 
L 113.184793 57.478737 
L 108.265785 57.478737 
L 103.346777 57.478737 
L 98.427769 57.478737 
L 93.50876 57.478737 
L 88.589752 57.478737 
L 83.670744 57.478737 
L 78.751736 57.478737 
L 73.832727 57.478737 
z
" clip-path="url(#p67cab8714c)" style="fill: #8c564b"/>
   </g>
   <g id="PolyCollection_17">
    <path d="M 73.832727 57.478737 
L 73.832727 57.478737 
L 78.751736 57.478737 
L 83.670744 57.478737 
L 88.589752 57.478737 
L 93.50876 57.478737 
L 98.427769 57.478737 
L 103.346777 57.478737 
L 108.265785 57.478737 
L 113.184793 57.478737 
L 118.103802 57.478737 
L 123.02281 57.478737 
L 127.941818 57.478737 
L 132.860826 57.478737 
L 137.779835 57.478737 
L 142.698843 57.478737 
L 147.617851 57.478737 
L 152.53686 57.478737 
L 157.455868 57.478737 
L 162.374876 57.478737 
L 167.293884 57.478737 
L 172.212893 57.478737 
L 177.131901 57.478737 
L 182.050909 56.645053 
L 186.969917 57.478737 
L 191.888926 57.478737 
L 196.807934 57.478737 
L 201.726942 56.645053 
L 206.64595 57.478737 
L 211.564959 57.478737 
L 216.483967 55.811368 
L 221.402975 56.645053 
L 226.321983 57.478737 
L 231.240992 58.312421 
L 236.16 57.478737 
L 241.079008 57.478737 
L 245.998017 57.478737 
L 250.917025 56.645053 
L 255.836033 58.312421 
L 260.755041 59.979789 
L 265.67405 59.146105 
L 270.593058 57.478737 
L 275.512066 59.146105 
L 280.431074 59.146105 
L 285.350083 58.312421 
L 290.269091 57.478737 
L 295.188099 57.478737 
L 300.107107 59.146105 
L 305.026116 60.813474 
L 309.945124 59.146105 
L 314.864132 58.312421 
L 319.78314 59.146105 
L 324.702149 54.144 
L 329.621157 55.811368 
L 334.540165 56.645053 
L 339.459174 55.811368 
L 344.378182 56.645053 
L 349.29719 59.979789 
L 354.216198 58.312421 
L 359.135207 57.478737 
L 364.054215 54.977684 
L 368.973223 56.645053 
L 373.892231 69.984 
L 378.81124 74.986105 
L 383.730248 96.661895 
L 388.649256 104.998737 
L 393.568264 95.828211 
L 398.487273 131.676632 
L 398.487273 114.169263 
L 398.487273 114.169263 
L 393.568264 80.821895 
L 388.649256 84.156632 
L 383.730248 78.320842 
L 378.81124 57.478737 
L 373.892231 56.645053 
L 368.973223 54.144 
L 364.054215 54.977684 
L 359.135207 57.478737 
L 354.216198 58.312421 
L 349.29719 59.979789 
L 344.378182 56.645053 
L 339.459174 55.811368 
L 334.540165 56.645053 
L 329.621157 55.811368 
L 324.702149 54.144 
L 319.78314 59.146105 
L 314.864132 58.312421 
L 309.945124 59.146105 
L 305.026116 60.813474 
L 300.107107 59.146105 
L 295.188099 57.478737 
L 290.269091 57.478737 
L 285.350083 58.312421 
L 280.431074 59.146105 
L 275.512066 59.146105 
L 270.593058 57.478737 
L 265.67405 59.146105 
L 260.755041 59.979789 
L 255.836033 58.312421 
L 250.917025 56.645053 
L 245.998017 57.478737 
L 241.079008 57.478737 
L 236.16 57.478737 
L 231.240992 58.312421 
L 226.321983 57.478737 
L 221.402975 56.645053 
L 216.483967 55.811368 
L 211.564959 57.478737 
L 206.64595 57.478737 
L 201.726942 56.645053 
L 196.807934 57.478737 
L 191.888926 57.478737 
L 186.969917 57.478737 
L 182.050909 56.645053 
L 177.131901 57.478737 
L 172.212893 57.478737 
L 167.293884 57.478737 
L 162.374876 57.478737 
L 157.455868 57.478737 
L 152.53686 57.478737 
L 147.617851 57.478737 
L 142.698843 57.478737 
L 137.779835 57.478737 
L 132.860826 57.478737 
L 127.941818 57.478737 
L 123.02281 57.478737 
L 118.103802 57.478737 
L 113.184793 57.478737 
L 108.265785 57.478737 
L 103.346777 57.478737 
L 98.427769 57.478737 
L 93.50876 57.478737 
L 88.589752 57.478737 
L 83.670744 57.478737 
L 78.751736 57.478737 
L 73.832727 57.478737 
z
" clip-path="url(#p67cab8714c)" style="fill: #e377c2"/>
   </g>
   <g id="PolyCollection_18">
    <path d="M 73.832727 57.478737 
L 73.832727 57.478737 
L 78.751736 57.478737 
L 83.670744 57.478737 
L 88.589752 57.478737 
L 93.50876 57.478737 
L 98.427769 57.478737 
L 103.346777 57.478737 
L 108.265785 57.478737 
L 113.184793 57.478737 
L 118.103802 57.478737 
L 123.02281 57.478737 
L 127.941818 57.478737 
L 132.860826 57.478737 
L 137.779835 57.478737 
L 142.698843 57.478737 
L 147.617851 57.478737 
L 152.53686 57.478737 
L 157.455868 57.478737 
L 162.374876 57.478737 
L 167.293884 57.478737 
L 172.212893 57.478737 
L 177.131901 57.478737 
L 182.050909 56.645053 
L 186.969917 57.478737 
L 191.888926 57.478737 
L 196.807934 57.478737 
L 201.726942 56.645053 
L 206.64595 57.478737 
L 211.564959 57.478737 
L 216.483967 55.811368 
L 221.402975 56.645053 
L 226.321983 57.478737 
L 231.240992 58.312421 
L 236.16 57.478737 
L 241.079008 57.478737 
L 245.998017 57.478737 
L 250.917025 56.645053 
L 255.836033 58.312421 
L 260.755041 59.979789 
L 265.67405 59.146105 
L 270.593058 57.478737 
L 275.512066 59.146105 
L 280.431074 59.146105 
L 285.350083 58.312421 
L 290.269091 57.478737 
L 295.188099 57.478737 
L 300.107107 59.146105 
L 305.026116 60.813474 
L 309.945124 59.146105 
L 314.864132 58.312421 
L 319.78314 59.146105 
L 324.702149 54.144 
L 329.621157 55.811368 
L 334.540165 56.645053 
L 339.459174 55.811368 
L 344.378182 56.645053 
L 349.29719 59.979789 
L 354.216198 58.312421 
L 359.135207 57.478737 
L 364.054215 54.977684 
L 368.973223 54.144 
L 373.892231 56.645053 
L 378.81124 57.478737 
L 383.730248 78.320842 
L 388.649256 84.156632 
L 393.568264 80.821895 
L 398.487273 114.169263 
L 398.487273 99.996632 
L 398.487273 99.996632 
L 393.568264 71.651368 
L 388.649256 71.651368 
L 383.730248 74.152421 
L 378.81124 57.478737 
L 373.892231 56.645053 
L 368.973223 54.144 
L 364.054215 54.977684 
L 359.135207 57.478737 
L 354.216198 58.312421 
L 349.29719 59.979789 
L 344.378182 56.645053 
L 339.459174 55.811368 
L 334.540165 56.645053 
L 329.621157 55.811368 
L 324.702149 54.144 
L 319.78314 59.146105 
L 314.864132 58.312421 
L 309.945124 59.146105 
L 305.026116 60.813474 
L 300.107107 59.146105 
L 295.188099 57.478737 
L 290.269091 57.478737 
L 285.350083 58.312421 
L 280.431074 59.146105 
L 275.512066 59.146105 
L 270.593058 57.478737 
L 265.67405 59.146105 
L 260.755041 59.979789 
L 255.836033 58.312421 
L 250.917025 56.645053 
L 245.998017 57.478737 
L 241.079008 57.478737 
L 236.16 57.478737 
L 231.240992 58.312421 
L 226.321983 57.478737 
L 221.402975 56.645053 
L 216.483967 55.811368 
L 211.564959 57.478737 
L 206.64595 57.478737 
L 201.726942 56.645053 
L 196.807934 57.478737 
L 191.888926 57.478737 
L 186.969917 57.478737 
L 182.050909 56.645053 
L 177.131901 57.478737 
L 172.212893 57.478737 
L 167.293884 57.478737 
L 162.374876 57.478737 
L 157.455868 57.478737 
L 152.53686 57.478737 
L 147.617851 57.478737 
L 142.698843 57.478737 
L 137.779835 57.478737 
L 132.860826 57.478737 
L 127.941818 57.478737 
L 123.02281 57.478737 
L 118.103802 57.478737 
L 113.184793 57.478737 
L 108.265785 57.478737 
L 103.346777 57.478737 
L 98.427769 57.478737 
L 93.50876 57.478737 
L 88.589752 57.478737 
L 83.670744 57.478737 
L 78.751736 57.478737 
L 73.832727 57.478737 
z
" clip-path="url(#p67cab8714c)" style="fill: #7f7f7f"/>
   </g>
   <g id="PolyCollection_19">
    <path d="M 73.832727 57.478737 
L 73.832727 57.478737 
L 78.751736 57.478737 
L 83.670744 57.478737 
L 88.589752 57.478737 
L 93.50876 57.478737 
L 98.427769 57.478737 
L 103.346777 57.478737 
L 108.265785 57.478737 
L 113.184793 57.478737 
L 118.103802 57.478737 
L 123.02281 57.478737 
L 127.941818 57.478737 
L 132.860826 57.478737 
L 137.779835 57.478737 
L 142.698843 57.478737 
L 147.617851 57.478737 
L 152.53686 57.478737 
L 157.455868 57.478737 
L 162.374876 57.478737 
L 167.293884 57.478737 
L 172.212893 57.478737 
L 177.131901 57.478737 
L 182.050909 56.645053 
L 186.969917 57.478737 
L 191.888926 57.478737 
L 196.807934 57.478737 
L 201.726942 56.645053 
L 206.64595 57.478737 
L 211.564959 57.478737 
L 216.483967 55.811368 
L 221.402975 56.645053 
L 226.321983 57.478737 
L 231.240992 58.312421 
L 236.16 57.478737 
L 241.079008 57.478737 
L 245.998017 57.478737 
L 250.917025 56.645053 
L 255.836033 58.312421 
L 260.755041 59.979789 
L 265.67405 59.146105 
L 270.593058 57.478737 
L 275.512066 59.146105 
L 280.431074 59.146105 
L 285.350083 58.312421 
L 290.269091 57.478737 
L 295.188099 57.478737 
L 300.107107 59.146105 
L 305.026116 60.813474 
L 309.945124 59.146105 
L 314.864132 58.312421 
L 319.78314 59.146105 
L 324.702149 54.144 
L 329.621157 55.811368 
L 334.540165 56.645053 
L 339.459174 55.811368 
L 344.378182 56.645053 
L 349.29719 59.979789 
L 354.216198 58.312421 
L 359.135207 57.478737 
L 364.054215 54.977684 
L 368.973223 54.144 
L 373.892231 56.645053 
L 378.81124 57.478737 
L 383.730248 74.152421 
L 388.649256 71.651368 
L 393.568264 71.651368 
L 398.487273 99.996632 
L 398.487273 84.990316 
L 398.487273 84.990316 
L 393.568264 60.813474 
L 388.649256 56.645053 
L 383.730248 58.312421 
L 378.81124 57.478737 
L 373.892231 56.645053 
L 368.973223 54.144 
L 364.054215 54.977684 
L 359.135207 57.478737 
L 354.216198 58.312421 
L 349.29719 59.979789 
L 344.378182 56.645053 
L 339.459174 55.811368 
L 334.540165 56.645053 
L 329.621157 55.811368 
L 324.702149 54.144 
L 319.78314 59.146105 
L 314.864132 58.312421 
L 309.945124 59.146105 
L 305.026116 60.813474 
L 300.107107 59.146105 
L 295.188099 57.478737 
L 290.269091 57.478737 
L 285.350083 58.312421 
L 280.431074 59.146105 
L 275.512066 59.146105 
L 270.593058 57.478737 
L 265.67405 59.146105 
L 260.755041 59.979789 
L 255.836033 58.312421 
L 250.917025 56.645053 
L 245.998017 57.478737 
L 241.079008 57.478737 
L 236.16 57.478737 
L 231.240992 58.312421 
L 226.321983 57.478737 
L 221.402975 56.645053 
L 216.483967 55.811368 
L 211.564959 57.478737 
L 206.64595 57.478737 
L 201.726942 56.645053 
L 196.807934 57.478737 
L 191.888926 57.478737 
L 186.969917 57.478737 
L 182.050909 56.645053 
L 177.131901 57.478737 
L 172.212893 57.478737 
L 167.293884 57.478737 
L 162.374876 57.478737 
L 157.455868 57.478737 
L 152.53686 57.478737 
L 147.617851 57.478737 
L 142.698843 57.478737 
L 137.779835 57.478737 
L 132.860826 57.478737 
L 127.941818 57.478737 
L 123.02281 57.478737 
L 118.103802 57.478737 
L 113.184793 57.478737 
L 108.265785 57.478737 
L 103.346777 57.478737 
L 98.427769 57.478737 
L 93.50876 57.478737 
L 88.589752 57.478737 
L 83.670744 57.478737 
L 78.751736 57.478737 
L 73.832727 57.478737 
z
" clip-path="url(#p67cab8714c)" style="fill: #bcbd22"/>
   </g>
   <g id="PolyCollection_20">
    <path d="M 73.832727 57.478737 
L 73.832727 57.478737 
L 78.751736 57.478737 
L 83.670744 57.478737 
L 88.589752 57.478737 
L 93.50876 57.478737 
L 98.427769 57.478737 
L 103.346777 57.478737 
L 108.265785 57.478737 
L 113.184793 57.478737 
L 118.103802 57.478737 
L 123.02281 57.478737 
L 127.941818 57.478737 
L 132.860826 57.478737 
L 137.779835 57.478737 
L 142.698843 57.478737 
L 147.617851 57.478737 
L 152.53686 57.478737 
L 157.455868 57.478737 
L 162.374876 57.478737 
L 167.293884 57.478737 
L 172.212893 57.478737 
L 177.131901 57.478737 
L 182.050909 56.645053 
L 186.969917 57.478737 
L 191.888926 57.478737 
L 196.807934 57.478737 
L 201.726942 56.645053 
L 206.64595 57.478737 
L 211.564959 57.478737 
L 216.483967 55.811368 
L 221.402975 56.645053 
L 226.321983 57.478737 
L 231.240992 58.312421 
L 236.16 57.478737 
L 241.079008 57.478737 
L 245.998017 57.478737 
L 250.917025 56.645053 
L 255.836033 58.312421 
L 260.755041 59.979789 
L 265.67405 59.146105 
L 270.593058 57.478737 
L 275.512066 59.146105 
L 280.431074 59.146105 
L 285.350083 58.312421 
L 290.269091 57.478737 
L 295.188099 57.478737 
L 300.107107 59.146105 
L 305.026116 60.813474 
L 309.945124 59.146105 
L 314.864132 58.312421 
L 319.78314 59.146105 
L 324.702149 54.144 
L 329.621157 55.811368 
L 334.540165 56.645053 
L 339.459174 55.811368 
L 344.378182 56.645053 
L 349.29719 59.979789 
L 354.216198 58.312421 
L 359.135207 57.478737 
L 364.054215 54.977684 
L 368.973223 54.144 
L 373.892231 56.645053 
L 378.81124 57.478737 
L 383.730248 58.312421 
L 388.649256 56.645053 
L 393.568264 60.813474 
L 398.487273 84.990316 
L 398.487273 75.819789 
L 398.487273 75.819789 
L 393.568264 57.478737 
L 388.649256 56.645053 
L 383.730248 58.312421 
L 378.81124 57.478737 
L 373.892231 56.645053 
L 368.973223 54.144 
L 364.054215 54.977684 
L 359.135207 57.478737 
L 354.216198 58.312421 
L 349.29719 59.979789 
L 344.378182 56.645053 
L 339.459174 55.811368 
L 334.540165 56.645053 
L 329.621157 55.811368 
L 324.702149 54.144 
L 319.78314 59.146105 
L 314.864132 58.312421 
L 309.945124 59.146105 
L 305.026116 60.813474 
L 300.107107 59.146105 
L 295.188099 57.478737 
L 290.269091 57.478737 
L 285.350083 58.312421 
L 280.431074 59.146105 
L 275.512066 59.146105 
L 270.593058 57.478737 
L 265.67405 59.146105 
L 260.755041 59.979789 
L 255.836033 58.312421 
L 250.917025 56.645053 
L 245.998017 57.478737 
L 241.079008 57.478737 
L 236.16 57.478737 
L 231.240992 58.312421 
L 226.321983 57.478737 
L 221.402975 56.645053 
L 216.483967 55.811368 
L 211.564959 57.478737 
L 206.64595 57.478737 
L 201.726942 56.645053 
L 196.807934 57.478737 
L 191.888926 57.478737 
L 186.969917 57.478737 
L 182.050909 56.645053 
L 177.131901 57.478737 
L 172.212893 57.478737 
L 167.293884 57.478737 
L 162.374876 57.478737 
L 157.455868 57.478737 
L 152.53686 57.478737 
L 147.617851 57.478737 
L 142.698843 57.478737 
L 137.779835 57.478737 
L 132.860826 57.478737 
L 127.941818 57.478737 
L 123.02281 57.478737 
L 118.103802 57.478737 
L 113.184793 57.478737 
L 108.265785 57.478737 
L 103.346777 57.478737 
L 98.427769 57.478737 
L 93.50876 57.478737 
L 88.589752 57.478737 
L 83.670744 57.478737 
L 78.751736 57.478737 
L 73.832727 57.478737 
z
" clip-path="url(#p67cab8714c)" style="fill: #17becf"/>
   </g>
   <g id="PolyCollection_21">
    <path d="M 73.832727 57.478737 
L 73.832727 57.478737 
L 78.751736 57.478737 
L 83.670744 57.478737 
L 88.589752 57.478737 
L 93.50876 57.478737 
L 98.427769 57.478737 
L 103.346777 57.478737 
L 108.265785 57.478737 
L 113.184793 57.478737 
L 118.103802 57.478737 
L 123.02281 57.478737 
L 127.941818 57.478737 
L 132.860826 57.478737 
L 137.779835 57.478737 
L 142.698843 57.478737 
L 147.617851 57.478737 
L 152.53686 57.478737 
L 157.455868 57.478737 
L 162.374876 57.478737 
L 167.293884 57.478737 
L 172.212893 57.478737 
L 177.131901 57.478737 
L 182.050909 56.645053 
L 186.969917 57.478737 
L 191.888926 57.478737 
L 196.807934 57.478737 
L 201.726942 56.645053 
L 206.64595 57.478737 
L 211.564959 57.478737 
L 216.483967 55.811368 
L 221.402975 56.645053 
L 226.321983 57.478737 
L 231.240992 58.312421 
L 236.16 57.478737 
L 241.079008 57.478737 
L 245.998017 57.478737 
L 250.917025 56.645053 
L 255.836033 58.312421 
L 260.755041 59.979789 
L 265.67405 59.146105 
L 270.593058 57.478737 
L 275.512066 59.146105 
L 280.431074 59.146105 
L 285.350083 58.312421 
L 290.269091 57.478737 
L 295.188099 57.478737 
L 300.107107 59.146105 
L 305.026116 60.813474 
L 309.945124 59.146105 
L 314.864132 58.312421 
L 319.78314 59.146105 
L 324.702149 54.144 
L 329.621157 55.811368 
L 334.540165 56.645053 
L 339.459174 55.811368 
L 344.378182 56.645053 
L 349.29719 59.979789 
L 354.216198 58.312421 
L 359.135207 57.478737 
L 364.054215 54.977684 
L 368.973223 54.144 
L 373.892231 56.645053 
L 378.81124 57.478737 
L 383.730248 58.312421 
L 388.649256 56.645053 
L 393.568264 57.478737 
L 398.487273 75.819789 
L 398.487273 65.815579 
L 398.487273 65.815579 
L 393.568264 54.977684 
L 388.649256 56.645053 
L 383.730248 58.312421 
L 378.81124 57.478737 
L 373.892231 56.645053 
L 368.973223 54.144 
L 364.054215 54.977684 
L 359.135207 57.478737 
L 354.216198 58.312421 
L 349.29719 59.979789 
L 344.378182 56.645053 
L 339.459174 55.811368 
L 334.540165 56.645053 
L 329.621157 55.811368 
L 324.702149 54.144 
L 319.78314 59.146105 
L 314.864132 58.312421 
L 309.945124 59.146105 
L 305.026116 60.813474 
L 300.107107 59.146105 
L 295.188099 57.478737 
L 290.269091 57.478737 
L 285.350083 58.312421 
L 280.431074 59.146105 
L 275.512066 59.146105 
L 270.593058 57.478737 
L 265.67405 59.146105 
L 260.755041 59.979789 
L 255.836033 58.312421 
L 250.917025 56.645053 
L 245.998017 57.478737 
L 241.079008 57.478737 
L 236.16 57.478737 
L 231.240992 58.312421 
L 226.321983 57.478737 
L 221.402975 56.645053 
L 216.483967 55.811368 
L 211.564959 57.478737 
L 206.64595 57.478737 
L 201.726942 56.645053 
L 196.807934 57.478737 
L 191.888926 57.478737 
L 186.969917 57.478737 
L 182.050909 56.645053 
L 177.131901 57.478737 
L 172.212893 57.478737 
L 167.293884 57.478737 
L 162.374876 57.478737 
L 157.455868 57.478737 
L 152.53686 57.478737 
L 147.617851 57.478737 
L 142.698843 57.478737 
L 137.779835 57.478737 
L 132.860826 57.478737 
L 127.941818 57.478737 
L 123.02281 57.478737 
L 118.103802 57.478737 
L 113.184793 57.478737 
L 108.265785 57.478737 
L 103.346777 57.478737 
L 98.427769 57.478737 
L 93.50876 57.478737 
L 88.589752 57.478737 
L 83.670744 57.478737 
L 78.751736 57.478737 
L 73.832727 57.478737 
z
" clip-path="url(#p67cab8714c)" style="fill: #1f77b4"/>
   </g>
   <g id="PolyCollection_22">
    <path d="M 73.832727 57.478737 
L 73.832727 57.478737 
L 78.751736 57.478737 
L 83.670744 57.478737 
L 88.589752 57.478737 
L 93.50876 57.478737 
L 98.427769 57.478737 
L 103.346777 57.478737 
L 108.265785 57.478737 
L 113.184793 57.478737 
L 118.103802 57.478737 
L 123.02281 57.478737 
L 127.941818 57.478737 
L 132.860826 57.478737 
L 137.779835 57.478737 
L 142.698843 57.478737 
L 147.617851 57.478737 
L 152.53686 57.478737 
L 157.455868 57.478737 
L 162.374876 57.478737 
L 167.293884 57.478737 
L 172.212893 57.478737 
L 177.131901 57.478737 
L 182.050909 56.645053 
L 186.969917 57.478737 
L 191.888926 57.478737 
L 196.807934 57.478737 
L 201.726942 56.645053 
L 206.64595 57.478737 
L 211.564959 57.478737 
L 216.483967 55.811368 
L 221.402975 56.645053 
L 226.321983 57.478737 
L 231.240992 58.312421 
L 236.16 57.478737 
L 241.079008 57.478737 
L 245.998017 57.478737 
L 250.917025 56.645053 
L 255.836033 58.312421 
L 260.755041 59.979789 
L 265.67405 59.146105 
L 270.593058 57.478737 
L 275.512066 59.146105 
L 280.431074 59.146105 
L 285.350083 58.312421 
L 290.269091 57.478737 
L 295.188099 57.478737 
L 300.107107 59.146105 
L 305.026116 60.813474 
L 309.945124 59.146105 
L 314.864132 58.312421 
L 319.78314 59.146105 
L 324.702149 54.144 
L 329.621157 55.811368 
L 334.540165 56.645053 
L 339.459174 55.811368 
L 344.378182 56.645053 
L 349.29719 59.979789 
L 354.216198 58.312421 
L 359.135207 57.478737 
L 364.054215 54.977684 
L 368.973223 54.144 
L 373.892231 56.645053 
L 378.81124 57.478737 
L 383.730248 58.312421 
L 388.649256 56.645053 
L 393.568264 54.977684 
L 398.487273 65.815579 
L 398.487273 62.480842 
L 398.487273 62.480842 
L 393.568264 54.977684 
L 388.649256 56.645053 
L 383.730248 58.312421 
L 378.81124 57.478737 
L 373.892231 56.645053 
L 368.973223 54.144 
L 364.054215 54.977684 
L 359.135207 57.478737 
L 354.216198 58.312421 
L 349.29719 59.979789 
L 344.378182 56.645053 
L 339.459174 55.811368 
L 334.540165 56.645053 
L 329.621157 55.811368 
L 324.702149 54.144 
L 319.78314 59.146105 
L 314.864132 58.312421 
L 309.945124 59.146105 
L 305.026116 60.813474 
L 300.107107 59.146105 
L 295.188099 57.478737 
L 290.269091 57.478737 
L 285.350083 58.312421 
L 280.431074 59.146105 
L 275.512066 59.146105 
L 270.593058 57.478737 
L 265.67405 59.146105 
L 260.755041 59.979789 
L 255.836033 58.312421 
L 250.917025 56.645053 
L 245.998017 57.478737 
L 241.079008 57.478737 
L 236.16 57.478737 
L 231.240992 58.312421 
L 226.321983 57.478737 
L 221.402975 56.645053 
L 216.483967 55.811368 
L 211.564959 57.478737 
L 206.64595 57.478737 
L 201.726942 56.645053 
L 196.807934 57.478737 
L 191.888926 57.478737 
L 186.969917 57.478737 
L 182.050909 56.645053 
L 177.131901 57.478737 
L 172.212893 57.478737 
L 167.293884 57.478737 
L 162.374876 57.478737 
L 157.455868 57.478737 
L 152.53686 57.478737 
L 147.617851 57.478737 
L 142.698843 57.478737 
L 137.779835 57.478737 
L 132.860826 57.478737 
L 127.941818 57.478737 
L 123.02281 57.478737 
L 118.103802 57.478737 
L 113.184793 57.478737 
L 108.265785 57.478737 
L 103.346777 57.478737 
L 98.427769 57.478737 
L 93.50876 57.478737 
L 88.589752 57.478737 
L 83.670744 57.478737 
L 78.751736 57.478737 
L 73.832727 57.478737 
z
" clip-path="url(#p67cab8714c)" style="fill: #ff7f0e"/>
   </g>
   <g id="PolyCollection_23">
    <path d="M 73.832727 57.478737 
L 73.832727 57.478737 
L 78.751736 57.478737 
L 83.670744 57.478737 
L 88.589752 57.478737 
L 93.50876 57.478737 
L 98.427769 57.478737 
L 103.346777 57.478737 
L 108.265785 57.478737 
L 113.184793 57.478737 
L 118.103802 57.478737 
L 123.02281 57.478737 
L 127.941818 57.478737 
L 132.860826 57.478737 
L 137.779835 57.478737 
L 142.698843 57.478737 
L 147.617851 57.478737 
L 152.53686 57.478737 
L 157.455868 57.478737 
L 162.374876 57.478737 
L 167.293884 57.478737 
L 172.212893 57.478737 
L 177.131901 57.478737 
L 182.050909 56.645053 
L 186.969917 57.478737 
L 191.888926 57.478737 
L 196.807934 57.478737 
L 201.726942 56.645053 
L 206.64595 57.478737 
L 211.564959 57.478737 
L 216.483967 55.811368 
L 221.402975 56.645053 
L 226.321983 57.478737 
L 231.240992 58.312421 
L 236.16 57.478737 
L 241.079008 57.478737 
L 245.998017 57.478737 
L 250.917025 56.645053 
L 255.836033 58.312421 
L 260.755041 59.979789 
L 265.67405 59.146105 
L 270.593058 57.478737 
L 275.512066 59.146105 
L 280.431074 59.146105 
L 285.350083 58.312421 
L 290.269091 57.478737 
L 295.188099 57.478737 
L 300.107107 59.146105 
L 305.026116 60.813474 
L 309.945124 59.146105 
L 314.864132 58.312421 
L 319.78314 59.146105 
L 324.702149 54.144 
L 329.621157 55.811368 
L 334.540165 56.645053 
L 339.459174 55.811368 
L 344.378182 56.645053 
L 349.29719 59.979789 
L 354.216198 58.312421 
L 359.135207 57.478737 
L 364.054215 54.977684 
L 368.973223 54.144 
L 373.892231 56.645053 
L 378.81124 57.478737 
L 383.730248 58.312421 
L 388.649256 56.645053 
L 393.568264 54.977684 
L 398.487273 62.480842 
L 398.487273 56.645053 
L 398.487273 56.645053 
L 393.568264 54.977684 
L 388.649256 56.645053 
L 383.730248 58.312421 
L 378.81124 57.478737 
L 373.892231 56.645053 
L 368.973223 54.144 
L 364.054215 54.977684 
L 359.135207 57.478737 
L 354.216198 58.312421 
L 349.29719 59.979789 
L 344.378182 56.645053 
L 339.459174 55.811368 
L 334.540165 56.645053 
L 329.621157 55.811368 
L 324.702149 54.144 
L 319.78314 59.146105 
L 314.864132 58.312421 
L 309.945124 59.146105 
L 305.026116 60.813474 
L 300.107107 59.146105 
L 295.188099 57.478737 
L 290.269091 57.478737 
L 285.350083 58.312421 
L 280.431074 59.146105 
L 275.512066 59.146105 
L 270.593058 57.478737 
L 265.67405 59.146105 
L 260.755041 59.979789 
L 255.836033 58.312421 
L 250.917025 56.645053 
L 245.998017 57.478737 
L 241.079008 57.478737 
L 236.16 57.478737 
L 231.240992 58.312421 
L 226.321983 57.478737 
L 221.402975 56.645053 
L 216.483967 55.811368 
L 211.564959 57.478737 
L 206.64595 57.478737 
L 201.726942 56.645053 
L 196.807934 57.478737 
L 191.888926 57.478737 
L 186.969917 57.478737 
L 182.050909 56.645053 
L 177.131901 57.478737 
L 172.212893 57.478737 
L 167.293884 57.478737 
L 162.374876 57.478737 
L 157.455868 57.478737 
L 152.53686 57.478737 
L 147.617851 57.478737 
L 142.698843 57.478737 
L 137.779835 57.478737 
L 132.860826 57.478737 
L 127.941818 57.478737 
L 123.02281 57.478737 
L 118.103802 57.478737 
L 113.184793 57.478737 
L 108.265785 57.478737 
L 103.346777 57.478737 
L 98.427769 57.478737 
L 93.50876 57.478737 
L 88.589752 57.478737 
L 83.670744 57.478737 
L 78.751736 57.478737 
L 73.832727 57.478737 
z
" clip-path="url(#p67cab8714c)" style="fill: #2ca02c"/>
   </g>
   <g id="matplotlib.axis_1">
    <g id="xtick_1">
     <g id="line2d_1">
      <defs>
       <path id="m5f422a4749" d="M 0 0 
L 0 3.5 
" style="stroke: #000000; stroke-width: 0.8"/>
      </defs>
      <g>
       <use xlink:href="#m5f422a4749" x="73.832727" y="307.584" style="stroke: #000000; stroke-width: 0.8"/>
      </g>
     </g>
     <g id="text_1">
      <!-- 0 -->
      <g transform="translate(70.651477 322.182437)scale(0.1 -0.1)">
       <defs>
        <path id="DejaVuSans-30" d="M 2034 4250 
Q 1547 4250 1301 3770 
Q 1056 3291 1056 2328 
Q 1056 1369 1301 889 
Q 1547 409 2034 409 
Q 2525 409 2770 889 
Q 3016 1369 3016 2328 
Q 3016 3291 2770 3770 
Q 2525 4250 2034 4250 
z
M 2034 4750 
Q 2819 4750 3233 4129 
Q 3647 3509 3647 2328 
Q 3647 1150 3233 529 
Q 2819 -91 2034 -91 
Q 1250 -91 836 529 
Q 422 1150 422 2328 
Q 422 3509 836 4129 
Q 1250 4750 2034 4750 
z
" transform="scale(0.015625)"/>
       </defs>
       <use xlink:href="#DejaVuSans-30"/>
      </g>
     </g>
    </g>
    <g id="xtick_2">
     <g id="line2d_2">
      <g>
       <use xlink:href="#m5f422a4749" x="123.02281" y="307.584" style="stroke: #000000; stroke-width: 0.8"/>
      </g>
     </g>
     <g id="text_2">
      <!-- 10 -->
      <g transform="translate(116.66031 322.182437)scale(0.1 -0.1)">
       <defs>
        <path id="DejaVuSans-31" d="M 794 531 
L 1825 531 
L 1825 4091 
L 703 3866 
L 703 4441 
L 1819 4666 
L 2450 4666 
L 2450 531 
L 3481 531 
L 3481 0 
L 794 0 
L 794 531 
z
" transform="scale(0.015625)"/>
       </defs>
       <use xlink:href="#DejaVuSans-31"/>
       <use xlink:href="#DejaVuSans-30" x="63.623047"/>
      </g>
     </g>
    </g>
    <g id="xtick_3">
     <g id="line2d_3">
      <g>
       <use xlink:href="#m5f422a4749" x="172.212893" y="307.584" style="stroke: #000000; stroke-width: 0.8"/>
      </g>
     </g>
     <g id="text_3">
      <!-- 20 -->
      <g transform="translate(165.850393 322.182437)scale(0.1 -0.1)">
       <defs>
        <path id="DejaVuSans-32" d="M 1228 531 
L 3431 531 
L 3431 0 
L 469 0 
L 469 531 
Q 828 903 1448 1529 
Q 2069 2156 2228 2338 
Q 2531 2678 2651 2914 
Q 2772 3150 2772 3378 
Q 2772 3750 2511 3984 
Q 2250 4219 1831 4219 
Q 1534 4219 1204 4116 
Q 875 4013 500 3803 
L 500 4441 
Q 881 4594 1212 4672 
Q 1544 4750 1819 4750 
Q 2544 4750 2975 4387 
Q 3406 4025 3406 3419 
Q 3406 3131 3298 2873 
Q 3191 2616 2906 2266 
Q 2828 2175 2409 1742 
Q 1991 1309 1228 531 
z
" transform="scale(0.015625)"/>
       </defs>
       <use xlink:href="#DejaVuSans-32"/>
       <use xlink:href="#DejaVuSans-30" x="63.623047"/>
      </g>
     </g>
    </g>
    <g id="xtick_4">
     <g id="line2d_4">
      <g>
       <use xlink:href="#m5f422a4749" x="221.402975" y="307.584" style="stroke: #000000; stroke-width: 0.8"/>
      </g>
     </g>
     <g id="text_4">
      <!-- 30 -->
      <g transform="translate(215.040475 322.182437)scale(0.1 -0.1)">
       <defs>
        <path id="DejaVuSans-33" d="M 2597 2516 
Q 3050 2419 3304 2112 
Q 3559 1806 3559 1356 
Q 3559 666 3084 287 
Q 2609 -91 1734 -91 
Q 1441 -91 1130 -33 
Q 819 25 488 141 
L 488 750 
Q 750 597 1062 519 
Q 1375 441 1716 441 
Q 2309 441 2620 675 
Q 2931 909 2931 1356 
Q 2931 1769 2642 2001 
Q 2353 2234 1838 2234 
L 1294 2234 
L 1294 2753 
L 1863 2753 
Q 2328 2753 2575 2939 
Q 2822 3125 2822 3475 
Q 2822 3834 2567 4026 
Q 2313 4219 1838 4219 
Q 1578 4219 1281 4162 
Q 984 4106 628 3988 
L 628 4550 
Q 988 4650 1302 4700 
Q 1616 4750 1894 4750 
Q 2613 4750 3031 4423 
Q 3450 4097 3450 3541 
Q 3450 3153 3228 2886 
Q 3006 2619 2597 2516 
z
" transform="scale(0.015625)"/>
       </defs>
       <use xlink:href="#DejaVuSans-33"/>
       <use xlink:href="#DejaVuSans-30" x="63.623047"/>
      </g>
     </g>
    </g>
    <g id="xtick_5">
     <g id="line2d_5">
      <g>
       <use xlink:href="#m5f422a4749" x="270.593058" y="307.584" style="stroke: #000000; stroke-width: 0.8"/>
      </g>
     </g>
     <g id="text_5">
      <!-- 40 -->
      <g transform="translate(264.230558 322.182437)scale(0.1 -0.1)">
       <defs>
        <path id="DejaVuSans-34" d="M 2419 4116 
L 825 1625 
L 2419 1625 
L 2419 4116 
z
M 2253 4666 
L 3047 4666 
L 3047 1625 
L 3713 1625 
L 3713 1100 
L 3047 1100 
L 3047 0 
L 2419 0 
L 2419 1100 
L 313 1100 
L 313 1709 
L 2253 4666 
z
" transform="scale(0.015625)"/>
       </defs>
       <use xlink:href="#DejaVuSans-34"/>
       <use xlink:href="#DejaVuSans-30" x="63.623047"/>
      </g>
     </g>
    </g>
    <g id="xtick_6">
     <g id="line2d_6">
      <g>
       <use xlink:href="#m5f422a4749" x="319.78314" y="307.584" style="stroke: #000000; stroke-width: 0.8"/>
      </g>
     </g>
     <g id="text_6">
      <!-- 50 -->
      <g transform="translate(313.42064 322.182437)scale(0.1 -0.1)">
       <defs>
        <path id="DejaVuSans-35" d="M 691 4666 
L 3169 4666 
L 3169 4134 
L 1269 4134 
L 1269 2991 
Q 1406 3038 1543 3061 
Q 1681 3084 1819 3084 
Q 2600 3084 3056 2656 
Q 3513 2228 3513 1497 
Q 3513 744 3044 326 
Q 2575 -91 1722 -91 
Q 1428 -91 1123 -41 
Q 819 9 494 109 
L 494 744 
Q 775 591 1075 516 
Q 1375 441 1709 441 
Q 2250 441 2565 725 
Q 2881 1009 2881 1497 
Q 2881 1984 2565 2268 
Q 2250 2553 1709 2553 
Q 1456 2553 1204 2497 
Q 953 2441 691 2322 
L 691 4666 
z
" transform="scale(0.015625)"/>
       </defs>
       <use xlink:href="#DejaVuSans-35"/>
       <use xlink:href="#DejaVuSans-30" x="63.623047"/>
      </g>
     </g>
    </g>
    <g id="xtick_7">
     <g id="line2d_7">
      <g>
       <use xlink:href="#m5f422a4749" x="368.973223" y="307.584" style="stroke: #000000; stroke-width: 0.8"/>
      </g>
     </g>
     <g id="text_7">
      <!-- 60 -->
      <g transform="translate(362.610723 322.182437)scale(0.1 -0.1)">
       <defs>
        <path id="DejaVuSans-36" d="M 2113 2584 
Q 1688 2584 1439 2293 
Q 1191 2003 1191 1497 
Q 1191 994 1439 701 
Q 1688 409 2113 409 
Q 2538 409 2786 701 
Q 3034 994 3034 1497 
Q 3034 2003 2786 2293 
Q 2538 2584 2113 2584 
z
M 3366 4563 
L 3366 3988 
Q 3128 4100 2886 4159 
Q 2644 4219 2406 4219 
Q 1781 4219 1451 3797 
Q 1122 3375 1075 2522 
Q 1259 2794 1537 2939 
Q 1816 3084 2150 3084 
Q 2853 3084 3261 2657 
Q 3669 2231 3669 1497 
Q 3669 778 3244 343 
Q 2819 -91 2113 -91 
Q 1303 -91 875 529 
Q 447 1150 447 2328 
Q 447 3434 972 4092 
Q 1497 4750 2381 4750 
Q 2619 4750 2861 4703 
Q 3103 4656 3366 4563 
z
" transform="scale(0.015625)"/>
       </defs>
       <use xlink:href="#DejaVuSans-36"/>
       <use xlink:href="#DejaVuSans-30" x="63.623047"/>
      </g>
     </g>
    </g>
    <g id="text_8">
     <!-- Generations -->
     <g transform="translate(205.662344 335.860562)scale(0.1 -0.1)">
      <defs>
       <path id="DejaVuSans-47" d="M 3809 666 
L 3809 1919 
L 2778 1919 
L 2778 2438 
L 4434 2438 
L 4434 434 
Q 4069 175 3628 42 
Q 3188 -91 2688 -91 
Q 1594 -91 976 548 
Q 359 1188 359 2328 
Q 359 3472 976 4111 
Q 1594 4750 2688 4750 
Q 3144 4750 3555 4637 
Q 3966 4525 4313 4306 
L 4313 3634 
Q 3963 3931 3569 4081 
Q 3175 4231 2741 4231 
Q 1884 4231 1454 3753 
Q 1025 3275 1025 2328 
Q 1025 1384 1454 906 
Q 1884 428 2741 428 
Q 3075 428 3337 486 
Q 3600 544 3809 666 
z
" transform="scale(0.015625)"/>
       <path id="DejaVuSans-65" d="M 3597 1894 
L 3597 1613 
L 953 1613 
Q 991 1019 1311 708 
Q 1631 397 2203 397 
Q 2534 397 2845 478 
Q 3156 559 3463 722 
L 3463 178 
Q 3153 47 2828 -22 
Q 2503 -91 2169 -91 
Q 1331 -91 842 396 
Q 353 884 353 1716 
Q 353 2575 817 3079 
Q 1281 3584 2069 3584 
Q 2775 3584 3186 3129 
Q 3597 2675 3597 1894 
z
M 3022 2063 
Q 3016 2534 2758 2815 
Q 2500 3097 2075 3097 
Q 1594 3097 1305 2825 
Q 1016 2553 972 2059 
L 3022 2063 
z
" transform="scale(0.015625)"/>
       <path id="DejaVuSans-6e" d="M 3513 2113 
L 3513 0 
L 2938 0 
L 2938 2094 
Q 2938 2591 2744 2837 
Q 2550 3084 2163 3084 
Q 1697 3084 1428 2787 
Q 1159 2491 1159 1978 
L 1159 0 
L 581 0 
L 581 3500 
L 1159 3500 
L 1159 2956 
Q 1366 3272 1645 3428 
Q 1925 3584 2291 3584 
Q 2894 3584 3203 3211 
Q 3513 2838 3513 2113 
z
" transform="scale(0.015625)"/>
       <path id="DejaVuSans-72" d="M 2631 2963 
Q 2534 3019 2420 3045 
Q 2306 3072 2169 3072 
Q 1681 3072 1420 2755 
Q 1159 2438 1159 1844 
L 1159 0 
L 581 0 
L 581 3500 
L 1159 3500 
L 1159 2956 
Q 1341 3275 1631 3429 
Q 1922 3584 2338 3584 
Q 2397 3584 2469 3576 
Q 2541 3569 2628 3553 
L 2631 2963 
z
" transform="scale(0.015625)"/>
       <path id="DejaVuSans-61" d="M 2194 1759 
Q 1497 1759 1228 1600 
Q 959 1441 959 1056 
Q 959 750 1161 570 
Q 1363 391 1709 391 
Q 2188 391 2477 730 
Q 2766 1069 2766 1631 
L 2766 1759 
L 2194 1759 
z
M 3341 1997 
L 3341 0 
L 2766 0 
L 2766 531 
Q 2569 213 2275 61 
Q 1981 -91 1556 -91 
Q 1019 -91 701 211 
Q 384 513 384 1019 
Q 384 1609 779 1909 
Q 1175 2209 1959 2209 
L 2766 2209 
L 2766 2266 
Q 2766 2663 2505 2880 
Q 2244 3097 1772 3097 
Q 1472 3097 1187 3025 
Q 903 2953 641 2809 
L 641 3341 
Q 956 3463 1253 3523 
Q 1550 3584 1831 3584 
Q 2591 3584 2966 3190 
Q 3341 2797 3341 1997 
z
" transform="scale(0.015625)"/>
       <path id="DejaVuSans-74" d="M 1172 4494 
L 1172 3500 
L 2356 3500 
L 2356 3053 
L 1172 3053 
L 1172 1153 
Q 1172 725 1289 603 
Q 1406 481 1766 481 
L 2356 481 
L 2356 0 
L 1766 0 
Q 1100 0 847 248 
Q 594 497 594 1153 
L 594 3053 
L 172 3053 
L 172 3500 
L 594 3500 
L 594 4494 
L 1172 4494 
z
" transform="scale(0.015625)"/>
       <path id="DejaVuSans-69" d="M 603 3500 
L 1178 3500 
L 1178 0 
L 603 0 
L 603 3500 
z
M 603 4863 
L 1178 4863 
L 1178 4134 
L 603 4134 
L 603 4863 
z
" transform="scale(0.015625)"/>
       <path id="DejaVuSans-6f" d="M 1959 3097 
Q 1497 3097 1228 2736 
Q 959 2375 959 1747 
Q 959 1119 1226 758 
Q 1494 397 1959 397 
Q 2419 397 2687 759 
Q 2956 1122 2956 1747 
Q 2956 2369 2687 2733 
Q 2419 3097 1959 3097 
z
M 1959 3584 
Q 2709 3584 3137 3096 
Q 3566 2609 3566 1747 
Q 3566 888 3137 398 
Q 2709 -91 1959 -91 
Q 1206 -91 779 398 
Q 353 888 353 1747 
Q 353 2609 779 3096 
Q 1206 3584 1959 3584 
z
" transform="scale(0.015625)"/>
       <path id="DejaVuSans-73" d="M 2834 3397 
L 2834 2853 
Q 2591 2978 2328 3040 
Q 2066 3103 1784 3103 
Q 1356 3103 1142 2972 
Q 928 2841 928 2578 
Q 928 2378 1081 2264 
Q 1234 2150 1697 2047 
L 1894 2003 
Q 2506 1872 2764 1633 
Q 3022 1394 3022 966 
Q 3022 478 2636 193 
Q 2250 -91 1575 -91 
Q 1294 -91 989 -36 
Q 684 19 347 128 
L 347 722 
Q 666 556 975 473 
Q 1284 391 1588 391 
Q 1994 391 2212 530 
Q 2431 669 2431 922 
Q 2431 1156 2273 1281 
Q 2116 1406 1581 1522 
L 1381 1569 
Q 847 1681 609 1914 
Q 372 2147 372 2553 
Q 372 3047 722 3315 
Q 1072 3584 1716 3584 
Q 2034 3584 2315 3537 
Q 2597 3491 2834 3397 
z
" transform="scale(0.015625)"/>
      </defs>
      <use xlink:href="#DejaVuSans-47"/>
      <use xlink:href="#DejaVuSans-65" x="77.490234"/>
      <use xlink:href="#DejaVuSans-6e" x="139.013672"/>
      <use xlink:href="#DejaVuSans-65" x="202.392578"/>
      <use xlink:href="#DejaVuSans-72" x="263.916016"/>
      <use xlink:href="#DejaVuSans-61" x="305.029297"/>
      <use xlink:href="#DejaVuSans-74" x="366.308594"/>
      <use xlink:href="#DejaVuSans-69" x="405.517578"/>
      <use xlink:href="#DejaVuSans-6f" x="433.300781"/>
      <use xlink:href="#DejaVuSans-6e" x="494.482422"/>
      <use xlink:href="#DejaVuSans-73" x="557.861328"/>
     </g>
    </g>
   </g>
   <g id="matplotlib.axis_2">
    <g id="ytick_1">
     <g id="line2d_8">
      <defs>
       <path id="me92bf8acef" d="M 0 0 
L -3.5 0 
" style="stroke: #000000; stroke-width: 0.8"/>
      </defs>
      <g>
       <use xlink:href="#me92bf8acef" x="57.6" y="307.584" style="stroke: #000000; stroke-width: 0.8"/>
      </g>
     </g>
     <g id="text_9">
      <!-- 0 -->
      <g transform="translate(44.2375 311.383219)scale(0.1 -0.1)">
       <use xlink:href="#DejaVuSans-30"/>
      </g>
     </g>
    </g>
    <g id="ytick_2">
     <g id="line2d_9">
      <g>
       <use xlink:href="#me92bf8acef" x="57.6" y="265.899789" style="stroke: #000000; stroke-width: 0.8"/>
      </g>
     </g>
     <g id="text_10">
      <!-- 50 -->
      <g transform="translate(37.875 269.699008)scale(0.1 -0.1)">
       <use xlink:href="#DejaVuSans-35"/>
       <use xlink:href="#DejaVuSans-30" x="63.623047"/>
      </g>
     </g>
    </g>
    <g id="ytick_3">
     <g id="line2d_10">
      <g>
       <use xlink:href="#me92bf8acef" x="57.6" y="224.215579" style="stroke: #000000; stroke-width: 0.8"/>
      </g>
     </g>
     <g id="text_11">
      <!-- 100 -->
      <g transform="translate(31.5125 228.014798)scale(0.1 -0.1)">
       <use xlink:href="#DejaVuSans-31"/>
       <use xlink:href="#DejaVuSans-30" x="63.623047"/>
       <use xlink:href="#DejaVuSans-30" x="127.246094"/>
      </g>
     </g>
    </g>
    <g id="ytick_4">
     <g id="line2d_11">
      <g>
       <use xlink:href="#me92bf8acef" x="57.6" y="182.531368" style="stroke: #000000; stroke-width: 0.8"/>
      </g>
     </g>
     <g id="text_12">
      <!-- 150 -->
      <g transform="translate(31.5125 186.330587)scale(0.1 -0.1)">
       <use xlink:href="#DejaVuSans-31"/>
       <use xlink:href="#DejaVuSans-35" x="63.623047"/>
       <use xlink:href="#DejaVuSans-30" x="127.246094"/>
      </g>
     </g>
    </g>
    <g id="ytick_5">
     <g id="line2d_12">
      <g>
       <use xlink:href="#me92bf8acef" x="57.6" y="140.847158" style="stroke: #000000; stroke-width: 0.8"/>
      </g>
     </g>
     <g id="text_13">
      <!-- 200 -->
      <g transform="translate(31.5125 144.646377)scale(0.1 -0.1)">
       <use xlink:href="#DejaVuSans-32"/>
       <use xlink:href="#DejaVuSans-30" x="63.623047"/>
       <use xlink:href="#DejaVuSans-30" x="127.246094"/>
      </g>
     </g>
    </g>
    <g id="ytick_6">
     <g id="line2d_13">
      <g>
       <use xlink:href="#me92bf8acef" x="57.6" y="99.162947" style="stroke: #000000; stroke-width: 0.8"/>
      </g>
     </g>
     <g id="text_14">
      <!-- 250 -->
      <g transform="translate(31.5125 102.962166)scale(0.1 -0.1)">
       <use xlink:href="#DejaVuSans-32"/>
       <use xlink:href="#DejaVuSans-35" x="63.623047"/>
       <use xlink:href="#DejaVuSans-30" x="127.246094"/>
      </g>
     </g>
    </g>
    <g id="ytick_7">
     <g id="line2d_14">
      <g>
       <use xlink:href="#me92bf8acef" x="57.6" y="57.478737" style="stroke: #000000; stroke-width: 0.8"/>
      </g>
     </g>
     <g id="text_15">
      <!-- 300 -->
      <g transform="translate(31.5125 61.277956)scale(0.1 -0.1)">
       <use xlink:href="#DejaVuSans-33"/>
       <use xlink:href="#DejaVuSans-30" x="63.623047"/>
       <use xlink:href="#DejaVuSans-30" x="127.246094"/>
      </g>
     </g>
    </g>
    <g id="text_16">
     <!-- Size per Species -->
     <g transform="translate(25.432812 215.520969)rotate(-90)scale(0.1 -0.1)">
      <defs>
       <path id="DejaVuSans-53" d="M 3425 4513 
L 3425 3897 
Q 3066 4069 2747 4153 
Q 2428 4238 2131 4238 
Q 1616 4238 1336 4038 
Q 1056 3838 1056 3469 
Q 1056 3159 1242 3001 
Q 1428 2844 1947 2747 
L 2328 2669 
Q 3034 2534 3370 2195 
Q 3706 1856 3706 1288 
Q 3706 609 3251 259 
Q 2797 -91 1919 -91 
Q 1588 -91 1214 -16 
Q 841 59 441 206 
L 441 856 
Q 825 641 1194 531 
Q 1563 422 1919 422 
Q 2459 422 2753 634 
Q 3047 847 3047 1241 
Q 3047 1584 2836 1778 
Q 2625 1972 2144 2069 
L 1759 2144 
Q 1053 2284 737 2584 
Q 422 2884 422 3419 
Q 422 4038 858 4394 
Q 1294 4750 2059 4750 
Q 2388 4750 2728 4690 
Q 3069 4631 3425 4513 
z
" transform="scale(0.015625)"/>
       <path id="DejaVuSans-7a" d="M 353 3500 
L 3084 3500 
L 3084 2975 
L 922 459 
L 3084 459 
L 3084 0 
L 275 0 
L 275 525 
L 2438 3041 
L 353 3041 
L 353 3500 
z
" transform="scale(0.015625)"/>
       <path id="DejaVuSans-20" transform="scale(0.015625)"/>
       <path id="DejaVuSans-70" d="M 1159 525 
L 1159 -1331 
L 581 -1331 
L 581 3500 
L 1159 3500 
L 1159 2969 
Q 1341 3281 1617 3432 
Q 1894 3584 2278 3584 
Q 2916 3584 3314 3078 
Q 3713 2572 3713 1747 
Q 3713 922 3314 415 
Q 2916 -91 2278 -91 
Q 1894 -91 1617 61 
Q 1341 213 1159 525 
z
M 3116 1747 
Q 3116 2381 2855 2742 
Q 2594 3103 2138 3103 
Q 1681 3103 1420 2742 
Q 1159 2381 1159 1747 
Q 1159 1113 1420 752 
Q 1681 391 2138 391 
Q 2594 391 2855 752 
Q 3116 1113 3116 1747 
z
" transform="scale(0.015625)"/>
       <path id="DejaVuSans-63" d="M 3122 3366 
L 3122 2828 
Q 2878 2963 2633 3030 
Q 2388 3097 2138 3097 
Q 1578 3097 1268 2742 
Q 959 2388 959 1747 
Q 959 1106 1268 751 
Q 1578 397 2138 397 
Q 2388 397 2633 464 
Q 2878 531 3122 666 
L 3122 134 
Q 2881 22 2623 -34 
Q 2366 -91 2075 -91 
Q 1284 -91 818 406 
Q 353 903 353 1747 
Q 353 2603 823 3093 
Q 1294 3584 2113 3584 
Q 2378 3584 2631 3529 
Q 2884 3475 3122 3366 
z
" transform="scale(0.015625)"/>
      </defs>
      <use xlink:href="#DejaVuSans-53"/>
      <use xlink:href="#DejaVuSans-69" x="63.476562"/>
      <use xlink:href="#DejaVuSans-7a" x="91.259766"/>
      <use xlink:href="#DejaVuSans-65" x="143.75"/>
      <use xlink:href="#DejaVuSans-20" x="205.273438"/>
      <use xlink:href="#DejaVuSans-70" x="237.060547"/>
      <use xlink:href="#DejaVuSans-65" x="300.537109"/>
      <use xlink:href="#DejaVuSans-72" x="362.060547"/>
      <use xlink:href="#DejaVuSans-20" x="403.173828"/>
      <use xlink:href="#DejaVuSans-53" x="434.960938"/>
      <use xlink:href="#DejaVuSans-70" x="498.4375"/>
      <use xlink:href="#DejaVuSans-65" x="561.914062"/>
      <use xlink:href="#DejaVuSans-63" x="623.4375"/>
      <use xlink:href="#DejaVuSans-69" x="678.417969"/>
      <use xlink:href="#DejaVuSans-65" x="706.201172"/>
      <use xlink:href="#DejaVuSans-73" x="767.724609"/>
     </g>
    </g>
   </g>
   <g id="patch_3">
    <path d="M 57.6 307.584 
L 57.6 41.472 
" style="fill: none; stroke: #000000; stroke-width: 0.8; stroke-linejoin: miter; stroke-linecap: square"/>
   </g>
   <g id="patch_4">
    <path d="M 414.72 307.584 
L 414.72 41.472 
" style="fill: none; stroke: #000000; stroke-width: 0.8; stroke-linejoin: miter; stroke-linecap: square"/>
   </g>
   <g id="patch_5">
    <path d="M 57.6 307.584 
L 414.72 307.584 
" style="fill: none; stroke: #000000; stroke-width: 0.8; stroke-linejoin: miter; stroke-linecap: square"/>
   </g>
   <g id="patch_6">
    <path d="M 57.6 41.472 
L 414.72 41.472 
" style="fill: none; stroke: #000000; stroke-width: 0.8; stroke-linejoin: miter; stroke-linecap: square"/>
   </g>
   <g id="text_17">
    <!-- Speciation -->
    <g transform="translate(204.714375 35.472)scale(0.12 -0.12)">
     <use xlink:href="#DejaVuSans-53"/>
     <use xlink:href="#DejaVuSans-70" x="63.476562"/>
     <use xlink:href="#DejaVuSans-65" x="126.953125"/>
     <use xlink:href="#DejaVuSans-63" x="188.476562"/>
     <use xlink:href="#DejaVuSans-69" x="243.457031"/>
     <use xlink:href="#DejaVuSans-61" x="271.240234"/>
     <use xlink:href="#DejaVuSans-74" x="332.519531"/>
     <use xlink:href="#DejaVuSans-69" x="371.728516"/>
     <use xlink:href="#DejaVuSans-6f" x="399.511719"/>
     <use xlink:href="#DejaVuSans-6e" x="460.693359"/>
    </g>
   </g>
  </g>
 </g>
 <defs>
  <clipPath id="p67cab8714c">
   <rect x="57.6" y="41.472" width="357.12" height="266.112"/>
  </clipPath>
 </defs>
</svg>
