<?xml version="1.0" encoding="utf-8" standalone="no"?>
<!DOCTYPE svg PUBLIC "-//W3C//DTD SVG 1.1//EN"
  "http://www.w3.org/Graphics/SVG/1.1/DTD/svg11.dtd">
<svg xmlns:xlink="http://www.w3.org/1999/xlink" width="460.8pt" height="345.6pt" viewBox="0 0 460.8 345.6" xmlns="http://www.w3.org/2000/svg" version="1.1">
 <metadata>
  <rdf:RDF xmlns:dc="http://purl.org/dc/elements/1.1/" xmlns:cc="http://creativecommons.org/ns#" xmlns:rdf="http://www.w3.org/1999/02/22-rdf-syntax-ns#">
   <cc:Work>
    <dc:type rdf:resource="http://purl.org/dc/dcmitype/StillImage"/>
    <dc:date>2023-01-26T16:18:43.492510</dc:date>
    <dc:format>image/svg+xml</dc:format>
    <dc:creator>
     <cc:Agent>
      <dc:title>Matplotlib v3.5.3, https://matplotlib.org/</dc:title>
     </cc:Agent>
    </dc:creator>
   </cc:Work>
  </rdf:RDF>
 </metadata>
 <defs>
  <style type="text/css">*{stroke-linejoin: round; stroke-linecap: butt}</style>
 </defs>
 <g id="figure_1">
  <g id="patch_1">
   <path d="M 0 345.6 
L 460.8 345.6 
L 460.8 0 
L 0 0 
z
" style="fill: #ffffff"/>
  </g>
  <g id="axes_1">
   <g id="patch_2">
    <path d="M 57.6 307.584 
L 414.72 307.584 
L 414.72 41.472 
L 57.6 41.472 
z
" style="fill: #ffffff"/>
   </g>
   <g id="PolyCollection_1">
    <path d="M 73.832727 57.478737 
L 73.832727 307.584 
L 80.890435 307.584 
L 87.948142 307.584 
L 95.00585 307.584 
L 102.063557 307.584 
L 109.121265 307.584 
L 116.178972 307.584 
L 123.23668 307.584 
L 130.294387 307.584 
L 137.352095 307.584 
L 144.409802 307.584 
L 151.46751 307.584 
L 158.525217 307.584 
L 165.582925 307.584 
L 172.640632 307.584 
L 179.69834 307.584 
L 186.756047 307.584 
L 193.813755 307.584 
L 200.871462 307.584 
L 207.92917 307.584 
L 214.986877 307.584 
L 222.044585 307.584 
L 229.102292 307.584 
L 236.16 307.584 
L 243.217708 307.584 
L 250.275415 307.584 
L 257.333123 307.584 
L 264.39083 307.584 
L 271.448538 307.584 
L 278.506245 307.584 
L 285.563953 307.584 
L 292.62166 307.584 
L 299.679368 307.584 
L 306.737075 307.584 
L 313.794783 307.584 
L 320.85249 307.584 
L 327.910198 307.584 
L 334.967905 307.584 
L 342.025613 307.584 
L 349.08332 307.584 
L 356.141028 307.584 
L 363.198735 307.584 
L 370.256443 307.584 
L 377.31415 307.584 
L 384.371858 307.584 
L 391.429565 307.584 
L 398.487273 307.584 
L 398.487273 307.584 
L 398.487273 307.584 
L 391.429565 307.584 
L 384.371858 307.584 
L 377.31415 307.584 
L 370.256443 307.584 
L 363.198735 307.584 
L 356.141028 307.584 
L 349.08332 307.584 
L 342.025613 307.584 
L 334.967905 307.584 
L 327.910198 307.584 
L 320.85249 307.584 
L 313.794783 307.584 
L 306.737075 307.584 
L 299.679368 307.584 
L 292.62166 307.584 
L 285.563953 282.573474 
L 278.506245 289.242947 
L 271.448538 275.904 
L 264.39083 277.571368 
L 257.333123 280.906105 
L 250.275415 280.906105 
L 243.217708 282.573474 
L 236.16 279.238737 
L 229.102292 280.906105 
L 222.044585 264.232421 
L 214.986877 259.230316 
L 207.92917 259.230316 
L 200.871462 269.234526 
L 193.813755 265.899789 
L 186.756047 262.565053 
L 179.69834 265.899789 
L 172.640632 275.904 
L 165.582925 282.573474 
L 158.525217 299.247158 
L 151.46751 277.571368 
L 144.409802 274.236632 
L 137.352095 282.573474 
L 130.294387 284.240842 
L 123.23668 155.853474 
L 116.178972 57.478737 
L 109.121265 57.478737 
L 102.063557 57.478737 
L 95.00585 57.478737 
L 87.948142 57.478737 
L 80.890435 57.478737 
L 73.832727 57.478737 
z
" clip-path="url(#p0b068933af)" style="fill: #1f77b4"/>
   </g>
   <g id="PolyCollection_2">
    <path d="M 73.832727 57.478737 
L 73.832727 57.478737 
L 80.890435 57.478737 
L 87.948142 57.478737 
L 95.00585 57.478737 
L 102.063557 57.478737 
L 109.121265 57.478737 
L 116.178972 57.478737 
L 123.23668 155.853474 
L 130.294387 284.240842 
L 137.352095 282.573474 
L 144.409802 274.236632 
L 151.46751 277.571368 
L 158.525217 299.247158 
L 165.582925 282.573474 
L 172.640632 275.904 
L 179.69834 265.899789 
L 186.756047 262.565053 
L 193.813755 265.899789 
L 200.871462 269.234526 
L 207.92917 259.230316 
L 214.986877 259.230316 
L 222.044585 264.232421 
L 229.102292 280.906105 
L 236.16 279.238737 
L 243.217708 282.573474 
L 250.275415 280.906105 
L 257.333123 280.906105 
L 264.39083 277.571368 
L 271.448538 275.904 
L 278.506245 289.242947 
L 285.563953 282.573474 
L 292.62166 307.584 
L 299.679368 307.584 
L 306.737075 307.584 
L 313.794783 307.584 
L 320.85249 307.584 
L 327.910198 307.584 
L 334.967905 307.584 
L 342.025613 307.584 
L 349.08332 307.584 
L 356.141028 307.584 
L 363.198735 307.584 
L 370.256443 307.584 
L 377.31415 307.584 
L 384.371858 307.584 
L 391.429565 307.584 
L 398.487273 307.584 
L 398.487273 269.234526 
L 398.487273 269.234526 
L 391.429565 265.899789 
L 384.371858 262.565053 
L 377.31415 265.899789 
L 370.256443 265.899789 
L 363.198735 267.567158 
L 356.141028 250.893474 
L 349.08332 255.895579 
L 342.025613 262.565053 
L 334.967905 264.232421 
L 327.910198 260.897684 
L 320.85249 260.897684 
L 313.794783 262.565053 
L 306.737075 265.899789 
L 299.679368 267.567158 
L 292.62166 272.569263 
L 285.563953 250.893474 
L 278.506245 255.895579 
L 271.448538 244.224 
L 264.39083 247.558737 
L 257.333123 250.893474 
L 250.275415 249.226105 
L 243.217708 247.558737 
L 236.16 242.556632 
L 229.102292 237.554526 
L 222.044585 220.880842 
L 214.986877 215.878737 
L 207.92917 214.211368 
L 200.871462 230.885053 
L 193.813755 222.548211 
L 186.756047 222.548211 
L 179.69834 214.211368 
L 172.640632 215.878737 
L 165.582925 224.215579 
L 158.525217 270.901895 
L 151.46751 214.211368 
L 144.409802 220.880842 
L 137.352095 227.550316 
L 130.294387 260.897684 
L 123.23668 137.512421 
L 116.178972 57.478737 
L 109.121265 57.478737 
L 102.063557 57.478737 
L 95.00585 57.478737 
L 87.948142 57.478737 
L 80.890435 57.478737 
L 73.832727 57.478737 
z
" clip-path="url(#p0b068933af)" style="fill: #ff7f0e"/>
   </g>
   <g id="PolyCollection_3">
    <path d="M 73.832727 57.478737 
L 73.832727 57.478737 
L 80.890435 57.478737 
L 87.948142 57.478737 
L 95.00585 57.478737 
L 102.063557 57.478737 
L 109.121265 57.478737 
L 116.178972 57.478737 
L 123.23668 137.512421 
L 130.294387 260.897684 
L 137.352095 227.550316 
L 144.409802 220.880842 
L 151.46751 214.211368 
L 158.525217 270.901895 
L 165.582925 224.215579 
L 172.640632 215.878737 
L 179.69834 214.211368 
L 186.756047 222.548211 
L 193.813755 222.548211 
L 200.871462 230.885053 
L 207.92917 214.211368 
L 214.986877 215.878737 
L 222.044585 220.880842 
L 229.102292 237.554526 
L 236.16 242.556632 
L 243.217708 247.558737 
L 250.275415 249.226105 
L 257.333123 250.893474 
L 264.39083 247.558737 
L 271.448538 244.224 
L 278.506245 255.895579 
L 285.563953 250.893474 
L 292.62166 272.569263 
L 299.679368 267.567158 
L 306.737075 265.899789 
L 313.794783 262.565053 
L 320.85249 260.897684 
L 327.910198 260.897684 
L 334.967905 264.232421 
L 342.025613 262.565053 
L 349.08332 255.895579 
L 356.141028 250.893474 
L 363.198735 267.567158 
L 370.256443 265.899789 
L 377.31415 265.899789 
L 384.371858 262.565053 
L 391.429565 265.899789 
L 398.487273 269.234526 
L 398.487273 242.556632 
L 398.487273 242.556632 
L 391.429565 249.226105 
L 384.371858 230.885053 
L 377.31415 229.217684 
L 370.256443 225.882947 
L 363.198735 229.217684 
L 356.141028 222.548211 
L 349.08332 237.554526 
L 342.025613 224.215579 
L 334.967905 184.198737 
L 327.910198 200.872421 
L 320.85249 175.861895 
L 313.794783 177.529263 
L 306.737075 182.531368 
L 299.679368 214.211368 
L 292.62166 230.885053 
L 285.563953 204.207158 
L 278.506245 204.207158 
L 271.448538 207.541895 
L 264.39083 220.880842 
L 257.333123 225.882947 
L 250.275415 225.882947 
L 243.217708 215.878737 
L 236.16 197.537684 
L 229.102292 189.200842 
L 222.044585 172.527158 
L 214.986877 187.533474 
L 207.92917 177.529263 
L 200.871462 189.200842 
L 193.813755 192.535579 
L 186.756047 197.537684 
L 179.69834 160.855579 
L 172.640632 170.859789 
L 165.582925 192.535579 
L 158.525217 255.895579 
L 151.46751 189.200842 
L 144.409802 200.872421 
L 137.352095 207.541895 
L 130.294387 195.870316 
L 123.23668 97.495579 
L 116.178972 57.478737 
L 109.121265 57.478737 
L 102.063557 57.478737 
L 95.00585 57.478737 
L 87.948142 57.478737 
L 80.890435 57.478737 
L 73.832727 57.478737 
z
" clip-path="url(#p0b068933af)" style="fill: #2ca02c"/>
   </g>
   <g id="PolyCollection_4">
    <path d="M 73.832727 57.478737 
L 73.832727 57.478737 
L 80.890435 57.478737 
L 87.948142 57.478737 
L 95.00585 57.478737 
L 102.063557 57.478737 
L 109.121265 57.478737 
L 116.178972 57.478737 
L 123.23668 97.495579 
L 130.294387 195.870316 
L 137.352095 207.541895 
L 144.409802 200.872421 
L 151.46751 189.200842 
L 158.525217 255.895579 
L 165.582925 192.535579 
L 172.640632 170.859789 
L 179.69834 160.855579 
L 186.756047 197.537684 
L 193.813755 192.535579 
L 200.871462 189.200842 
L 207.92917 177.529263 
L 214.986877 187.533474 
L 222.044585 172.527158 
L 229.102292 189.200842 
L 236.16 197.537684 
L 243.217708 215.878737 
L 250.275415 225.882947 
L 257.333123 225.882947 
L 264.39083 220.880842 
L 271.448538 207.541895 
L 278.506245 204.207158 
L 285.563953 204.207158 
L 292.62166 230.885053 
L 299.679368 214.211368 
L 306.737075 182.531368 
L 313.794783 177.529263 
L 320.85249 175.861895 
L 327.910198 200.872421 
L 334.967905 184.198737 
L 342.025613 224.215579 
L 349.08332 237.554526 
L 356.141028 222.548211 
L 363.198735 229.217684 
L 370.256443 225.882947 
L 377.31415 229.217684 
L 384.371858 230.885053 
L 391.429565 249.226105 
L 398.487273 242.556632 
L 398.487273 200.872421 
L 398.487273 200.872421 
L 391.429565 207.541895 
L 384.371858 185.866105 
L 377.31415 185.866105 
L 370.256443 179.196632 
L 363.198735 179.196632 
L 356.141028 179.196632 
L 349.08332 192.535579 
L 342.025613 175.861895 
L 334.967905 144.181895 
L 327.910198 164.190316 
L 320.85249 142.514526 
L 313.794783 142.514526 
L 306.737075 142.514526 
L 299.679368 170.859789 
L 292.62166 187.533474 
L 285.563953 164.190316 
L 278.506245 164.190316 
L 271.448538 170.859789 
L 264.39083 180.864 
L 257.333123 185.866105 
L 250.275415 182.531368 
L 243.217708 169.192421 
L 236.16 154.186105 
L 229.102292 135.845053 
L 222.044585 119.171368 
L 214.986877 139.179789 
L 207.92917 129.175579 
L 200.871462 140.847158 
L 193.813755 135.845053 
L 186.756047 142.514526 
L 179.69834 107.499789 
L 172.640632 110.834526 
L 165.582925 114.169263 
L 158.525217 79.154526 
L 151.46751 135.845053 
L 144.409802 149.184 
L 137.352095 182.531368 
L 130.294387 157.520842 
L 123.23668 79.154526 
L 116.178972 57.478737 
L 109.121265 57.478737 
L 102.063557 57.478737 
L 95.00585 57.478737 
L 87.948142 57.478737 
L 80.890435 57.478737 
L 73.832727 57.478737 
z
" clip-path="url(#p0b068933af)" style="fill: #d62728"/>
   </g>
   <g id="PolyCollection_5">
    <path d="M 73.832727 57.478737 
L 73.832727 57.478737 
L 80.890435 57.478737 
L 87.948142 57.478737 
L 95.00585 57.478737 
L 102.063557 57.478737 
L 109.121265 57.478737 
L 116.178972 57.478737 
L 123.23668 79.154526 
L 130.294387 157.520842 
L 137.352095 182.531368 
L 144.409802 149.184 
L 151.46751 135.845053 
L 158.525217 79.154526 
L 165.582925 114.169263 
L 172.640632 110.834526 
L 179.69834 107.499789 
L 186.756047 142.514526 
L 193.813755 135.845053 
L 200.871462 140.847158 
L 207.92917 129.175579 
L 214.986877 139.179789 
L 222.044585 119.171368 
L 229.102292 135.845053 
L 236.16 154.186105 
L 243.217708 169.192421 
L 250.275415 182.531368 
L 257.333123 185.866105 
L 264.39083 180.864 
L 271.448538 170.859789 
L 278.506245 164.190316 
L 285.563953 164.190316 
L 292.62166 187.533474 
L 299.679368 170.859789 
L 306.737075 142.514526 
L 313.794783 142.514526 
L 320.85249 142.514526 
L 327.910198 164.190316 
L 334.967905 144.181895 
L 342.025613 175.861895 
L 349.08332 192.535579 
L 356.141028 179.196632 
L 363.198735 179.196632 
L 370.256443 179.196632 
L 377.31415 185.866105 
L 384.371858 185.866105 
L 391.429565 207.541895 
L 398.487273 200.872421 
L 398.487273 157.520842 
L 398.487273 157.520842 
L 391.429565 147.516632 
L 384.371858 152.518737 
L 377.31415 144.181895 
L 370.256443 150.851368 
L 363.198735 139.179789 
L 356.141028 147.516632 
L 349.08332 139.179789 
L 342.025613 130.842947 
L 334.967905 114.169263 
L 327.910198 124.173474 
L 320.85249 110.834526 
L 313.794783 109.167158 
L 306.737075 107.499789 
L 299.679368 130.842947 
L 292.62166 152.518737 
L 285.563953 132.510316 
L 278.506245 129.175579 
L 271.448538 144.181895 
L 264.39083 152.518737 
L 257.333123 157.520842 
L 250.275415 155.853474 
L 243.217708 142.514526 
L 236.16 115.836632 
L 229.102292 95.828211 
L 222.044585 82.489263 
L 214.986877 92.493474 
L 207.92917 87.491368 
L 200.871462 95.828211 
L 193.813755 94.160842 
L 186.756047 94.160842 
L 179.69834 70.817684 
L 172.640632 79.154526 
L 165.582925 89.158737 
L 158.525217 72.485053 
L 151.46751 100.830316 
L 144.409802 110.834526 
L 137.352095 115.836632 
L 130.294387 105.832421 
L 123.23668 69.150316 
L 116.178972 57.478737 
L 109.121265 57.478737 
L 102.063557 57.478737 
L 95.00585 57.478737 
L 87.948142 57.478737 
L 80.890435 57.478737 
L 73.832727 57.478737 
z
" clip-path="url(#p0b068933af)" style="fill: #9467bd"/>
   </g>
   <g id="PolyCollection_6">
    <path d="M 73.832727 57.478737 
L 73.832727 57.478737 
L 80.890435 57.478737 
L 87.948142 57.478737 
L 95.00585 57.478737 
L 102.063557 57.478737 
L 109.121265 57.478737 
L 116.178972 57.478737 
L 123.23668 69.150316 
L 130.294387 105.832421 
L 137.352095 115.836632 
L 144.409802 110.834526 
L 151.46751 100.830316 
L 158.525217 72.485053 
L 165.582925 89.158737 
L 172.640632 79.154526 
L 179.69834 70.817684 
L 186.756047 94.160842 
L 193.813755 94.160842 
L 200.871462 95.828211 
L 207.92917 87.491368 
L 214.986877 92.493474 
L 222.044585 82.489263 
L 229.102292 95.828211 
L 236.16 115.836632 
L 243.217708 142.514526 
L 250.275415 155.853474 
L 257.333123 157.520842 
L 264.39083 152.518737 
L 271.448538 144.181895 
L 278.506245 129.175579 
L 285.563953 132.510316 
L 292.62166 152.518737 
L 299.679368 130.842947 
L 306.737075 107.499789 
L 313.794783 109.167158 
L 320.85249 110.834526 
L 327.910198 124.173474 
L 334.967905 114.169263 
L 342.025613 130.842947 
L 349.08332 139.179789 
L 356.141028 147.516632 
L 363.198735 139.179789 
L 370.256443 150.851368 
L 377.31415 144.181895 
L 384.371858 152.518737 
L 391.429565 147.516632 
L 398.487273 157.520842 
L 398.487273 157.520842 
L 398.487273 157.520842 
L 391.429565 147.516632 
L 384.371858 152.518737 
L 377.31415 144.181895 
L 370.256443 150.851368 
L 363.198735 139.179789 
L 356.141028 147.516632 
L 349.08332 139.179789 
L 342.025613 130.842947 
L 334.967905 114.169263 
L 327.910198 124.173474 
L 320.85249 110.834526 
L 313.794783 109.167158 
L 306.737075 107.499789 
L 299.679368 130.842947 
L 292.62166 122.506105 
L 285.563953 110.834526 
L 278.506245 112.501895 
L 271.448538 122.506105 
L 264.39083 120.838737 
L 257.333123 122.506105 
L 250.275415 117.504 
L 243.217708 115.836632 
L 236.16 85.824 
L 229.102292 70.817684 
L 222.044585 57.478737 
L 214.986877 55.811368 
L 207.92917 54.144 
L 200.871462 57.478737 
L 193.813755 55.811368 
L 186.756047 57.478737 
L 179.69834 57.478737 
L 172.640632 55.811368 
L 165.582925 55.811368 
L 158.525217 55.811368 
L 151.46751 55.811368 
L 144.409802 55.811368 
L 137.352095 55.811368 
L 130.294387 55.811368 
L 123.23668 57.478737 
L 116.178972 57.478737 
L 109.121265 57.478737 
L 102.063557 57.478737 
L 95.00585 57.478737 
L 87.948142 57.478737 
L 80.890435 57.478737 
L 73.832727 57.478737 
z
" clip-path="url(#p0b068933af)" style="fill: #8c564b"/>
   </g>
   <g id="PolyCollection_7">
    <path d="M 73.832727 57.478737 
L 73.832727 57.478737 
L 80.890435 57.478737 
L 87.948142 57.478737 
L 95.00585 57.478737 
L 102.063557 57.478737 
L 109.121265 57.478737 
L 116.178972 57.478737 
L 123.23668 57.478737 
L 130.294387 55.811368 
L 137.352095 55.811368 
L 144.409802 55.811368 
L 151.46751 55.811368 
L 158.525217 55.811368 
L 165.582925 55.811368 
L 172.640632 55.811368 
L 179.69834 57.478737 
L 186.756047 57.478737 
L 193.813755 55.811368 
L 200.871462 57.478737 
L 207.92917 54.144 
L 214.986877 55.811368 
L 222.044585 57.478737 
L 229.102292 70.817684 
L 236.16 85.824 
L 243.217708 115.836632 
L 250.275415 117.504 
L 257.333123 122.506105 
L 264.39083 120.838737 
L 271.448538 122.506105 
L 278.506245 112.501895 
L 285.563953 110.834526 
L 292.62166 122.506105 
L 299.679368 130.842947 
L 306.737075 107.499789 
L 313.794783 109.167158 
L 320.85249 110.834526 
L 327.910198 124.173474 
L 334.967905 114.169263 
L 342.025613 130.842947 
L 349.08332 139.179789 
L 356.141028 147.516632 
L 363.198735 139.179789 
L 370.256443 150.851368 
L 377.31415 144.181895 
L 384.371858 152.518737 
L 391.429565 147.516632 
L 398.487273 157.520842 
L 398.487273 112.501895 
L 398.487273 112.501895 
L 391.429565 97.495579 
L 384.371858 94.160842 
L 377.31415 90.826105 
L 370.256443 85.824 
L 363.198735 99.162947 
L 356.141028 95.828211 
L 349.08332 94.160842 
L 342.025613 89.158737 
L 334.967905 75.819789 
L 327.910198 87.491368 
L 320.85249 80.821895 
L 313.794783 87.491368 
L 306.737075 92.493474 
L 299.679368 97.495579 
L 292.62166 90.826105 
L 285.563953 85.824 
L 278.506245 84.156632 
L 271.448538 90.826105 
L 264.39083 90.826105 
L 257.333123 94.160842 
L 250.275415 94.160842 
L 243.217708 97.495579 
L 236.16 59.146105 
L 229.102292 57.478737 
L 222.044585 57.478737 
L 214.986877 55.811368 
L 207.92917 54.144 
L 200.871462 57.478737 
L 193.813755 55.811368 
L 186.756047 57.478737 
L 179.69834 57.478737 
L 172.640632 55.811368 
L 165.582925 55.811368 
L 158.525217 55.811368 
L 151.46751 55.811368 
L 144.409802 55.811368 
L 137.352095 55.811368 
L 130.294387 55.811368 
L 123.23668 57.478737 
L 116.178972 57.478737 
L 109.121265 57.478737 
L 102.063557 57.478737 
L 95.00585 57.478737 
L 87.948142 57.478737 
L 80.890435 57.478737 
L 73.832727 57.478737 
z
" clip-path="url(#p0b068933af)" style="fill: #e377c2"/>
   </g>
   <g id="PolyCollection_8">
    <path d="M 73.832727 57.478737 
L 73.832727 57.478737 
L 80.890435 57.478737 
L 87.948142 57.478737 
L 95.00585 57.478737 
L 102.063557 57.478737 
L 109.121265 57.478737 
L 116.178972 57.478737 
L 123.23668 57.478737 
L 130.294387 55.811368 
L 137.352095 55.811368 
L 144.409802 55.811368 
L 151.46751 55.811368 
L 158.525217 55.811368 
L 165.582925 55.811368 
L 172.640632 55.811368 
L 179.69834 57.478737 
L 186.756047 57.478737 
L 193.813755 55.811368 
L 200.871462 57.478737 
L 207.92917 54.144 
L 214.986877 55.811368 
L 222.044585 57.478737 
L 229.102292 57.478737 
L 236.16 59.146105 
L 243.217708 97.495579 
L 250.275415 94.160842 
L 257.333123 94.160842 
L 264.39083 90.826105 
L 271.448538 90.826105 
L 278.506245 84.156632 
L 285.563953 85.824 
L 292.62166 90.826105 
L 299.679368 97.495579 
L 306.737075 92.493474 
L 313.794783 87.491368 
L 320.85249 80.821895 
L 327.910198 87.491368 
L 334.967905 75.819789 
L 342.025613 89.158737 
L 349.08332 94.160842 
L 356.141028 95.828211 
L 363.198735 99.162947 
L 370.256443 85.824 
L 377.31415 90.826105 
L 384.371858 94.160842 
L 391.429565 97.495579 
L 398.487273 112.501895 
L 398.487273 82.489263 
L 398.487273 82.489263 
L 391.429565 72.485053 
L 384.371858 57.478737 
L 377.31415 57.478737 
L 370.256443 54.144 
L 363.198735 55.811368 
L 356.141028 59.146105 
L 349.08332 60.813474 
L 342.025613 59.146105 
L 334.967905 59.146105 
L 327.910198 57.478737 
L 320.85249 57.478737 
L 313.794783 57.478737 
L 306.737075 59.146105 
L 299.679368 60.813474 
L 292.62166 55.811368 
L 285.563953 55.811368 
L 278.506245 55.811368 
L 271.448538 55.811368 
L 264.39083 59.146105 
L 257.333123 60.813474 
L 250.275415 59.146105 
L 243.217708 57.478737 
L 236.16 57.478737 
L 229.102292 57.478737 
L 222.044585 57.478737 
L 214.986877 55.811368 
L 207.92917 54.144 
L 200.871462 57.478737 
L 193.813755 55.811368 
L 186.756047 57.478737 
L 179.69834 57.478737 
L 172.640632 55.811368 
L 165.582925 55.811368 
L 158.525217 55.811368 
L 151.46751 55.811368 
L 144.409802 55.811368 
L 137.352095 55.811368 
L 130.294387 55.811368 
L 123.23668 57.478737 
L 116.178972 57.478737 
L 109.121265 57.478737 
L 102.063557 57.478737 
L 95.00585 57.478737 
L 87.948142 57.478737 
L 80.890435 57.478737 
L 73.832727 57.478737 
z
" clip-path="url(#p0b068933af)" style="fill: #7f7f7f"/>
   </g>
   <g id="PolyCollection_9">
    <path d="M 73.832727 57.478737 
L 73.832727 57.478737 
L 80.890435 57.478737 
L 87.948142 57.478737 
L 95.00585 57.478737 
L 102.063557 57.478737 
L 109.121265 57.478737 
L 116.178972 57.478737 
L 123.23668 57.478737 
L 130.294387 55.811368 
L 137.352095 55.811368 
L 144.409802 55.811368 
L 151.46751 55.811368 
L 158.525217 55.811368 
L 165.582925 55.811368 
L 172.640632 55.811368 
L 179.69834 57.478737 
L 186.756047 57.478737 
L 193.813755 55.811368 
L 200.871462 57.478737 
L 207.92917 54.144 
L 214.986877 55.811368 
L 222.044585 57.478737 
L 229.102292 57.478737 
L 236.16 57.478737 
L 243.217708 57.478737 
L 250.275415 59.146105 
L 257.333123 60.813474 
L 264.39083 59.146105 
L 271.448538 55.811368 
L 278.506245 55.811368 
L 285.563953 55.811368 
L 292.62166 55.811368 
L 299.679368 60.813474 
L 306.737075 59.146105 
L 313.794783 57.478737 
L 320.85249 57.478737 
L 327.910198 57.478737 
L 334.967905 59.146105 
L 342.025613 59.146105 
L 349.08332 60.813474 
L 356.141028 59.146105 
L 363.198735 55.811368 
L 370.256443 54.144 
L 377.31415 57.478737 
L 384.371858 57.478737 
L 391.429565 72.485053 
L 398.487273 82.489263 
L 398.487273 59.146105 
L 398.487273 59.146105 
L 391.429565 59.146105 
L 384.371858 57.478737 
L 377.31415 57.478737 
L 370.256443 54.144 
L 363.198735 55.811368 
L 356.141028 59.146105 
L 349.08332 60.813474 
L 342.025613 59.146105 
L 334.967905 59.146105 
L 327.910198 57.478737 
L 320.85249 57.478737 
L 313.794783 57.478737 
L 306.737075 59.146105 
L 299.679368 60.813474 
L 292.62166 55.811368 
L 285.563953 55.811368 
L 278.506245 55.811368 
L 271.448538 55.811368 
L 264.39083 59.146105 
L 257.333123 60.813474 
L 250.275415 59.146105 
L 243.217708 57.478737 
L 236.16 57.478737 
L 229.102292 57.478737 
L 222.044585 57.478737 
L 214.986877 55.811368 
L 207.92917 54.144 
L 200.871462 57.478737 
L 193.813755 55.811368 
L 186.756047 57.478737 
L 179.69834 57.478737 
L 172.640632 55.811368 
L 165.582925 55.811368 
L 158.525217 55.811368 
L 151.46751 55.811368 
L 144.409802 55.811368 
L 137.352095 55.811368 
L 130.294387 55.811368 
L 123.23668 57.478737 
L 116.178972 57.478737 
L 109.121265 57.478737 
L 102.063557 57.478737 
L 95.00585 57.478737 
L 87.948142 57.478737 
L 80.890435 57.478737 
L 73.832727 57.478737 
z
" clip-path="url(#p0b068933af)" style="fill: #bcbd22"/>
   </g>
   <g id="matplotlib.axis_1">
    <g id="xtick_1">
     <g id="line2d_1">
      <defs>
       <path id="m739b43a99a" d="M 0 0 
L 0 3.5 
" style="stroke: #000000; stroke-width: 0.8"/>
      </defs>
      <g>
       <use xlink:href="#m739b43a99a" x="73.832727" y="307.584" style="stroke: #000000; stroke-width: 0.8"/>
      </g>
     </g>
     <g id="text_1">
      <!-- 0 -->
      <g transform="translate(70.651477 322.182437)scale(0.1 -0.1)">
       <defs>
        <path id="DejaVuSans-30" d="M 2034 4250 
Q 1547 4250 1301 3770 
Q 1056 3291 1056 2328 
Q 1056 1369 1301 889 
Q 1547 409 2034 409 
Q 2525 409 2770 889 
Q 3016 1369 3016 2328 
Q 3016 3291 2770 3770 
Q 2525 4250 2034 4250 
z
M 2034 4750 
Q 2819 4750 3233 4129 
Q 3647 3509 3647 2328 
Q 3647 1150 3233 529 
Q 2819 -91 2034 -91 
Q 1250 -91 836 529 
Q 422 1150 422 2328 
Q 422 3509 836 4129 
Q 1250 4750 2034 4750 
z
" transform="scale(0.015625)"/>
       </defs>
       <use xlink:href="#DejaVuSans-30"/>
      </g>
     </g>
    </g>
    <g id="xtick_2">
     <g id="line2d_2">
      <g>
       <use xlink:href="#m739b43a99a" x="144.409802" y="307.584" style="stroke: #000000; stroke-width: 0.8"/>
      </g>
     </g>
     <g id="text_2">
      <!-- 10 -->
      <g transform="translate(138.047302 322.182437)scale(0.1 -0.1)">
       <defs>
        <path id="DejaVuSans-31" d="M 794 531 
L 1825 531 
L 1825 4091 
L 703 3866 
L 703 4441 
L 1819 4666 
L 2450 4666 
L 2450 531 
L 3481 531 
L 3481 0 
L 794 0 
L 794 531 
z
" transform="scale(0.015625)"/>
       </defs>
       <use xlink:href="#DejaVuSans-31"/>
       <use xlink:href="#DejaVuSans-30" x="63.623047"/>
      </g>
     </g>
    </g>
    <g id="xtick_3">
     <g id="line2d_3">
      <g>
       <use xlink:href="#m739b43a99a" x="214.986877" y="307.584" style="stroke: #000000; stroke-width: 0.8"/>
      </g>
     </g>
     <g id="text_3">
      <!-- 20 -->
      <g transform="translate(208.624377 322.182437)scale(0.1 -0.1)">
       <defs>
        <path id="DejaVuSans-32" d="M 1228 531 
L 3431 531 
L 3431 0 
L 469 0 
L 469 531 
Q 828 903 1448 1529 
Q 2069 2156 2228 2338 
Q 2531 2678 2651 2914 
Q 2772 3150 2772 3378 
Q 2772 3750 2511 3984 
Q 2250 4219 1831 4219 
Q 1534 4219 1204 4116 
Q 875 4013 500 3803 
L 500 4441 
Q 881 4594 1212 4672 
Q 1544 4750 1819 4750 
Q 2544 4750 2975 4387 
Q 3406 4025 3406 3419 
Q 3406 3131 3298 2873 
Q 3191 2616 2906 2266 
Q 2828 2175 2409 1742 
Q 1991 1309 1228 531 
z
" transform="scale(0.015625)"/>
       </defs>
       <use xlink:href="#DejaVuSans-32"/>
       <use xlink:href="#DejaVuSans-30" x="63.623047"/>
      </g>
     </g>
    </g>
    <g id="xtick_4">
     <g id="line2d_4">
      <g>
       <use xlink:href="#m739b43a99a" x="285.563953" y="307.584" style="stroke: #000000; stroke-width: 0.8"/>
      </g>
     </g>
     <g id="text_4">
      <!-- 30 -->
      <g transform="translate(279.201453 322.182437)scale(0.1 -0.1)">
       <defs>
        <path id="DejaVuSans-33" d="M 2597 2516 
Q 3050 2419 3304 2112 
Q 3559 1806 3559 1356 
Q 3559 666 3084 287 
Q 2609 -91 1734 -91 
Q 1441 -91 1130 -33 
Q 819 25 488 141 
L 488 750 
Q 750 597 1062 519 
Q 1375 441 1716 441 
Q 2309 441 2620 675 
Q 2931 909 2931 1356 
Q 2931 1769 2642 2001 
Q 2353 2234 1838 2234 
L 1294 2234 
L 1294 2753 
L 1863 2753 
Q 2328 2753 2575 2939 
Q 2822 3125 2822 3475 
Q 2822 3834 2567 4026 
Q 2313 4219 1838 4219 
Q 1578 4219 1281 4162 
Q 984 4106 628 3988 
L 628 4550 
Q 988 4650 1302 4700 
Q 1616 4750 1894 4750 
Q 2613 4750 3031 4423 
Q 3450 4097 3450 3541 
Q 3450 3153 3228 2886 
Q 3006 2619 2597 2516 
z
" transform="scale(0.015625)"/>
       </defs>
       <use xlink:href="#DejaVuSans-33"/>
       <use xlink:href="#DejaVuSans-30" x="63.623047"/>
      </g>
     </g>
    </g>
    <g id="xtick_5">
     <g id="line2d_5">
      <g>
       <use xlink:href="#m739b43a99a" x="356.141028" y="307.584" style="stroke: #000000; stroke-width: 0.8"/>
      </g>
     </g>
     <g id="text_5">
      <!-- 40 -->
      <g transform="translate(349.778528 322.182437)scale(0.1 -0.1)">
       <defs>
        <path id="DejaVuSans-34" d="M 2419 4116 
L 825 1625 
L 2419 1625 
L 2419 4116 
z
M 2253 4666 
L 3047 4666 
L 3047 1625 
L 3713 1625 
L 3713 1100 
L 3047 1100 
L 3047 0 
L 2419 0 
L 2419 1100 
L 313 1100 
L 313 1709 
L 2253 4666 
z
" transform="scale(0.015625)"/>
       </defs>
       <use xlink:href="#DejaVuSans-34"/>
       <use xlink:href="#DejaVuSans-30" x="63.623047"/>
      </g>
     </g>
    </g>
    <g id="text_6">
     <!-- Generations -->
     <g transform="translate(205.662344 335.860562)scale(0.1 -0.1)">
      <defs>
       <path id="DejaVuSans-47" d="M 3809 666 
L 3809 1919 
L 2778 1919 
L 2778 2438 
L 4434 2438 
L 4434 434 
Q 4069 175 3628 42 
Q 3188 -91 2688 -91 
Q 1594 -91 976 548 
Q 359 1188 359 2328 
Q 359 3472 976 4111 
Q 1594 4750 2688 4750 
Q 3144 4750 3555 4637 
Q 3966 4525 4313 4306 
L 4313 3634 
Q 3963 3931 3569 4081 
Q 3175 4231 2741 4231 
Q 1884 4231 1454 3753 
Q 1025 3275 1025 2328 
Q 1025 1384 1454 906 
Q 1884 428 2741 428 
Q 3075 428 3337 486 
Q 3600 544 3809 666 
z
" transform="scale(0.015625)"/>
       <path id="DejaVuSans-65" d="M 3597 1894 
L 3597 1613 
L 953 1613 
Q 991 1019 1311 708 
Q 1631 397 2203 397 
Q 2534 397 2845 478 
Q 3156 559 3463 722 
L 3463 178 
Q 3153 47 2828 -22 
Q 2503 -91 2169 -91 
Q 1331 -91 842 396 
Q 353 884 353 1716 
Q 353 2575 817 3079 
Q 1281 3584 2069 3584 
Q 2775 3584 3186 3129 
Q 3597 2675 3597 1894 
z
M 3022 2063 
Q 3016 2534 2758 2815 
Q 2500 3097 2075 3097 
Q 1594 3097 1305 2825 
Q 1016 2553 972 2059 
L 3022 2063 
z
" transform="scale(0.015625)"/>
       <path id="DejaVuSans-6e" d="M 3513 2113 
L 3513 0 
L 2938 0 
L 2938 2094 
Q 2938 2591 2744 2837 
Q 2550 3084 2163 3084 
Q 1697 3084 1428 2787 
Q 1159 2491 1159 1978 
L 1159 0 
L 581 0 
L 581 3500 
L 1159 3500 
L 1159 2956 
Q 1366 3272 1645 3428 
Q 1925 3584 2291 3584 
Q 2894 3584 3203 3211 
Q 3513 2838 3513 2113 
z
" transform="scale(0.015625)"/>
       <path id="DejaVuSans-72" d="M 2631 2963 
Q 2534 3019 2420 3045 
Q 2306 3072 2169 3072 
Q 1681 3072 1420 2755 
Q 1159 2438 1159 1844 
L 1159 0 
L 581 0 
L 581 3500 
L 1159 3500 
L 1159 2956 
Q 1341 3275 1631 3429 
Q 1922 3584 2338 3584 
Q 2397 3584 2469 3576 
Q 2541 3569 2628 3553 
L 2631 2963 
z
" transform="scale(0.015625)"/>
       <path id="DejaVuSans-61" d="M 2194 1759 
Q 1497 1759 1228 1600 
Q 959 1441 959 1056 
Q 959 750 1161 570 
Q 1363 391 1709 391 
Q 2188 391 2477 730 
Q 2766 1069 2766 1631 
L 2766 1759 
L 2194 1759 
z
M 3341 1997 
L 3341 0 
L 2766 0 
L 2766 531 
Q 2569 213 2275 61 
Q 1981 -91 1556 -91 
Q 1019 -91 701 211 
Q 384 513 384 1019 
Q 384 1609 779 1909 
Q 1175 2209 1959 2209 
L 2766 2209 
L 2766 2266 
Q 2766 2663 2505 2880 
Q 2244 3097 1772 3097 
Q 1472 3097 1187 3025 
Q 903 2953 641 2809 
L 641 3341 
Q 956 3463 1253 3523 
Q 1550 3584 1831 3584 
Q 2591 3584 2966 3190 
Q 3341 2797 3341 1997 
z
" transform="scale(0.015625)"/>
       <path id="DejaVuSans-74" d="M 1172 4494 
L 1172 3500 
L 2356 3500 
L 2356 3053 
L 1172 3053 
L 1172 1153 
Q 1172 725 1289 603 
Q 1406 481 1766 481 
L 2356 481 
L 2356 0 
L 1766 0 
Q 1100 0 847 248 
Q 594 497 594 1153 
L 594 3053 
L 172 3053 
L 172 3500 
L 594 3500 
L 594 4494 
L 1172 4494 
z
" transform="scale(0.015625)"/>
       <path id="DejaVuSans-69" d="M 603 3500 
L 1178 3500 
L 1178 0 
L 603 0 
L 603 3500 
z
M 603 4863 
L 1178 4863 
L 1178 4134 
L 603 4134 
L 603 4863 
z
" transform="scale(0.015625)"/>
       <path id="DejaVuSans-6f" d="M 1959 3097 
Q 1497 3097 1228 2736 
Q 959 2375 959 1747 
Q 959 1119 1226 758 
Q 1494 397 1959 397 
Q 2419 397 2687 759 
Q 2956 1122 2956 1747 
Q 2956 2369 2687 2733 
Q 2419 3097 1959 3097 
z
M 1959 3584 
Q 2709 3584 3137 3096 
Q 3566 2609 3566 1747 
Q 3566 888 3137 398 
Q 2709 -91 1959 -91 
Q 1206 -91 779 398 
Q 353 888 353 1747 
Q 353 2609 779 3096 
Q 1206 3584 1959 3584 
z
" transform="scale(0.015625)"/>
       <path id="DejaVuSans-73" d="M 2834 3397 
L 2834 2853 
Q 2591 2978 2328 3040 
Q 2066 3103 1784 3103 
Q 1356 3103 1142 2972 
Q 928 2841 928 2578 
Q 928 2378 1081 2264 
Q 1234 2150 1697 2047 
L 1894 2003 
Q 2506 1872 2764 1633 
Q 3022 1394 3022 966 
Q 3022 478 2636 193 
Q 2250 -91 1575 -91 
Q 1294 -91 989 -36 
Q 684 19 347 128 
L 347 722 
Q 666 556 975 473 
Q 1284 391 1588 391 
Q 1994 391 2212 530 
Q 2431 669 2431 922 
Q 2431 1156 2273 1281 
Q 2116 1406 1581 1522 
L 1381 1569 
Q 847 1681 609 1914 
Q 372 2147 372 2553 
Q 372 3047 722 3315 
Q 1072 3584 1716 3584 
Q 2034 3584 2315 3537 
Q 2597 3491 2834 3397 
z
" transform="scale(0.015625)"/>
      </defs>
      <use xlink:href="#DejaVuSans-47"/>
      <use xlink:href="#DejaVuSans-65" x="77.490234"/>
      <use xlink:href="#DejaVuSans-6e" x="139.013672"/>
      <use xlink:href="#DejaVuSans-65" x="202.392578"/>
      <use xlink:href="#DejaVuSans-72" x="263.916016"/>
      <use xlink:href="#DejaVuSans-61" x="305.029297"/>
      <use xlink:href="#DejaVuSans-74" x="366.308594"/>
      <use xlink:href="#DejaVuSans-69" x="405.517578"/>
      <use xlink:href="#DejaVuSans-6f" x="433.300781"/>
      <use xlink:href="#DejaVuSans-6e" x="494.482422"/>
      <use xlink:href="#DejaVuSans-73" x="557.861328"/>
     </g>
    </g>
   </g>
   <g id="matplotlib.axis_2">
    <g id="ytick_1">
     <g id="line2d_6">
      <defs>
       <path id="m0b7d151a74" d="M 0 0 
L -3.5 0 
" style="stroke: #000000; stroke-width: 0.8"/>
      </defs>
      <g>
       <use xlink:href="#m0b7d151a74" x="57.6" y="307.584" style="stroke: #000000; stroke-width: 0.8"/>
      </g>
     </g>
     <g id="text_7">
      <!-- 0 -->
      <g transform="translate(44.2375 311.383219)scale(0.1 -0.1)">
       <use xlink:href="#DejaVuSans-30"/>
      </g>
     </g>
    </g>
    <g id="ytick_2">
     <g id="line2d_7">
      <g>
       <use xlink:href="#m0b7d151a74" x="57.6" y="274.236632" style="stroke: #000000; stroke-width: 0.8"/>
      </g>
     </g>
     <g id="text_8">
      <!-- 20 -->
      <g transform="translate(37.875 278.03585)scale(0.1 -0.1)">
       <use xlink:href="#DejaVuSans-32"/>
       <use xlink:href="#DejaVuSans-30" x="63.623047"/>
      </g>
     </g>
    </g>
    <g id="ytick_3">
     <g id="line2d_8">
      <g>
       <use xlink:href="#m0b7d151a74" x="57.6" y="240.889263" style="stroke: #000000; stroke-width: 0.8"/>
      </g>
     </g>
     <g id="text_9">
      <!-- 40 -->
      <g transform="translate(37.875 244.688482)scale(0.1 -0.1)">
       <use xlink:href="#DejaVuSans-34"/>
       <use xlink:href="#DejaVuSans-30" x="63.623047"/>
      </g>
     </g>
    </g>
    <g id="ytick_4">
     <g id="line2d_9">
      <g>
       <use xlink:href="#m0b7d151a74" x="57.6" y="207.541895" style="stroke: #000000; stroke-width: 0.8"/>
      </g>
     </g>
     <g id="text_10">
      <!-- 60 -->
      <g transform="translate(37.875 211.341113)scale(0.1 -0.1)">
       <defs>
        <path id="DejaVuSans-36" d="M 2113 2584 
Q 1688 2584 1439 2293 
Q 1191 2003 1191 1497 
Q 1191 994 1439 701 
Q 1688 409 2113 409 
Q 2538 409 2786 701 
Q 3034 994 3034 1497 
Q 3034 2003 2786 2293 
Q 2538 2584 2113 2584 
z
M 3366 4563 
L 3366 3988 
Q 3128 4100 2886 4159 
Q 2644 4219 2406 4219 
Q 1781 4219 1451 3797 
Q 1122 3375 1075 2522 
Q 1259 2794 1537 2939 
Q 1816 3084 2150 3084 
Q 2853 3084 3261 2657 
Q 3669 2231 3669 1497 
Q 3669 778 3244 343 
Q 2819 -91 2113 -91 
Q 1303 -91 875 529 
Q 447 1150 447 2328 
Q 447 3434 972 4092 
Q 1497 4750 2381 4750 
Q 2619 4750 2861 4703 
Q 3103 4656 3366 4563 
z
" transform="scale(0.015625)"/>
       </defs>
       <use xlink:href="#DejaVuSans-36"/>
       <use xlink:href="#DejaVuSans-30" x="63.623047"/>
      </g>
     </g>
    </g>
    <g id="ytick_5">
     <g id="line2d_10">
      <g>
       <use xlink:href="#m0b7d151a74" x="57.6" y="174.194526" style="stroke: #000000; stroke-width: 0.8"/>
      </g>
     </g>
     <g id="text_11">
      <!-- 80 -->
      <g transform="translate(37.875 177.993745)scale(0.1 -0.1)">
       <defs>
        <path id="DejaVuSans-38" d="M 2034 2216 
Q 1584 2216 1326 1975 
Q 1069 1734 1069 1313 
Q 1069 891 1326 650 
Q 1584 409 2034 409 
Q 2484 409 2743 651 
Q 3003 894 3003 1313 
Q 3003 1734 2745 1975 
Q 2488 2216 2034 2216 
z
M 1403 2484 
Q 997 2584 770 2862 
Q 544 3141 544 3541 
Q 544 4100 942 4425 
Q 1341 4750 2034 4750 
Q 2731 4750 3128 4425 
Q 3525 4100 3525 3541 
Q 3525 3141 3298 2862 
Q 3072 2584 2669 2484 
Q 3125 2378 3379 2068 
Q 3634 1759 3634 1313 
Q 3634 634 3220 271 
Q 2806 -91 2034 -91 
Q 1263 -91 848 271 
Q 434 634 434 1313 
Q 434 1759 690 2068 
Q 947 2378 1403 2484 
z
M 1172 3481 
Q 1172 3119 1398 2916 
Q 1625 2713 2034 2713 
Q 2441 2713 2670 2916 
Q 2900 3119 2900 3481 
Q 2900 3844 2670 4047 
Q 2441 4250 2034 4250 
Q 1625 4250 1398 4047 
Q 1172 3844 1172 3481 
z
" transform="scale(0.015625)"/>
       </defs>
       <use xlink:href="#DejaVuSans-38"/>
       <use xlink:href="#DejaVuSans-30" x="63.623047"/>
      </g>
     </g>
    </g>
    <g id="ytick_6">
     <g id="line2d_11">
      <g>
       <use xlink:href="#m0b7d151a74" x="57.6" y="140.847158" style="stroke: #000000; stroke-width: 0.8"/>
      </g>
     </g>
     <g id="text_12">
      <!-- 100 -->
      <g transform="translate(31.5125 144.646377)scale(0.1 -0.1)">
       <use xlink:href="#DejaVuSans-31"/>
       <use xlink:href="#DejaVuSans-30" x="63.623047"/>
       <use xlink:href="#DejaVuSans-30" x="127.246094"/>
      </g>
     </g>
    </g>
    <g id="ytick_7">
     <g id="line2d_12">
      <g>
       <use xlink:href="#m0b7d151a74" x="57.6" y="107.499789" style="stroke: #000000; stroke-width: 0.8"/>
      </g>
     </g>
     <g id="text_13">
      <!-- 120 -->
      <g transform="translate(31.5125 111.299008)scale(0.1 -0.1)">
       <use xlink:href="#DejaVuSans-31"/>
       <use xlink:href="#DejaVuSans-32" x="63.623047"/>
       <use xlink:href="#DejaVuSans-30" x="127.246094"/>
      </g>
     </g>
    </g>
    <g id="ytick_8">
     <g id="line2d_13">
      <g>
       <use xlink:href="#m0b7d151a74" x="57.6" y="74.152421" style="stroke: #000000; stroke-width: 0.8"/>
      </g>
     </g>
     <g id="text_14">
      <!-- 140 -->
      <g transform="translate(31.5125 77.95164)scale(0.1 -0.1)">
       <use xlink:href="#DejaVuSans-31"/>
       <use xlink:href="#DejaVuSans-34" x="63.623047"/>
       <use xlink:href="#DejaVuSans-30" x="127.246094"/>
      </g>
     </g>
    </g>
    <g id="text_15">
     <!-- Size per Species -->
     <g transform="translate(25.432812 215.520969)rotate(-90)scale(0.1 -0.1)">
      <defs>
       <path id="DejaVuSans-53" d="M 3425 4513 
L 3425 3897 
Q 3066 4069 2747 4153 
Q 2428 4238 2131 4238 
Q 1616 4238 1336 4038 
Q 1056 3838 1056 3469 
Q 1056 3159 1242 3001 
Q 1428 2844 1947 2747 
L 2328 2669 
Q 3034 2534 3370 2195 
Q 3706 1856 3706 1288 
Q 3706 609 3251 259 
Q 2797 -91 1919 -91 
Q 1588 -91 1214 -16 
Q 841 59 441 206 
L 441 856 
Q 825 641 1194 531 
Q 1563 422 1919 422 
Q 2459 422 2753 634 
Q 3047 847 3047 1241 
Q 3047 1584 2836 1778 
Q 2625 1972 2144 2069 
L 1759 2144 
Q 1053 2284 737 2584 
Q 422 2884 422 3419 
Q 422 4038 858 4394 
Q 1294 4750 2059 4750 
Q 2388 4750 2728 4690 
Q 3069 4631 3425 4513 
z
" transform="scale(0.015625)"/>
       <path id="DejaVuSans-7a" d="M 353 3500 
L 3084 3500 
L 3084 2975 
L 922 459 
L 3084 459 
L 3084 0 
L 275 0 
L 275 525 
L 2438 3041 
L 353 3041 
L 353 3500 
z
" transform="scale(0.015625)"/>
       <path id="DejaVuSans-20" transform="scale(0.015625)"/>
       <path id="DejaVuSans-70" d="M 1159 525 
L 1159 -1331 
L 581 -1331 
L 581 3500 
L 1159 3500 
L 1159 2969 
Q 1341 3281 1617 3432 
Q 1894 3584 2278 3584 
Q 2916 3584 3314 3078 
Q 3713 2572 3713 1747 
Q 3713 922 3314 415 
Q 2916 -91 2278 -91 
Q 1894 -91 1617 61 
Q 1341 213 1159 525 
z
M 3116 1747 
Q 3116 2381 2855 2742 
Q 2594 3103 2138 3103 
Q 1681 3103 1420 2742 
Q 1159 2381 1159 1747 
Q 1159 1113 1420 752 
Q 1681 391 2138 391 
Q 2594 391 2855 752 
Q 3116 1113 3116 1747 
z
" transform="scale(0.015625)"/>
       <path id="DejaVuSans-63" d="M 3122 3366 
L 3122 2828 
Q 2878 2963 2633 3030 
Q 2388 3097 2138 3097 
Q 1578 3097 1268 2742 
Q 959 2388 959 1747 
Q 959 1106 1268 751 
Q 1578 397 2138 397 
Q 2388 397 2633 464 
Q 2878 531 3122 666 
L 3122 134 
Q 2881 22 2623 -34 
Q 2366 -91 2075 -91 
Q 1284 -91 818 406 
Q 353 903 353 1747 
Q 353 2603 823 3093 
Q 1294 3584 2113 3584 
Q 2378 3584 2631 3529 
Q 2884 3475 3122 3366 
z
" transform="scale(0.015625)"/>
      </defs>
      <use xlink:href="#DejaVuSans-53"/>
      <use xlink:href="#DejaVuSans-69" x="63.476562"/>
      <use xlink:href="#DejaVuSans-7a" x="91.259766"/>
      <use xlink:href="#DejaVuSans-65" x="143.75"/>
      <use xlink:href="#DejaVuSans-20" x="205.273438"/>
      <use xlink:href="#DejaVuSans-70" x="237.060547"/>
      <use xlink:href="#DejaVuSans-65" x="300.537109"/>
      <use xlink:href="#DejaVuSans-72" x="362.060547"/>
      <use xlink:href="#DejaVuSans-20" x="403.173828"/>
      <use xlink:href="#DejaVuSans-53" x="434.960938"/>
      <use xlink:href="#DejaVuSans-70" x="498.4375"/>
      <use xlink:href="#DejaVuSans-65" x="561.914062"/>
      <use xlink:href="#DejaVuSans-63" x="623.4375"/>
      <use xlink:href="#DejaVuSans-69" x="678.417969"/>
      <use xlink:href="#DejaVuSans-65" x="706.201172"/>
      <use xlink:href="#DejaVuSans-73" x="767.724609"/>
     </g>
    </g>
   </g>
   <g id="patch_3">
    <path d="M 57.6 307.584 
L 57.6 41.472 
" style="fill: none; stroke: #000000; stroke-width: 0.8; stroke-linejoin: miter; stroke-linecap: square"/>
   </g>
   <g id="patch_4">
    <path d="M 414.72 307.584 
L 414.72 41.472 
" style="fill: none; stroke: #000000; stroke-width: 0.8; stroke-linejoin: miter; stroke-linecap: square"/>
   </g>
   <g id="patch_5">
    <path d="M 57.6 307.584 
L 414.72 307.584 
" style="fill: none; stroke: #000000; stroke-width: 0.8; stroke-linejoin: miter; stroke-linecap: square"/>
   </g>
   <g id="patch_6">
    <path d="M 57.6 41.472 
L 414.72 41.472 
" style="fill: none; stroke: #000000; stroke-width: 0.8; stroke-linejoin: miter; stroke-linecap: square"/>
   </g>
   <g id="text_16">
    <!-- Speciation -->
    <g transform="translate(204.714375 35.472)scale(0.12 -0.12)">
     <use xlink:href="#DejaVuSans-53"/>
     <use xlink:href="#DejaVuSans-70" x="63.476562"/>
     <use xlink:href="#DejaVuSans-65" x="126.953125"/>
     <use xlink:href="#DejaVuSans-63" x="188.476562"/>
     <use xlink:href="#DejaVuSans-69" x="243.457031"/>
     <use xlink:href="#DejaVuSans-61" x="271.240234"/>
     <use xlink:href="#DejaVuSans-74" x="332.519531"/>
     <use xlink:href="#DejaVuSans-69" x="371.728516"/>
     <use xlink:href="#DejaVuSans-6f" x="399.511719"/>
     <use xlink:href="#DejaVuSans-6e" x="460.693359"/>
    </g>
   </g>
  </g>
 </g>
 <defs>
  <clipPath id="p0b068933af">
   <rect x="57.6" y="41.472" width="357.12" height="266.112"/>
  </clipPath>
 </defs>
</svg>
