<?xml version="1.0" encoding="utf-8" standalone="no"?>
<!DOCTYPE svg PUBLIC "-//W3C//DTD SVG 1.1//EN"
  "http://www.w3.org/Graphics/SVG/1.1/DTD/svg11.dtd">
<svg xmlns:xlink="http://www.w3.org/1999/xlink" width="460.8pt" height="345.6pt" viewBox="0 0 460.8 345.6" xmlns="http://www.w3.org/2000/svg" version="1.1">
 <metadata>
  <rdf:RDF xmlns:dc="http://purl.org/dc/elements/1.1/" xmlns:cc="http://creativecommons.org/ns#" xmlns:rdf="http://www.w3.org/1999/02/22-rdf-syntax-ns#">
   <cc:Work>
    <dc:type rdf:resource="http://purl.org/dc/dcmitype/StillImage"/>
    <dc:date>2023-01-25T16:08:20.327523</dc:date>
    <dc:format>image/svg+xml</dc:format>
    <dc:creator>
     <cc:Agent>
      <dc:title>Matplotlib v3.5.3, https://matplotlib.org/</dc:title>
     </cc:Agent>
    </dc:creator>
   </cc:Work>
  </rdf:RDF>
 </metadata>
 <defs>
  <style type="text/css">*{stroke-linejoin: round; stroke-linecap: butt}</style>
 </defs>
 <g id="figure_1">
  <g id="patch_1">
   <path d="M 0 345.6 
L 460.8 345.6 
L 460.8 0 
L 0 0 
z
" style="fill: #ffffff"/>
  </g>
  <g id="axes_1">
   <g id="patch_2">
    <path d="M 57.6 307.584 
L 414.72 307.584 
L 414.72 41.472 
L 57.6 41.472 
z
" style="fill: #ffffff"/>
   </g>
   <g id="PolyCollection_1">
    <path d="M 73.832727 59.113412 
L 73.832727 307.584 
L 80.890435 307.584 
L 87.948142 307.584 
L 95.00585 307.584 
L 102.063557 307.584 
L 109.121265 307.584 
L 116.178972 307.584 
L 123.23668 307.584 
L 130.294387 307.584 
L 137.352095 307.584 
L 144.409802 307.584 
L 151.46751 307.584 
L 158.525217 307.584 
L 165.582925 307.584 
L 172.640632 307.584 
L 179.69834 307.584 
L 186.756047 307.584 
L 193.813755 307.584 
L 200.871462 307.584 
L 207.92917 307.584 
L 214.986877 307.584 
L 222.044585 307.584 
L 229.102292 307.584 
L 236.16 307.584 
L 243.217708 307.584 
L 250.275415 307.584 
L 257.333123 307.584 
L 264.39083 307.584 
L 271.448538 307.584 
L 278.506245 307.584 
L 285.563953 307.584 
L 292.62166 307.584 
L 299.679368 307.584 
L 306.737075 307.584 
L 313.794783 307.584 
L 320.85249 307.584 
L 327.910198 307.584 
L 334.967905 307.584 
L 342.025613 307.584 
L 349.08332 307.584 
L 356.141028 307.584 
L 363.198735 307.584 
L 370.256443 307.584 
L 377.31415 307.584 
L 384.371858 307.584 
L 391.429565 307.584 
L 398.487273 307.584 
L 398.487273 281.080471 
L 398.487273 281.080471 
L 391.429565 279.424 
L 384.371858 274.454588 
L 377.31415 284.393412 
L 370.256443 287.706353 
L 363.198735 287.706353 
L 356.141028 279.424 
L 349.08332 277.767529 
L 342.025613 279.424 
L 334.967905 274.454588 
L 327.910198 266.172235 
L 320.85249 277.767529 
L 313.794783 274.454588 
L 306.737075 274.454588 
L 299.679368 276.111059 
L 292.62166 276.111059 
L 285.563953 277.767529 
L 278.506245 287.706353 
L 271.448538 271.141647 
L 264.39083 264.515765 
L 257.333123 287.706353 
L 250.275415 239.668706 
L 243.217708 188.318118 
L 236.16 193.287529 
L 229.102292 198.256941 
L 222.044585 209.852235 
L 214.986877 239.668706 
L 207.92917 267.828706 
L 200.871462 141.936941 
L 193.813755 198.256941 
L 186.756047 120.402824 
L 179.69834 112.120471 
L 172.640632 87.273412 
L 165.582925 110.464 
L 158.525217 75.678118 
L 151.46751 59.113412 
L 144.409802 59.113412 
L 137.352095 59.113412 
L 130.294387 59.113412 
L 123.23668 59.113412 
L 116.178972 59.113412 
L 109.121265 59.113412 
L 102.063557 59.113412 
L 95.00585 59.113412 
L 87.948142 59.113412 
L 80.890435 59.113412 
L 73.832727 59.113412 
z
" clip-path="url(#p80401321ab)" style="fill: #1f77b4"/>
   </g>
   <g id="PolyCollection_2">
    <path d="M 73.832727 59.113412 
L 73.832727 59.113412 
L 80.890435 59.113412 
L 87.948142 59.113412 
L 95.00585 59.113412 
L 102.063557 59.113412 
L 109.121265 59.113412 
L 116.178972 59.113412 
L 123.23668 59.113412 
L 130.294387 59.113412 
L 137.352095 59.113412 
L 144.409802 59.113412 
L 151.46751 59.113412 
L 158.525217 75.678118 
L 165.582925 110.464 
L 172.640632 87.273412 
L 179.69834 112.120471 
L 186.756047 120.402824 
L 193.813755 198.256941 
L 200.871462 141.936941 
L 207.92917 267.828706 
L 214.986877 239.668706 
L 222.044585 209.852235 
L 229.102292 198.256941 
L 236.16 193.287529 
L 243.217708 188.318118 
L 250.275415 239.668706 
L 257.333123 287.706353 
L 264.39083 264.515765 
L 271.448538 271.141647 
L 278.506245 287.706353 
L 285.563953 277.767529 
L 292.62166 276.111059 
L 299.679368 276.111059 
L 306.737075 274.454588 
L 313.794783 274.454588 
L 320.85249 277.767529 
L 327.910198 266.172235 
L 334.967905 274.454588 
L 342.025613 279.424 
L 349.08332 277.767529 
L 356.141028 279.424 
L 363.198735 287.706353 
L 370.256443 287.706353 
L 377.31415 284.393412 
L 384.371858 274.454588 
L 391.429565 279.424 
L 398.487273 281.080471 
L 398.487273 246.294588 
L 398.487273 246.294588 
L 391.429565 252.920471 
L 384.371858 242.981647 
L 377.31415 261.202824 
L 370.256443 261.202824 
L 363.198735 267.828706 
L 356.141028 266.172235 
L 349.08332 256.233412 
L 342.025613 266.172235 
L 334.967905 256.233412 
L 327.910198 242.981647 
L 320.85249 264.515765 
L 313.794783 269.485176 
L 306.737075 261.202824 
L 299.679368 262.859294 
L 292.62166 246.294588 
L 285.563953 241.325176 
L 278.506245 244.638118 
L 271.448538 254.576941 
L 264.39083 233.042824 
L 257.333123 266.172235 
L 250.275415 189.974588 
L 243.217708 146.906353 
L 236.16 148.562824 
L 229.102292 135.311059 
L 222.044585 156.845176 
L 214.986877 115.433412 
L 207.92917 85.616941 
L 200.871462 59.113412 
L 193.813755 59.113412 
L 186.756047 59.113412 
L 179.69834 59.113412 
L 172.640632 59.113412 
L 165.582925 59.113412 
L 158.525217 59.113412 
L 151.46751 59.113412 
L 144.409802 59.113412 
L 137.352095 59.113412 
L 130.294387 59.113412 
L 123.23668 59.113412 
L 116.178972 59.113412 
L 109.121265 59.113412 
L 102.063557 59.113412 
L 95.00585 59.113412 
L 87.948142 59.113412 
L 80.890435 59.113412 
L 73.832727 59.113412 
z
" clip-path="url(#p80401321ab)" style="fill: #ff7f0e"/>
   </g>
   <g id="PolyCollection_3">
    <path d="M 73.832727 59.113412 
L 73.832727 59.113412 
L 80.890435 59.113412 
L 87.948142 59.113412 
L 95.00585 59.113412 
L 102.063557 59.113412 
L 109.121265 59.113412 
L 116.178972 59.113412 
L 123.23668 59.113412 
L 130.294387 59.113412 
L 137.352095 59.113412 
L 144.409802 59.113412 
L 151.46751 59.113412 
L 158.525217 59.113412 
L 165.582925 59.113412 
L 172.640632 59.113412 
L 179.69834 59.113412 
L 186.756047 59.113412 
L 193.813755 59.113412 
L 200.871462 59.113412 
L 207.92917 85.616941 
L 214.986877 115.433412 
L 222.044585 156.845176 
L 229.102292 135.311059 
L 236.16 148.562824 
L 243.217708 146.906353 
L 250.275415 189.974588 
L 257.333123 266.172235 
L 264.39083 233.042824 
L 271.448538 254.576941 
L 278.506245 244.638118 
L 285.563953 241.325176 
L 292.62166 246.294588 
L 299.679368 262.859294 
L 306.737075 261.202824 
L 313.794783 269.485176 
L 320.85249 264.515765 
L 327.910198 242.981647 
L 334.967905 256.233412 
L 342.025613 266.172235 
L 349.08332 256.233412 
L 356.141028 266.172235 
L 363.198735 267.828706 
L 370.256443 261.202824 
L 377.31415 261.202824 
L 384.371858 242.981647 
L 391.429565 252.920471 
L 398.487273 246.294588 
L 398.487273 224.760471 
L 398.487273 224.760471 
L 391.429565 234.699294 
L 384.371858 231.386353 
L 377.31415 244.638118 
L 370.256443 241.325176 
L 363.198735 249.607529 
L 356.141028 251.264 
L 349.08332 221.447529 
L 342.025613 239.668706 
L 334.967905 228.073412 
L 327.910198 218.134588 
L 320.85249 238.012235 
L 313.794783 241.325176 
L 306.737075 241.325176 
L 299.679368 244.638118 
L 292.62166 219.791059 
L 285.563953 213.165176 
L 278.506245 226.416941 
L 271.448538 163.471059 
L 264.39083 118.746353 
L 257.333123 100.525176 
L 250.275415 131.998118 
L 243.217708 85.616941 
L 236.16 100.525176 
L 229.102292 108.807529 
L 222.044585 112.120471 
L 214.986877 72.365176 
L 207.92917 59.113412 
L 200.871462 59.113412 
L 193.813755 59.113412 
L 186.756047 59.113412 
L 179.69834 59.113412 
L 172.640632 59.113412 
L 165.582925 59.113412 
L 158.525217 59.113412 
L 151.46751 59.113412 
L 144.409802 59.113412 
L 137.352095 59.113412 
L 130.294387 59.113412 
L 123.23668 59.113412 
L 116.178972 59.113412 
L 109.121265 59.113412 
L 102.063557 59.113412 
L 95.00585 59.113412 
L 87.948142 59.113412 
L 80.890435 59.113412 
L 73.832727 59.113412 
z
" clip-path="url(#p80401321ab)" style="fill: #2ca02c"/>
   </g>
   <g id="PolyCollection_4">
    <path d="M 73.832727 59.113412 
L 73.832727 59.113412 
L 80.890435 59.113412 
L 87.948142 59.113412 
L 95.00585 59.113412 
L 102.063557 59.113412 
L 109.121265 59.113412 
L 116.178972 59.113412 
L 123.23668 59.113412 
L 130.294387 59.113412 
L 137.352095 59.113412 
L 144.409802 59.113412 
L 151.46751 59.113412 
L 158.525217 59.113412 
L 165.582925 59.113412 
L 172.640632 59.113412 
L 179.69834 59.113412 
L 186.756047 59.113412 
L 193.813755 59.113412 
L 200.871462 59.113412 
L 207.92917 59.113412 
L 214.986877 72.365176 
L 222.044585 112.120471 
L 229.102292 108.807529 
L 236.16 100.525176 
L 243.217708 85.616941 
L 250.275415 131.998118 
L 257.333123 100.525176 
L 264.39083 118.746353 
L 271.448538 163.471059 
L 278.506245 226.416941 
L 285.563953 213.165176 
L 292.62166 219.791059 
L 299.679368 244.638118 
L 306.737075 241.325176 
L 313.794783 241.325176 
L 320.85249 238.012235 
L 327.910198 218.134588 
L 334.967905 228.073412 
L 342.025613 239.668706 
L 349.08332 221.447529 
L 356.141028 251.264 
L 363.198735 249.607529 
L 370.256443 241.325176 
L 377.31415 244.638118 
L 384.371858 231.386353 
L 391.429565 234.699294 
L 398.487273 224.760471 
L 398.487273 206.539294 
L 398.487273 206.539294 
L 391.429565 218.134588 
L 384.371858 218.134588 
L 377.31415 234.699294 
L 370.256443 218.134588 
L 363.198735 228.073412 
L 356.141028 228.073412 
L 349.08332 201.569882 
L 342.025613 221.447529 
L 334.967905 211.508706 
L 327.910198 213.165176 
L 320.85249 226.416941 
L 313.794783 233.042824 
L 306.737075 203.226353 
L 299.679368 214.821647 
L 292.62166 188.318118 
L 285.563953 181.692235 
L 278.506245 188.318118 
L 271.448538 128.685176 
L 264.39083 98.868706 
L 257.333123 83.960471 
L 250.275415 65.739294 
L 243.217708 59.113412 
L 236.16 59.113412 
L 229.102292 57.456941 
L 222.044585 59.113412 
L 214.986877 59.113412 
L 207.92917 59.113412 
L 200.871462 59.113412 
L 193.813755 59.113412 
L 186.756047 59.113412 
L 179.69834 59.113412 
L 172.640632 59.113412 
L 165.582925 59.113412 
L 158.525217 59.113412 
L 151.46751 59.113412 
L 144.409802 59.113412 
L 137.352095 59.113412 
L 130.294387 59.113412 
L 123.23668 59.113412 
L 116.178972 59.113412 
L 109.121265 59.113412 
L 102.063557 59.113412 
L 95.00585 59.113412 
L 87.948142 59.113412 
L 80.890435 59.113412 
L 73.832727 59.113412 
z
" clip-path="url(#p80401321ab)" style="fill: #d62728"/>
   </g>
   <g id="PolyCollection_5">
    <path d="M 73.832727 59.113412 
L 73.832727 59.113412 
L 80.890435 59.113412 
L 87.948142 59.113412 
L 95.00585 59.113412 
L 102.063557 59.113412 
L 109.121265 59.113412 
L 116.178972 59.113412 
L 123.23668 59.113412 
L 130.294387 59.113412 
L 137.352095 59.113412 
L 144.409802 59.113412 
L 151.46751 59.113412 
L 158.525217 59.113412 
L 165.582925 59.113412 
L 172.640632 59.113412 
L 179.69834 59.113412 
L 186.756047 59.113412 
L 193.813755 59.113412 
L 200.871462 59.113412 
L 207.92917 59.113412 
L 214.986877 59.113412 
L 222.044585 59.113412 
L 229.102292 57.456941 
L 236.16 59.113412 
L 243.217708 59.113412 
L 250.275415 65.739294 
L 257.333123 83.960471 
L 264.39083 98.868706 
L 271.448538 128.685176 
L 278.506245 188.318118 
L 285.563953 181.692235 
L 292.62166 188.318118 
L 299.679368 214.821647 
L 306.737075 203.226353 
L 313.794783 233.042824 
L 320.85249 226.416941 
L 327.910198 213.165176 
L 334.967905 211.508706 
L 342.025613 221.447529 
L 349.08332 201.569882 
L 356.141028 228.073412 
L 363.198735 228.073412 
L 370.256443 218.134588 
L 377.31415 234.699294 
L 384.371858 218.134588 
L 391.429565 218.134588 
L 398.487273 206.539294 
L 398.487273 183.348706 
L 398.487273 183.348706 
L 391.429565 180.035765 
L 384.371858 185.005176 
L 377.31415 186.661647 
L 370.256443 171.753412 
L 363.198735 178.379294 
L 356.141028 180.035765 
L 349.08332 186.661647 
L 342.025613 204.882824 
L 334.967905 201.569882 
L 327.910198 198.256941 
L 320.85249 214.821647 
L 313.794783 206.539294 
L 306.737075 171.753412 
L 299.679368 171.753412 
L 292.62166 148.562824 
L 285.563953 143.593412 
L 278.506245 138.624 
L 271.448538 77.334588 
L 264.39083 59.113412 
L 257.333123 57.456941 
L 250.275415 60.769882 
L 243.217708 59.113412 
L 236.16 59.113412 
L 229.102292 57.456941 
L 222.044585 59.113412 
L 214.986877 59.113412 
L 207.92917 59.113412 
L 200.871462 59.113412 
L 193.813755 59.113412 
L 186.756047 59.113412 
L 179.69834 59.113412 
L 172.640632 59.113412 
L 165.582925 59.113412 
L 158.525217 59.113412 
L 151.46751 59.113412 
L 144.409802 59.113412 
L 137.352095 59.113412 
L 130.294387 59.113412 
L 123.23668 59.113412 
L 116.178972 59.113412 
L 109.121265 59.113412 
L 102.063557 59.113412 
L 95.00585 59.113412 
L 87.948142 59.113412 
L 80.890435 59.113412 
L 73.832727 59.113412 
z
" clip-path="url(#p80401321ab)" style="fill: #9467bd"/>
   </g>
   <g id="PolyCollection_6">
    <path d="M 73.832727 59.113412 
L 73.832727 59.113412 
L 80.890435 59.113412 
L 87.948142 59.113412 
L 95.00585 59.113412 
L 102.063557 59.113412 
L 109.121265 59.113412 
L 116.178972 59.113412 
L 123.23668 59.113412 
L 130.294387 59.113412 
L 137.352095 59.113412 
L 144.409802 59.113412 
L 151.46751 59.113412 
L 158.525217 59.113412 
L 165.582925 59.113412 
L 172.640632 59.113412 
L 179.69834 59.113412 
L 186.756047 59.113412 
L 193.813755 59.113412 
L 200.871462 59.113412 
L 207.92917 59.113412 
L 214.986877 59.113412 
L 222.044585 59.113412 
L 229.102292 57.456941 
L 236.16 59.113412 
L 243.217708 59.113412 
L 250.275415 60.769882 
L 257.333123 57.456941 
L 264.39083 59.113412 
L 271.448538 77.334588 
L 278.506245 138.624 
L 285.563953 143.593412 
L 292.62166 148.562824 
L 299.679368 171.753412 
L 306.737075 171.753412 
L 313.794783 206.539294 
L 320.85249 214.821647 
L 327.910198 198.256941 
L 334.967905 201.569882 
L 342.025613 204.882824 
L 349.08332 186.661647 
L 356.141028 180.035765 
L 363.198735 178.379294 
L 370.256443 171.753412 
L 377.31415 186.661647 
L 384.371858 185.005176 
L 391.429565 180.035765 
L 398.487273 183.348706 
L 398.487273 160.158118 
L 398.487273 160.158118 
L 391.429565 156.845176 
L 384.371858 161.814588 
L 377.31415 160.158118 
L 370.256443 143.593412 
L 363.198735 148.562824 
L 356.141028 151.875765 
L 349.08332 161.814588 
L 342.025613 183.348706 
L 334.967905 181.692235 
L 327.910198 185.005176 
L 320.85249 166.784 
L 313.794783 165.127529 
L 306.737075 136.967529 
L 299.679368 131.998118 
L 292.62166 102.181647 
L 285.563953 92.242824 
L 278.506245 72.365176 
L 271.448538 59.113412 
L 264.39083 59.113412 
L 257.333123 57.456941 
L 250.275415 60.769882 
L 243.217708 59.113412 
L 236.16 59.113412 
L 229.102292 57.456941 
L 222.044585 59.113412 
L 214.986877 59.113412 
L 207.92917 59.113412 
L 200.871462 59.113412 
L 193.813755 59.113412 
L 186.756047 59.113412 
L 179.69834 59.113412 
L 172.640632 59.113412 
L 165.582925 59.113412 
L 158.525217 59.113412 
L 151.46751 59.113412 
L 144.409802 59.113412 
L 137.352095 59.113412 
L 130.294387 59.113412 
L 123.23668 59.113412 
L 116.178972 59.113412 
L 109.121265 59.113412 
L 102.063557 59.113412 
L 95.00585 59.113412 
L 87.948142 59.113412 
L 80.890435 59.113412 
L 73.832727 59.113412 
z
" clip-path="url(#p80401321ab)" style="fill: #8c564b"/>
   </g>
   <g id="PolyCollection_7">
    <path d="M 73.832727 59.113412 
L 73.832727 59.113412 
L 80.890435 59.113412 
L 87.948142 59.113412 
L 95.00585 59.113412 
L 102.063557 59.113412 
L 109.121265 59.113412 
L 116.178972 59.113412 
L 123.23668 59.113412 
L 130.294387 59.113412 
L 137.352095 59.113412 
L 144.409802 59.113412 
L 151.46751 59.113412 
L 158.525217 59.113412 
L 165.582925 59.113412 
L 172.640632 59.113412 
L 179.69834 59.113412 
L 186.756047 59.113412 
L 193.813755 59.113412 
L 200.871462 59.113412 
L 207.92917 59.113412 
L 214.986877 59.113412 
L 222.044585 59.113412 
L 229.102292 57.456941 
L 236.16 59.113412 
L 243.217708 59.113412 
L 250.275415 60.769882 
L 257.333123 57.456941 
L 264.39083 59.113412 
L 271.448538 59.113412 
L 278.506245 72.365176 
L 285.563953 92.242824 
L 292.62166 102.181647 
L 299.679368 131.998118 
L 306.737075 136.967529 
L 313.794783 165.127529 
L 320.85249 166.784 
L 327.910198 185.005176 
L 334.967905 181.692235 
L 342.025613 183.348706 
L 349.08332 161.814588 
L 356.141028 151.875765 
L 363.198735 148.562824 
L 370.256443 143.593412 
L 377.31415 160.158118 
L 384.371858 161.814588 
L 391.429565 156.845176 
L 398.487273 160.158118 
L 398.487273 138.624 
L 398.487273 138.624 
L 391.429565 143.593412 
L 384.371858 160.158118 
L 377.31415 128.685176 
L 370.256443 120.402824 
L 363.198735 131.998118 
L 356.141028 140.280471 
L 349.08332 146.906353 
L 342.025613 166.784 
L 334.967905 158.501647 
L 327.910198 165.127529 
L 320.85249 146.906353 
L 313.794783 150.219294 
L 306.737075 120.402824 
L 299.679368 115.433412 
L 292.62166 74.021647 
L 285.563953 59.113412 
L 278.506245 59.113412 
L 271.448538 59.113412 
L 264.39083 59.113412 
L 257.333123 57.456941 
L 250.275415 60.769882 
L 243.217708 59.113412 
L 236.16 59.113412 
L 229.102292 57.456941 
L 222.044585 59.113412 
L 214.986877 59.113412 
L 207.92917 59.113412 
L 200.871462 59.113412 
L 193.813755 59.113412 
L 186.756047 59.113412 
L 179.69834 59.113412 
L 172.640632 59.113412 
L 165.582925 59.113412 
L 158.525217 59.113412 
L 151.46751 59.113412 
L 144.409802 59.113412 
L 137.352095 59.113412 
L 130.294387 59.113412 
L 123.23668 59.113412 
L 116.178972 59.113412 
L 109.121265 59.113412 
L 102.063557 59.113412 
L 95.00585 59.113412 
L 87.948142 59.113412 
L 80.890435 59.113412 
L 73.832727 59.113412 
z
" clip-path="url(#p80401321ab)" style="fill: #e377c2"/>
   </g>
   <g id="PolyCollection_8">
    <path d="M 73.832727 59.113412 
L 73.832727 59.113412 
L 80.890435 59.113412 
L 87.948142 59.113412 
L 95.00585 59.113412 
L 102.063557 59.113412 
L 109.121265 59.113412 
L 116.178972 59.113412 
L 123.23668 59.113412 
L 130.294387 59.113412 
L 137.352095 59.113412 
L 144.409802 59.113412 
L 151.46751 59.113412 
L 158.525217 59.113412 
L 165.582925 59.113412 
L 172.640632 59.113412 
L 179.69834 59.113412 
L 186.756047 59.113412 
L 193.813755 59.113412 
L 200.871462 59.113412 
L 207.92917 59.113412 
L 214.986877 59.113412 
L 222.044585 59.113412 
L 229.102292 57.456941 
L 236.16 59.113412 
L 243.217708 59.113412 
L 250.275415 60.769882 
L 257.333123 57.456941 
L 264.39083 59.113412 
L 271.448538 59.113412 
L 278.506245 59.113412 
L 285.563953 59.113412 
L 292.62166 74.021647 
L 299.679368 115.433412 
L 306.737075 120.402824 
L 313.794783 150.219294 
L 320.85249 146.906353 
L 327.910198 165.127529 
L 334.967905 158.501647 
L 342.025613 166.784 
L 349.08332 146.906353 
L 356.141028 140.280471 
L 363.198735 131.998118 
L 370.256443 120.402824 
L 377.31415 128.685176 
L 384.371858 160.158118 
L 391.429565 143.593412 
L 398.487273 138.624 
L 398.487273 120.402824 
L 398.487273 120.402824 
L 391.429565 127.028706 
L 384.371858 138.624 
L 377.31415 118.746353 
L 370.256443 107.151059 
L 363.198735 112.120471 
L 356.141028 128.685176 
L 349.08332 123.715765 
L 342.025613 122.059294 
L 334.967905 112.120471 
L 327.910198 128.685176 
L 320.85249 100.525176 
L 313.794783 92.242824 
L 306.737075 95.555765 
L 299.679368 83.960471 
L 292.62166 62.426353 
L 285.563953 59.113412 
L 278.506245 59.113412 
L 271.448538 59.113412 
L 264.39083 59.113412 
L 257.333123 57.456941 
L 250.275415 60.769882 
L 243.217708 59.113412 
L 236.16 59.113412 
L 229.102292 57.456941 
L 222.044585 59.113412 
L 214.986877 59.113412 
L 207.92917 59.113412 
L 200.871462 59.113412 
L 193.813755 59.113412 
L 186.756047 59.113412 
L 179.69834 59.113412 
L 172.640632 59.113412 
L 165.582925 59.113412 
L 158.525217 59.113412 
L 151.46751 59.113412 
L 144.409802 59.113412 
L 137.352095 59.113412 
L 130.294387 59.113412 
L 123.23668 59.113412 
L 116.178972 59.113412 
L 109.121265 59.113412 
L 102.063557 59.113412 
L 95.00585 59.113412 
L 87.948142 59.113412 
L 80.890435 59.113412 
L 73.832727 59.113412 
z
" clip-path="url(#p80401321ab)" style="fill: #7f7f7f"/>
   </g>
   <g id="PolyCollection_9">
    <path d="M 73.832727 59.113412 
L 73.832727 59.113412 
L 80.890435 59.113412 
L 87.948142 59.113412 
L 95.00585 59.113412 
L 102.063557 59.113412 
L 109.121265 59.113412 
L 116.178972 59.113412 
L 123.23668 59.113412 
L 130.294387 59.113412 
L 137.352095 59.113412 
L 144.409802 59.113412 
L 151.46751 59.113412 
L 158.525217 59.113412 
L 165.582925 59.113412 
L 172.640632 59.113412 
L 179.69834 59.113412 
L 186.756047 59.113412 
L 193.813755 59.113412 
L 200.871462 59.113412 
L 207.92917 59.113412 
L 214.986877 59.113412 
L 222.044585 59.113412 
L 229.102292 57.456941 
L 236.16 59.113412 
L 243.217708 59.113412 
L 250.275415 60.769882 
L 257.333123 57.456941 
L 264.39083 59.113412 
L 271.448538 59.113412 
L 278.506245 59.113412 
L 285.563953 59.113412 
L 292.62166 62.426353 
L 299.679368 83.960471 
L 306.737075 95.555765 
L 313.794783 92.242824 
L 320.85249 100.525176 
L 327.910198 128.685176 
L 334.967905 112.120471 
L 342.025613 122.059294 
L 349.08332 123.715765 
L 356.141028 128.685176 
L 363.198735 112.120471 
L 370.256443 107.151059 
L 377.31415 118.746353 
L 384.371858 138.624 
L 391.429565 127.028706 
L 398.487273 120.402824 
L 398.487273 74.021647 
L 398.487273 74.021647 
L 391.429565 78.991059 
L 384.371858 78.991059 
L 377.31415 70.708706 
L 370.256443 69.052235 
L 363.198735 69.052235 
L 356.141028 74.021647 
L 349.08332 87.273412 
L 342.025613 85.616941 
L 334.967905 83.960471 
L 327.910198 77.334588 
L 320.85249 60.769882 
L 313.794783 59.113412 
L 306.737075 62.426353 
L 299.679368 60.769882 
L 292.62166 57.456941 
L 285.563953 59.113412 
L 278.506245 59.113412 
L 271.448538 59.113412 
L 264.39083 59.113412 
L 257.333123 57.456941 
L 250.275415 60.769882 
L 243.217708 59.113412 
L 236.16 59.113412 
L 229.102292 57.456941 
L 222.044585 59.113412 
L 214.986877 59.113412 
L 207.92917 59.113412 
L 200.871462 59.113412 
L 193.813755 59.113412 
L 186.756047 59.113412 
L 179.69834 59.113412 
L 172.640632 59.113412 
L 165.582925 59.113412 
L 158.525217 59.113412 
L 151.46751 59.113412 
L 144.409802 59.113412 
L 137.352095 59.113412 
L 130.294387 59.113412 
L 123.23668 59.113412 
L 116.178972 59.113412 
L 109.121265 59.113412 
L 102.063557 59.113412 
L 95.00585 59.113412 
L 87.948142 59.113412 
L 80.890435 59.113412 
L 73.832727 59.113412 
z
" clip-path="url(#p80401321ab)" style="fill: #bcbd22"/>
   </g>
   <g id="PolyCollection_10">
    <path d="M 73.832727 59.113412 
L 73.832727 59.113412 
L 80.890435 59.113412 
L 87.948142 59.113412 
L 95.00585 59.113412 
L 102.063557 59.113412 
L 109.121265 59.113412 
L 116.178972 59.113412 
L 123.23668 59.113412 
L 130.294387 59.113412 
L 137.352095 59.113412 
L 144.409802 59.113412 
L 151.46751 59.113412 
L 158.525217 59.113412 
L 165.582925 59.113412 
L 172.640632 59.113412 
L 179.69834 59.113412 
L 186.756047 59.113412 
L 193.813755 59.113412 
L 200.871462 59.113412 
L 207.92917 59.113412 
L 214.986877 59.113412 
L 222.044585 59.113412 
L 229.102292 57.456941 
L 236.16 59.113412 
L 243.217708 59.113412 
L 250.275415 60.769882 
L 257.333123 57.456941 
L 264.39083 59.113412 
L 271.448538 59.113412 
L 278.506245 59.113412 
L 285.563953 59.113412 
L 292.62166 57.456941 
L 299.679368 60.769882 
L 306.737075 62.426353 
L 313.794783 59.113412 
L 320.85249 60.769882 
L 327.910198 77.334588 
L 334.967905 83.960471 
L 342.025613 85.616941 
L 349.08332 87.273412 
L 356.141028 74.021647 
L 363.198735 69.052235 
L 370.256443 69.052235 
L 377.31415 70.708706 
L 384.371858 78.991059 
L 391.429565 78.991059 
L 398.487273 74.021647 
L 398.487273 57.456941 
L 398.487273 57.456941 
L 391.429565 55.800471 
L 384.371858 57.456941 
L 377.31415 54.144 
L 370.256443 54.144 
L 363.198735 57.456941 
L 356.141028 57.456941 
L 349.08332 60.769882 
L 342.025613 59.113412 
L 334.967905 57.456941 
L 327.910198 60.769882 
L 320.85249 60.769882 
L 313.794783 59.113412 
L 306.737075 62.426353 
L 299.679368 60.769882 
L 292.62166 57.456941 
L 285.563953 59.113412 
L 278.506245 59.113412 
L 271.448538 59.113412 
L 264.39083 59.113412 
L 257.333123 57.456941 
L 250.275415 60.769882 
L 243.217708 59.113412 
L 236.16 59.113412 
L 229.102292 57.456941 
L 222.044585 59.113412 
L 214.986877 59.113412 
L 207.92917 59.113412 
L 200.871462 59.113412 
L 193.813755 59.113412 
L 186.756047 59.113412 
L 179.69834 59.113412 
L 172.640632 59.113412 
L 165.582925 59.113412 
L 158.525217 59.113412 
L 151.46751 59.113412 
L 144.409802 59.113412 
L 137.352095 59.113412 
L 130.294387 59.113412 
L 123.23668 59.113412 
L 116.178972 59.113412 
L 109.121265 59.113412 
L 102.063557 59.113412 
L 95.00585 59.113412 
L 87.948142 59.113412 
L 80.890435 59.113412 
L 73.832727 59.113412 
z
" clip-path="url(#p80401321ab)" style="fill: #17becf"/>
   </g>
   <g id="matplotlib.axis_1">
    <g id="xtick_1">
     <g id="line2d_1">
      <defs>
       <path id="m2e56f9e6a5" d="M 0 0 
L 0 3.5 
" style="stroke: #000000; stroke-width: 0.8"/>
      </defs>
      <g>
       <use xlink:href="#m2e56f9e6a5" x="73.832727" y="307.584" style="stroke: #000000; stroke-width: 0.8"/>
      </g>
     </g>
     <g id="text_1">
      <!-- 0 -->
      <g transform="translate(70.651477 322.182437)scale(0.1 -0.1)">
       <defs>
        <path id="DejaVuSans-30" d="M 2034 4250 
Q 1547 4250 1301 3770 
Q 1056 3291 1056 2328 
Q 1056 1369 1301 889 
Q 1547 409 2034 409 
Q 2525 409 2770 889 
Q 3016 1369 3016 2328 
Q 3016 3291 2770 3770 
Q 2525 4250 2034 4250 
z
M 2034 4750 
Q 2819 4750 3233 4129 
Q 3647 3509 3647 2328 
Q 3647 1150 3233 529 
Q 2819 -91 2034 -91 
Q 1250 -91 836 529 
Q 422 1150 422 2328 
Q 422 3509 836 4129 
Q 1250 4750 2034 4750 
z
" transform="scale(0.015625)"/>
       </defs>
       <use xlink:href="#DejaVuSans-30"/>
      </g>
     </g>
    </g>
    <g id="xtick_2">
     <g id="line2d_2">
      <g>
       <use xlink:href="#m2e56f9e6a5" x="144.409802" y="307.584" style="stroke: #000000; stroke-width: 0.8"/>
      </g>
     </g>
     <g id="text_2">
      <!-- 10 -->
      <g transform="translate(138.047302 322.182437)scale(0.1 -0.1)">
       <defs>
        <path id="DejaVuSans-31" d="M 794 531 
L 1825 531 
L 1825 4091 
L 703 3866 
L 703 4441 
L 1819 4666 
L 2450 4666 
L 2450 531 
L 3481 531 
L 3481 0 
L 794 0 
L 794 531 
z
" transform="scale(0.015625)"/>
       </defs>
       <use xlink:href="#DejaVuSans-31"/>
       <use xlink:href="#DejaVuSans-30" x="63.623047"/>
      </g>
     </g>
    </g>
    <g id="xtick_3">
     <g id="line2d_3">
      <g>
       <use xlink:href="#m2e56f9e6a5" x="214.986877" y="307.584" style="stroke: #000000; stroke-width: 0.8"/>
      </g>
     </g>
     <g id="text_3">
      <!-- 20 -->
      <g transform="translate(208.624377 322.182437)scale(0.1 -0.1)">
       <defs>
        <path id="DejaVuSans-32" d="M 1228 531 
L 3431 531 
L 3431 0 
L 469 0 
L 469 531 
Q 828 903 1448 1529 
Q 2069 2156 2228 2338 
Q 2531 2678 2651 2914 
Q 2772 3150 2772 3378 
Q 2772 3750 2511 3984 
Q 2250 4219 1831 4219 
Q 1534 4219 1204 4116 
Q 875 4013 500 3803 
L 500 4441 
Q 881 4594 1212 4672 
Q 1544 4750 1819 4750 
Q 2544 4750 2975 4387 
Q 3406 4025 3406 3419 
Q 3406 3131 3298 2873 
Q 3191 2616 2906 2266 
Q 2828 2175 2409 1742 
Q 1991 1309 1228 531 
z
" transform="scale(0.015625)"/>
       </defs>
       <use xlink:href="#DejaVuSans-32"/>
       <use xlink:href="#DejaVuSans-30" x="63.623047"/>
      </g>
     </g>
    </g>
    <g id="xtick_4">
     <g id="line2d_4">
      <g>
       <use xlink:href="#m2e56f9e6a5" x="285.563953" y="307.584" style="stroke: #000000; stroke-width: 0.8"/>
      </g>
     </g>
     <g id="text_4">
      <!-- 30 -->
      <g transform="translate(279.201453 322.182437)scale(0.1 -0.1)">
       <defs>
        <path id="DejaVuSans-33" d="M 2597 2516 
Q 3050 2419 3304 2112 
Q 3559 1806 3559 1356 
Q 3559 666 3084 287 
Q 2609 -91 1734 -91 
Q 1441 -91 1130 -33 
Q 819 25 488 141 
L 488 750 
Q 750 597 1062 519 
Q 1375 441 1716 441 
Q 2309 441 2620 675 
Q 2931 909 2931 1356 
Q 2931 1769 2642 2001 
Q 2353 2234 1838 2234 
L 1294 2234 
L 1294 2753 
L 1863 2753 
Q 2328 2753 2575 2939 
Q 2822 3125 2822 3475 
Q 2822 3834 2567 4026 
Q 2313 4219 1838 4219 
Q 1578 4219 1281 4162 
Q 984 4106 628 3988 
L 628 4550 
Q 988 4650 1302 4700 
Q 1616 4750 1894 4750 
Q 2613 4750 3031 4423 
Q 3450 4097 3450 3541 
Q 3450 3153 3228 2886 
Q 3006 2619 2597 2516 
z
" transform="scale(0.015625)"/>
       </defs>
       <use xlink:href="#DejaVuSans-33"/>
       <use xlink:href="#DejaVuSans-30" x="63.623047"/>
      </g>
     </g>
    </g>
    <g id="xtick_5">
     <g id="line2d_5">
      <g>
       <use xlink:href="#m2e56f9e6a5" x="356.141028" y="307.584" style="stroke: #000000; stroke-width: 0.8"/>
      </g>
     </g>
     <g id="text_5">
      <!-- 40 -->
      <g transform="translate(349.778528 322.182437)scale(0.1 -0.1)">
       <defs>
        <path id="DejaVuSans-34" d="M 2419 4116 
L 825 1625 
L 2419 1625 
L 2419 4116 
z
M 2253 4666 
L 3047 4666 
L 3047 1625 
L 3713 1625 
L 3713 1100 
L 3047 1100 
L 3047 0 
L 2419 0 
L 2419 1100 
L 313 1100 
L 313 1709 
L 2253 4666 
z
" transform="scale(0.015625)"/>
       </defs>
       <use xlink:href="#DejaVuSans-34"/>
       <use xlink:href="#DejaVuSans-30" x="63.623047"/>
      </g>
     </g>
    </g>
    <g id="text_6">
     <!-- Generations -->
     <g transform="translate(205.662344 335.860562)scale(0.1 -0.1)">
      <defs>
       <path id="DejaVuSans-47" d="M 3809 666 
L 3809 1919 
L 2778 1919 
L 2778 2438 
L 4434 2438 
L 4434 434 
Q 4069 175 3628 42 
Q 3188 -91 2688 -91 
Q 1594 -91 976 548 
Q 359 1188 359 2328 
Q 359 3472 976 4111 
Q 1594 4750 2688 4750 
Q 3144 4750 3555 4637 
Q 3966 4525 4313 4306 
L 4313 3634 
Q 3963 3931 3569 4081 
Q 3175 4231 2741 4231 
Q 1884 4231 1454 3753 
Q 1025 3275 1025 2328 
Q 1025 1384 1454 906 
Q 1884 428 2741 428 
Q 3075 428 3337 486 
Q 3600 544 3809 666 
z
" transform="scale(0.015625)"/>
       <path id="DejaVuSans-65" d="M 3597 1894 
L 3597 1613 
L 953 1613 
Q 991 1019 1311 708 
Q 1631 397 2203 397 
Q 2534 397 2845 478 
Q 3156 559 3463 722 
L 3463 178 
Q 3153 47 2828 -22 
Q 2503 -91 2169 -91 
Q 1331 -91 842 396 
Q 353 884 353 1716 
Q 353 2575 817 3079 
Q 1281 3584 2069 3584 
Q 2775 3584 3186 3129 
Q 3597 2675 3597 1894 
z
M 3022 2063 
Q 3016 2534 2758 2815 
Q 2500 3097 2075 3097 
Q 1594 3097 1305 2825 
Q 1016 2553 972 2059 
L 3022 2063 
z
" transform="scale(0.015625)"/>
       <path id="DejaVuSans-6e" d="M 3513 2113 
L 3513 0 
L 2938 0 
L 2938 2094 
Q 2938 2591 2744 2837 
Q 2550 3084 2163 3084 
Q 1697 3084 1428 2787 
Q 1159 2491 1159 1978 
L 1159 0 
L 581 0 
L 581 3500 
L 1159 3500 
L 1159 2956 
Q 1366 3272 1645 3428 
Q 1925 3584 2291 3584 
Q 2894 3584 3203 3211 
Q 3513 2838 3513 2113 
z
" transform="scale(0.015625)"/>
       <path id="DejaVuSans-72" d="M 2631 2963 
Q 2534 3019 2420 3045 
Q 2306 3072 2169 3072 
Q 1681 3072 1420 2755 
Q 1159 2438 1159 1844 
L 1159 0 
L 581 0 
L 581 3500 
L 1159 3500 
L 1159 2956 
Q 1341 3275 1631 3429 
Q 1922 3584 2338 3584 
Q 2397 3584 2469 3576 
Q 2541 3569 2628 3553 
L 2631 2963 
z
" transform="scale(0.015625)"/>
       <path id="DejaVuSans-61" d="M 2194 1759 
Q 1497 1759 1228 1600 
Q 959 1441 959 1056 
Q 959 750 1161 570 
Q 1363 391 1709 391 
Q 2188 391 2477 730 
Q 2766 1069 2766 1631 
L 2766 1759 
L 2194 1759 
z
M 3341 1997 
L 3341 0 
L 2766 0 
L 2766 531 
Q 2569 213 2275 61 
Q 1981 -91 1556 -91 
Q 1019 -91 701 211 
Q 384 513 384 1019 
Q 384 1609 779 1909 
Q 1175 2209 1959 2209 
L 2766 2209 
L 2766 2266 
Q 2766 2663 2505 2880 
Q 2244 3097 1772 3097 
Q 1472 3097 1187 3025 
Q 903 2953 641 2809 
L 641 3341 
Q 956 3463 1253 3523 
Q 1550 3584 1831 3584 
Q 2591 3584 2966 3190 
Q 3341 2797 3341 1997 
z
" transform="scale(0.015625)"/>
       <path id="DejaVuSans-74" d="M 1172 4494 
L 1172 3500 
L 2356 3500 
L 2356 3053 
L 1172 3053 
L 1172 1153 
Q 1172 725 1289 603 
Q 1406 481 1766 481 
L 2356 481 
L 2356 0 
L 1766 0 
Q 1100 0 847 248 
Q 594 497 594 1153 
L 594 3053 
L 172 3053 
L 172 3500 
L 594 3500 
L 594 4494 
L 1172 4494 
z
" transform="scale(0.015625)"/>
       <path id="DejaVuSans-69" d="M 603 3500 
L 1178 3500 
L 1178 0 
L 603 0 
L 603 3500 
z
M 603 4863 
L 1178 4863 
L 1178 4134 
L 603 4134 
L 603 4863 
z
" transform="scale(0.015625)"/>
       <path id="DejaVuSans-6f" d="M 1959 3097 
Q 1497 3097 1228 2736 
Q 959 2375 959 1747 
Q 959 1119 1226 758 
Q 1494 397 1959 397 
Q 2419 397 2687 759 
Q 2956 1122 2956 1747 
Q 2956 2369 2687 2733 
Q 2419 3097 1959 3097 
z
M 1959 3584 
Q 2709 3584 3137 3096 
Q 3566 2609 3566 1747 
Q 3566 888 3137 398 
Q 2709 -91 1959 -91 
Q 1206 -91 779 398 
Q 353 888 353 1747 
Q 353 2609 779 3096 
Q 1206 3584 1959 3584 
z
" transform="scale(0.015625)"/>
       <path id="DejaVuSans-73" d="M 2834 3397 
L 2834 2853 
Q 2591 2978 2328 3040 
Q 2066 3103 1784 3103 
Q 1356 3103 1142 2972 
Q 928 2841 928 2578 
Q 928 2378 1081 2264 
Q 1234 2150 1697 2047 
L 1894 2003 
Q 2506 1872 2764 1633 
Q 3022 1394 3022 966 
Q 3022 478 2636 193 
Q 2250 -91 1575 -91 
Q 1294 -91 989 -36 
Q 684 19 347 128 
L 347 722 
Q 666 556 975 473 
Q 1284 391 1588 391 
Q 1994 391 2212 530 
Q 2431 669 2431 922 
Q 2431 1156 2273 1281 
Q 2116 1406 1581 1522 
L 1381 1569 
Q 847 1681 609 1914 
Q 372 2147 372 2553 
Q 372 3047 722 3315 
Q 1072 3584 1716 3584 
Q 2034 3584 2315 3537 
Q 2597 3491 2834 3397 
z
" transform="scale(0.015625)"/>
      </defs>
      <use xlink:href="#DejaVuSans-47"/>
      <use xlink:href="#DejaVuSans-65" x="77.490234"/>
      <use xlink:href="#DejaVuSans-6e" x="139.013672"/>
      <use xlink:href="#DejaVuSans-65" x="202.392578"/>
      <use xlink:href="#DejaVuSans-72" x="263.916016"/>
      <use xlink:href="#DejaVuSans-61" x="305.029297"/>
      <use xlink:href="#DejaVuSans-74" x="366.308594"/>
      <use xlink:href="#DejaVuSans-69" x="405.517578"/>
      <use xlink:href="#DejaVuSans-6f" x="433.300781"/>
      <use xlink:href="#DejaVuSans-6e" x="494.482422"/>
      <use xlink:href="#DejaVuSans-73" x="557.861328"/>
     </g>
    </g>
   </g>
   <g id="matplotlib.axis_2">
    <g id="ytick_1">
     <g id="line2d_6">
      <defs>
       <path id="m05f96afecc" d="M 0 0 
L -3.5 0 
" style="stroke: #000000; stroke-width: 0.8"/>
      </defs>
      <g>
       <use xlink:href="#m05f96afecc" x="57.6" y="307.584" style="stroke: #000000; stroke-width: 0.8"/>
      </g>
     </g>
     <g id="text_7">
      <!-- 0 -->
      <g transform="translate(44.2375 311.383219)scale(0.1 -0.1)">
       <use xlink:href="#DejaVuSans-30"/>
      </g>
     </g>
    </g>
    <g id="ytick_2">
     <g id="line2d_7">
      <g>
       <use xlink:href="#m05f96afecc" x="57.6" y="274.454588" style="stroke: #000000; stroke-width: 0.8"/>
      </g>
     </g>
     <g id="text_8">
      <!-- 20 -->
      <g transform="translate(37.875 278.253807)scale(0.1 -0.1)">
       <use xlink:href="#DejaVuSans-32"/>
       <use xlink:href="#DejaVuSans-30" x="63.623047"/>
      </g>
     </g>
    </g>
    <g id="ytick_3">
     <g id="line2d_8">
      <g>
       <use xlink:href="#m05f96afecc" x="57.6" y="241.325176" style="stroke: #000000; stroke-width: 0.8"/>
      </g>
     </g>
     <g id="text_9">
      <!-- 40 -->
      <g transform="translate(37.875 245.124395)scale(0.1 -0.1)">
       <use xlink:href="#DejaVuSans-34"/>
       <use xlink:href="#DejaVuSans-30" x="63.623047"/>
      </g>
     </g>
    </g>
    <g id="ytick_4">
     <g id="line2d_9">
      <g>
       <use xlink:href="#m05f96afecc" x="57.6" y="208.195765" style="stroke: #000000; stroke-width: 0.8"/>
      </g>
     </g>
     <g id="text_10">
      <!-- 60 -->
      <g transform="translate(37.875 211.994983)scale(0.1 -0.1)">
       <defs>
        <path id="DejaVuSans-36" d="M 2113 2584 
Q 1688 2584 1439 2293 
Q 1191 2003 1191 1497 
Q 1191 994 1439 701 
Q 1688 409 2113 409 
Q 2538 409 2786 701 
Q 3034 994 3034 1497 
Q 3034 2003 2786 2293 
Q 2538 2584 2113 2584 
z
M 3366 4563 
L 3366 3988 
Q 3128 4100 2886 4159 
Q 2644 4219 2406 4219 
Q 1781 4219 1451 3797 
Q 1122 3375 1075 2522 
Q 1259 2794 1537 2939 
Q 1816 3084 2150 3084 
Q 2853 3084 3261 2657 
Q 3669 2231 3669 1497 
Q 3669 778 3244 343 
Q 2819 -91 2113 -91 
Q 1303 -91 875 529 
Q 447 1150 447 2328 
Q 447 3434 972 4092 
Q 1497 4750 2381 4750 
Q 2619 4750 2861 4703 
Q 3103 4656 3366 4563 
z
" transform="scale(0.015625)"/>
       </defs>
       <use xlink:href="#DejaVuSans-36"/>
       <use xlink:href="#DejaVuSans-30" x="63.623047"/>
      </g>
     </g>
    </g>
    <g id="ytick_5">
     <g id="line2d_10">
      <g>
       <use xlink:href="#m05f96afecc" x="57.6" y="175.066353" style="stroke: #000000; stroke-width: 0.8"/>
      </g>
     </g>
     <g id="text_11">
      <!-- 80 -->
      <g transform="translate(37.875 178.865572)scale(0.1 -0.1)">
       <defs>
        <path id="DejaVuSans-38" d="M 2034 2216 
Q 1584 2216 1326 1975 
Q 1069 1734 1069 1313 
Q 1069 891 1326 650 
Q 1584 409 2034 409 
Q 2484 409 2743 651 
Q 3003 894 3003 1313 
Q 3003 1734 2745 1975 
Q 2488 2216 2034 2216 
z
M 1403 2484 
Q 997 2584 770 2862 
Q 544 3141 544 3541 
Q 544 4100 942 4425 
Q 1341 4750 2034 4750 
Q 2731 4750 3128 4425 
Q 3525 4100 3525 3541 
Q 3525 3141 3298 2862 
Q 3072 2584 2669 2484 
Q 3125 2378 3379 2068 
Q 3634 1759 3634 1313 
Q 3634 634 3220 271 
Q 2806 -91 2034 -91 
Q 1263 -91 848 271 
Q 434 634 434 1313 
Q 434 1759 690 2068 
Q 947 2378 1403 2484 
z
M 1172 3481 
Q 1172 3119 1398 2916 
Q 1625 2713 2034 2713 
Q 2441 2713 2670 2916 
Q 2900 3119 2900 3481 
Q 2900 3844 2670 4047 
Q 2441 4250 2034 4250 
Q 1625 4250 1398 4047 
Q 1172 3844 1172 3481 
z
" transform="scale(0.015625)"/>
       </defs>
       <use xlink:href="#DejaVuSans-38"/>
       <use xlink:href="#DejaVuSans-30" x="63.623047"/>
      </g>
     </g>
    </g>
    <g id="ytick_6">
     <g id="line2d_11">
      <g>
       <use xlink:href="#m05f96afecc" x="57.6" y="141.936941" style="stroke: #000000; stroke-width: 0.8"/>
      </g>
     </g>
     <g id="text_12">
      <!-- 100 -->
      <g transform="translate(31.5125 145.73616)scale(0.1 -0.1)">
       <use xlink:href="#DejaVuSans-31"/>
       <use xlink:href="#DejaVuSans-30" x="63.623047"/>
       <use xlink:href="#DejaVuSans-30" x="127.246094"/>
      </g>
     </g>
    </g>
    <g id="ytick_7">
     <g id="line2d_12">
      <g>
       <use xlink:href="#m05f96afecc" x="57.6" y="108.807529" style="stroke: #000000; stroke-width: 0.8"/>
      </g>
     </g>
     <g id="text_13">
      <!-- 120 -->
      <g transform="translate(31.5125 112.606748)scale(0.1 -0.1)">
       <use xlink:href="#DejaVuSans-31"/>
       <use xlink:href="#DejaVuSans-32" x="63.623047"/>
       <use xlink:href="#DejaVuSans-30" x="127.246094"/>
      </g>
     </g>
    </g>
    <g id="ytick_8">
     <g id="line2d_13">
      <g>
       <use xlink:href="#m05f96afecc" x="57.6" y="75.678118" style="stroke: #000000; stroke-width: 0.8"/>
      </g>
     </g>
     <g id="text_14">
      <!-- 140 -->
      <g transform="translate(31.5125 79.477336)scale(0.1 -0.1)">
       <use xlink:href="#DejaVuSans-31"/>
       <use xlink:href="#DejaVuSans-34" x="63.623047"/>
       <use xlink:href="#DejaVuSans-30" x="127.246094"/>
      </g>
     </g>
    </g>
    <g id="ytick_9">
     <g id="line2d_14">
      <g>
       <use xlink:href="#m05f96afecc" x="57.6" y="42.548706" style="stroke: #000000; stroke-width: 0.8"/>
      </g>
     </g>
     <g id="text_15">
      <!-- 160 -->
      <g transform="translate(31.5125 46.347925)scale(0.1 -0.1)">
       <use xlink:href="#DejaVuSans-31"/>
       <use xlink:href="#DejaVuSans-36" x="63.623047"/>
       <use xlink:href="#DejaVuSans-30" x="127.246094"/>
      </g>
     </g>
    </g>
    <g id="text_16">
     <!-- Size per Species -->
     <g transform="translate(25.432812 215.520969)rotate(-90)scale(0.1 -0.1)">
      <defs>
       <path id="DejaVuSans-53" d="M 3425 4513 
L 3425 3897 
Q 3066 4069 2747 4153 
Q 2428 4238 2131 4238 
Q 1616 4238 1336 4038 
Q 1056 3838 1056 3469 
Q 1056 3159 1242 3001 
Q 1428 2844 1947 2747 
L 2328 2669 
Q 3034 2534 3370 2195 
Q 3706 1856 3706 1288 
Q 3706 609 3251 259 
Q 2797 -91 1919 -91 
Q 1588 -91 1214 -16 
Q 841 59 441 206 
L 441 856 
Q 825 641 1194 531 
Q 1563 422 1919 422 
Q 2459 422 2753 634 
Q 3047 847 3047 1241 
Q 3047 1584 2836 1778 
Q 2625 1972 2144 2069 
L 1759 2144 
Q 1053 2284 737 2584 
Q 422 2884 422 3419 
Q 422 4038 858 4394 
Q 1294 4750 2059 4750 
Q 2388 4750 2728 4690 
Q 3069 4631 3425 4513 
z
" transform="scale(0.015625)"/>
       <path id="DejaVuSans-7a" d="M 353 3500 
L 3084 3500 
L 3084 2975 
L 922 459 
L 3084 459 
L 3084 0 
L 275 0 
L 275 525 
L 2438 3041 
L 353 3041 
L 353 3500 
z
" transform="scale(0.015625)"/>
       <path id="DejaVuSans-20" transform="scale(0.015625)"/>
       <path id="DejaVuSans-70" d="M 1159 525 
L 1159 -1331 
L 581 -1331 
L 581 3500 
L 1159 3500 
L 1159 2969 
Q 1341 3281 1617 3432 
Q 1894 3584 2278 3584 
Q 2916 3584 3314 3078 
Q 3713 2572 3713 1747 
Q 3713 922 3314 415 
Q 2916 -91 2278 -91 
Q 1894 -91 1617 61 
Q 1341 213 1159 525 
z
M 3116 1747 
Q 3116 2381 2855 2742 
Q 2594 3103 2138 3103 
Q 1681 3103 1420 2742 
Q 1159 2381 1159 1747 
Q 1159 1113 1420 752 
Q 1681 391 2138 391 
Q 2594 391 2855 752 
Q 3116 1113 3116 1747 
z
" transform="scale(0.015625)"/>
       <path id="DejaVuSans-63" d="M 3122 3366 
L 3122 2828 
Q 2878 2963 2633 3030 
Q 2388 3097 2138 3097 
Q 1578 3097 1268 2742 
Q 959 2388 959 1747 
Q 959 1106 1268 751 
Q 1578 397 2138 397 
Q 2388 397 2633 464 
Q 2878 531 3122 666 
L 3122 134 
Q 2881 22 2623 -34 
Q 2366 -91 2075 -91 
Q 1284 -91 818 406 
Q 353 903 353 1747 
Q 353 2603 823 3093 
Q 1294 3584 2113 3584 
Q 2378 3584 2631 3529 
Q 2884 3475 3122 3366 
z
" transform="scale(0.015625)"/>
      </defs>
      <use xlink:href="#DejaVuSans-53"/>
      <use xlink:href="#DejaVuSans-69" x="63.476562"/>
      <use xlink:href="#DejaVuSans-7a" x="91.259766"/>
      <use xlink:href="#DejaVuSans-65" x="143.75"/>
      <use xlink:href="#DejaVuSans-20" x="205.273438"/>
      <use xlink:href="#DejaVuSans-70" x="237.060547"/>
      <use xlink:href="#DejaVuSans-65" x="300.537109"/>
      <use xlink:href="#DejaVuSans-72" x="362.060547"/>
      <use xlink:href="#DejaVuSans-20" x="403.173828"/>
      <use xlink:href="#DejaVuSans-53" x="434.960938"/>
      <use xlink:href="#DejaVuSans-70" x="498.4375"/>
      <use xlink:href="#DejaVuSans-65" x="561.914062"/>
      <use xlink:href="#DejaVuSans-63" x="623.4375"/>
      <use xlink:href="#DejaVuSans-69" x="678.417969"/>
      <use xlink:href="#DejaVuSans-65" x="706.201172"/>
      <use xlink:href="#DejaVuSans-73" x="767.724609"/>
     </g>
    </g>
   </g>
   <g id="patch_3">
    <path d="M 57.6 307.584 
L 57.6 41.472 
" style="fill: none; stroke: #000000; stroke-width: 0.8; stroke-linejoin: miter; stroke-linecap: square"/>
   </g>
   <g id="patch_4">
    <path d="M 414.72 307.584 
L 414.72 41.472 
" style="fill: none; stroke: #000000; stroke-width: 0.8; stroke-linejoin: miter; stroke-linecap: square"/>
   </g>
   <g id="patch_5">
    <path d="M 57.6 307.584 
L 414.72 307.584 
" style="fill: none; stroke: #000000; stroke-width: 0.8; stroke-linejoin: miter; stroke-linecap: square"/>
   </g>
   <g id="patch_6">
    <path d="M 57.6 41.472 
L 414.72 41.472 
" style="fill: none; stroke: #000000; stroke-width: 0.8; stroke-linejoin: miter; stroke-linecap: square"/>
   </g>
   <g id="text_17">
    <!-- Speciation -->
    <g transform="translate(204.714375 35.472)scale(0.12 -0.12)">
     <use xlink:href="#DejaVuSans-53"/>
     <use xlink:href="#DejaVuSans-70" x="63.476562"/>
     <use xlink:href="#DejaVuSans-65" x="126.953125"/>
     <use xlink:href="#DejaVuSans-63" x="188.476562"/>
     <use xlink:href="#DejaVuSans-69" x="243.457031"/>
     <use xlink:href="#DejaVuSans-61" x="271.240234"/>
     <use xlink:href="#DejaVuSans-74" x="332.519531"/>
     <use xlink:href="#DejaVuSans-69" x="371.728516"/>
     <use xlink:href="#DejaVuSans-6f" x="399.511719"/>
     <use xlink:href="#DejaVuSans-6e" x="460.693359"/>
    </g>
   </g>
  </g>
 </g>
 <defs>
  <clipPath id="p80401321ab">
   <rect x="57.6" y="41.472" width="357.12" height="266.112"/>
  </clipPath>
 </defs>
</svg>
